KantumruyPro-Italic.ufo
<glyph name="exclam" format="2">
  <advance width="257"/>
  <unicode hex="0021"/>
  <anchor x="25" y="42" name="_center"/>
  <outline>
    <contour>
      <point x="89" y="203" type="line"/>
      <point x="141" y="203" type="line"/>
      <point x="191" y="365" type="line"/>
      <point x="259" y="660" type="line"/>
      <point x="182" y="660" type="line"/>
      <point x="113" y="365" type="line"/>
    </contour>
    <contour>
      <point x="79" y="-9" type="curve" smooth="yes"/>
      <point x="113" y="-9"/>
      <point x="141" y="17"/>
      <point x="141" y="58" type="curve" smooth="yes"/>
      <point x="141" y="89"/>
      <point x="118" y="110"/>
      <point x="88" y="110" type="curve" smooth="yes"/>
      <point x="53" y="110"/>
      <point x="25" y="83"/>
      <point x="25" y="42" type="curve" smooth="yes"/>
      <point x="25" y="12"/>
      <point x="48" y="-9"/>
    </contour>
  </outline>
</glyph>
<glyph name="numbersign" format="2">
	<unicode hex="0023"/>
	<advance width="620"/>
	<outline>
		<contour>
			<point x="293" y="0" type="line"/>
			<point x="357" y="0" type="line"/>
			<point x="578" y="660" type="line"/>
			<point x="514" y="660" type="line"/>
		</contour>
		<contour>
			<point x="28" y="189" type="line"/>
			<point x="563" y="189" type="line"/>
			<point x="564" y="244" type="line"/>
			<point x="28" y="244" type="line"/>
		</contour>
		<contour>
			<point x="68" y="0" type="line"/>
			<point x="132" y="0" type="line"/>
			<point x="353" y="660" type="line"/>
			<point x="289" y="660" type="line"/>
		</contour>
		<contour>
			<point x="94" y="418" type="line"/>
			<point x="629" y="418" type="line"/>
			<point x="629" y="473" type="line"/>
			<point x="94" y="473" type="line"/>
		</contour>
	</outline>
</glyph>
<glyph name="dollar" format="2">
	<unicode hex="0024"/>
	<advance width="603"/>
	<outline>
		<contour>
			<point x="309" y="1" type="curve" smooth="yes"/>
			<point x="432" y="1"/>
			<point x="534" y="79"/>
			<point x="534" y="197" type="curve" smooth="yes"/>
			<point x="534" y="273"/>
			<point x="483" y="320"/>
			<point x="397" y="345" type="curve" smooth="yes"/>
			<point x="289" y="376" type="line" smooth="yes"/>
			<point x="233" y="392"/>
			<point x="193" y="431"/>
			<point x="193" y="481" type="curve" smooth="yes"/>
			<point x="193" y="544"/>
			<point x="248" y="600"/>
			<point x="345" y="600" type="curve" smooth="yes"/>
			<point x="421" y="600"/>
			<point x="496" y="572"/>
			<point x="519" y="473" type="curve"/>
			<point x="586" y="503" type="line"/>
			<point x="552" y="607"/>
			<point x="470" y="660"/>
			<point x="349" y="660" type="curve" smooth="yes"/>
			<point x="212" y="660"/>
			<point x="123" y="577"/>
			<point x="123" y="470" type="curve" smooth="yes"/>
			<point x="123" y="392"/>
			<point x="183" y="335"/>
			<point x="272" y="309" type="curve" smooth="yes"/>
			<point x="372" y="280" type="line" smooth="yes"/>
			<point x="430" y="263"/>
			<point x="465" y="237"/>
			<point x="465" y="186" type="curve" smooth="yes"/>
			<point x="465" y="122"/>
			<point x="410" y="62"/>
			<point x="315" y="62" type="curve" smooth="yes"/>
			<point x="216" y="62"/>
			<point x="130" y="110"/>
			<point x="100" y="221" type="curve"/>
			<point x="33" y="191" type="line"/>
			<point x="72" y="69"/>
			<point x="170" y="1"/>
		</contour>
		<contour>
			<point x="194" y="-100" type="line"/>
			<point x="257" y="-100" type="line"/>
			<point x="456" y="760" type="line"/>
			<point x="393" y="760" type="line"/>
		</contour>
	</outline>
</glyph>
<glyph name="percent" format="2">
	<unicode hex="0025"/>
	<advance width="871"/>
	<outline>
		<contour>
			<point x="118" y="0" type="line"/>
			<point x="196" y="0" type="line"/>
			<point x="790" y="660" type="line"/>
			<point x="712" y="660" type="line"/>
		</contour>
		<contour>
			<point x="232" y="309" type="curve" smooth="yes"/>
			<point x="342" y="309"/>
			<point x="413" y="410"/>
			<point x="413" y="522" type="curve" smooth="yes"/>
			<point x="413" y="608"/>
			<point x="362" y="669"/>
			<point x="273" y="669" type="curve" smooth="yes"/>
			<point x="163" y="669"/>
			<point x="92" y="568"/>
			<point x="92" y="455" type="curve" smooth="yes"/>
			<point x="92" y="370"/>
			<point x="143" y="309"/>
		</contour>
		<contour>
			<point x="237" y="366" type="curve" smooth="yes"/>
			<point x="184" y="366"/>
			<point x="156" y="402"/>
			<point x="156" y="457" type="curve" smooth="yes"/>
			<point x="156" y="532"/>
			<point x="196" y="612"/>
			<point x="268" y="612" type="curve" smooth="yes"/>
			<point x="321" y="612"/>
			<point x="349" y="575"/>
			<point x="349" y="520" type="curve" smooth="yes"/>
			<point x="349" y="446"/>
			<point x="309" y="366"/>
		</contour>
		<contour>
			<point x="636" y="-9" type="curve" smooth="yes"/>
			<point x="745" y="-9"/>
			<point x="816" y="93"/>
			<point x="816" y="205" type="curve" smooth="yes"/>
			<point x="816" y="290"/>
			<point x="766" y="351"/>
			<point x="677" y="351" type="curve" smooth="yes"/>
			<point x="567" y="351"/>
			<point x="496" y="251"/>
			<point x="496" y="138" type="curve" smooth="yes"/>
			<point x="496" y="52"/>
			<point x="547" y="-9"/>
		</contour>
		<contour>
			<point x="641" y="48" type="curve" smooth="yes"/>
			<point x="588" y="48"/>
			<point x="560" y="85"/>
			<point x="560" y="140" type="curve" smooth="yes"/>
			<point x="560" y="215"/>
			<point x="600" y="295"/>
			<point x="672" y="295" type="curve" smooth="yes"/>
			<point x="725" y="295"/>
			<point x="752" y="258"/>
			<point x="752" y="203" type="curve" smooth="yes"/>
			<point x="752" y="129"/>
			<point x="713" y="48"/>
		</contour>
	</outline>
</glyph>
<glyph name="ampersand" format="2">
	<unicode hex="0026"/>
	<advance width="584"/>
	<outline>
		<contour>
			<point x="223" y="-8" type="curve" smooth="yes"/>
			<point x="297" y="-8"/>
			<point x="356" y="24"/>
			<point x="407" y="68" type="curve"/>
			<point x="425" y="82" type="line"/>
			<point x="486" y="140"/>
			<point x="534" y="231"/>
			<point x="550" y="320" type="curve"/>
			<point x="489" y="325" type="line"/>
			<point x="476" y="242"/>
			<point x="437" y="175"/>
			<point x="390" y="127" type="curve"/>
			<point x="377" y="117" type="line"/>
			<point x="331" y="77"/>
			<point x="290" y="52"/>
			<point x="224" y="52" type="curve" smooth="yes"/>
			<point x="145" y="52"/>
			<point x="90" y="97"/>
			<point x="90" y="174" type="curve" smooth="yes"/>
			<point x="90" y="269"/>
			<point x="155" y="308"/>
			<point x="257" y="341" type="curve"/>
			<point x="264" y="342" type="line"/>
			<point x="388" y="384"/>
			<point x="475" y="436"/>
			<point x="475" y="552" type="curve" smooth="yes"/>
			<point x="475" y="619"/>
			<point x="431" y="670"/>
			<point x="352" y="670" type="curve" smooth="yes"/>
			<point x="260" y="670"/>
			<point x="191" y="602"/>
			<point x="191" y="497" type="curve" smooth="yes"/>
			<point x="191" y="416"/>
			<point x="227" y="312"/>
			<point x="279" y="205" type="curve" smooth="yes"/>
			<point x="342" y="76"/>
			<point x="431" y="-11"/>
			<point x="533" y="-11" type="curve"/>
			<point x="533" y="-11" type="line"/>
			<point x="544" y="44" type="line"/>
			<point x="471" y="44"/>
			<point x="388" y="123"/>
			<point x="333" y="243" type="curve" smooth="yes"/>
			<point x="289" y="339"/>
			<point x="256" y="435"/>
			<point x="256" y="501" type="curve" smooth="yes"/>
			<point x="256" y="572"/>
			<point x="298" y="613"/>
			<point x="347" y="613" type="curve" smooth="yes"/>
			<point x="385" y="613"/>
			<point x="412" y="588"/>
			<point x="412" y="541" type="curve" smooth="yes"/>
			<point x="412" y="467"/>
			<point x="345" y="427"/>
			<point x="263" y="399" type="curve"/>
			<point x="230" y="385" type="line"/>
			<point x="106" y="348"/>
			<point x="23" y="292"/>
			<point x="23" y="170" type="curve" smooth="yes"/>
			<point x="23" y="61"/>
			<point x="95" y="-8"/>
		</contour>
	</outline>
</glyph>
<glyph name="quotesingle" format="2">
  <advance width="221"/>
  <unicode hex="0027"/>
  <outline>
    <contour>
      <point x="261" y="689" type="line"/>
      <point x="179" y="689" type="line"/>
      <point x="125" y="453" type="line"/>
      <point x="183" y="453" type="line"/>
    </contour>
  </outline>
</glyph>
<glyph name="parenleft" format="2">
	<advance width="331"/>
	<unicode hex="0028"/>
	<outline>
		<contour>
			<point x="162" y="-187" type="curve"/>
			<point x="210" y="-156" type="line"/>
			<point x="159" y="-65"/>
			<point x="130" y="56"/>
			<point x="130" y="174" type="curve" smooth="yes"/>
			<point x="130" y="383"/>
			<point x="226" y="588"/>
			<point x="409" y="705" type="curve"/>
			<point x="380" y="750" type="line"/>
			<point x="175" y="632"/>
			<point x="59" y="411"/>
			<point x="59" y="181" type="curve" smooth="yes"/>
			<point x="59" y="53"/>
			<point x="96" y="-85"/>
		</contour>
	</outline>
</glyph>
<glyph name="asterisk" format="2">
  <advance width="556"/>
  <unicode hex="002A"/>
  <outline>
    <contour>
      <point x="401" y="282" type="line"/>
      <point x="454" y="309" type="line"/>
      <point x="406" y="415" type="line"/>
      <point x="365" y="483" type="line"/>
      <point x="448" y="491" type="line"/>
      <point x="570" y="516" type="line"/>
      <point x="566" y="573" type="line"/>
      <point x="443" y="549" type="line"/>
      <point x="362" y="524" type="line"/>
      <point x="390" y="604" type="line"/>
      <point x="419" y="730" type="line"/>
      <point x="356" y="730" type="line"/>
      <point x="330" y="611" type="line"/>
      <point x="321" y="528" type="line"/>
      <point x="255" y="570" type="line"/>
      <point x="148" y="620" type="line"/>
      <point x="121" y="568" type="line"/>
      <point x="226" y="517" type="line"/>
      <point x="299" y="491" type="line"/>
      <point x="231" y="438" type="line"/>
      <point x="138" y="347" type="line"/>
      <point x="178" y="305" type="line"/>
      <point x="272" y="395" type="line"/>
      <point x="328" y="463" type="line"/>
      <point x="351" y="388" type="line"/>
    </contour>
  </outline>
</glyph>
<glyph name="plus" format="2">
  <advance width="604"/>
  <unicode hex="002B"/>
  <outline>
    <contour>
      <point x="408" y="562" type="line"/>
      <point x="340" y="562" type="line"/>
      <point x="227" y="69" type="line"/>
      <point x="295" y="69" type="line"/>
    </contour>
    <contour>
      <point x="567" y="350" type="line"/>
      <point x="84" y="350" type="line"/>
      <point x="68" y="283" type="line"/>
      <point x="552" y="283" type="line"/>
    </contour>
  </outline>
</glyph>
<glyph name="comma" format="2">
	<advance width="242"/>
	<unicode hex="002C"/>
	<outline>
		<contour>
			<point x="86" y="110" type="curve" smooth="yes"/>
			<point x="50" y="110"/>
			<point x="22" y="82"/>
			<point x="22" y="44" type="curve" smooth="yes"/>
			<point x="22" y="18"/>
			<point x="38" y="-8"/>
			<point x="67" y="-8" type="curve" smooth="yes"/>
			<point x="80" y="-8"/>
			<point x="87" y="-6"/>
			<point x="93" y="0" type="curve"/>
			<point x="94" y="-1" type="line"/>
			<point x="82" y="-47"/>
			<point x="44" y="-89"/>
			<point x="-31" y="-100" type="curve"/>
			<point x="-8" y="-144" type="line"/>
			<point x="89" y="-123"/>
			<point x="148" y="-38"/>
			<point x="148" y="35" type="curve" smooth="yes"/>
			<point x="148" y="79"/>
			<point x="124" y="110"/>
		</contour>
	</outline>
</glyph>
<glyph name="hyphen" format="2">
	<unicode hex="002D"/>
	<advance width="498"/>
	<outline>
		<contour>
			<point x="422" y="300" type="line"/>
			<point x="99" y="300" type="line"/>
			<point x="82" y="225" type="line"/>
			<point x="405" y="225" type="line"/>
		</contour>
	</outline>
</glyph>
<glyph name="period" format="2">
	<advance width="250"/>
	<unicode hex="002E"/>
	<anchor x="21" y="42" name="_center"/>
	<outline>
		<contour>
			<point x="75" y="-9" type="curve" smooth="yes"/>
			<point x="109" y="-9"/>
			<point x="137" y="17"/>
			<point x="137" y="58" type="curve" smooth="yes"/>
			<point x="137" y="89"/>
			<point x="114" y="110"/>
			<point x="84" y="110" type="curve" smooth="yes"/>
			<point x="49" y="110"/>
			<point x="21" y="83"/>
			<point x="21" y="42" type="curve" smooth="yes"/>
			<point x="21" y="12"/>
			<point x="44" y="-9"/>
		</contour>
	</outline>
</glyph>
<glyph name="slash" format="2">
  <advance width="411"/>
  <unicode hex="002F"/>
  <outline>
    <contour>
      <point x="495" y="730" type="line"/>
      <point x="421" y="730" type="line"/>
      <point x="-47" y="-70" type="line"/>
      <point x="27" y="-70" type="line"/>
    </contour>
  </outline>
</glyph>
<glyph name="zero" format="2">
	<unicode hex="0030"/>
	<advance width="610"/>
	<outline>
		<contour>
			<point x="285" y="-8" type="curve" smooth="yes"/>
			<point x="423" y="-8"/>
			<point x="520" y="118"/>
			<point x="557" y="278" type="curve" smooth="yes"/>
			<point x="567" y="321"/>
			<point x="573" y="370"/>
			<point x="573" y="422" type="curve" smooth="yes"/>
			<point x="573" y="569"/>
			<point x="498" y="670"/>
			<point x="372" y="670" type="curve" smooth="yes"/>
			<point x="225" y="670"/>
			<point x="128" y="546"/>
			<point x="91" y="389" type="curve" smooth="yes"/>
			<point x="80" y="343"/>
			<point x="74" y="294"/>
			<point x="74" y="241" type="curve" smooth="yes"/>
			<point x="74" y="92"/>
			<point x="152" y="-8"/>
		</contour>
		<contour>
			<point x="293" y="56" type="curve" smooth="yes"/>
			<point x="211" y="56"/>
			<point x="148" y="110"/>
			<point x="148" y="242" type="curve" smooth="yes"/>
			<point x="148" y="285"/>
			<point x="153" y="329"/>
			<point x="163" y="375" type="curve" smooth="yes"/>
			<point x="191" y="498"/>
			<point x="260" y="606"/>
			<point x="364" y="606" type="curve" smooth="yes"/>
			<point x="448" y="606"/>
			<point x="500" y="548"/>
			<point x="500" y="421" type="curve" smooth="yes"/>
			<point x="500" y="381"/>
			<point x="495" y="332"/>
			<point x="485" y="289" type="curve" smooth="yes"/>
			<point x="457" y="165"/>
			<point x="391" y="56"/>
		</contour>
	</outline>
</glyph>
<glyph name="one" format="2">
	<unicode hex="0031"/>
	<advance width="360"/>
	<outline>
		<contour>
			<point x="121" y="0" type="line"/>
			<point x="193" y="0" type="line"/>
			<point x="346" y="660" type="line"/>
			<point x="283" y="660" type="line"/>
			<point x="244" y="619"/>
			<point x="147" y="569"/>
			<point x="79" y="552" type="curve"/>
			<point x="78" y="482" type="line"/>
			<point x="135" y="493"/>
			<point x="219" y="534"/>
			<point x="258" y="574" type="curve"/>
			<point x="245" y="540"/>
			<point x="239" y="517"/>
			<point x="230" y="479" type="curve" smooth="yes"/>
		</contour>
	</outline>
</glyph>
<glyph name="two" format="2">
	<advance width="549"/>
	<unicode hex="0032"/>
	<outline>
		<contour>
			<point x="22" y="0" type="line"/>
			<point x="452" y="0" type="line"/>
			<point x="470" y="67" type="line"/>
			<point x="200" y="67" type="line" smooth="yes"/>
			<point x="188" y="67"/>
			<point x="151" y="66"/>
			<point x="137" y="65" type="curve"/>
			<point x="137" y="66" type="line"/>
			<point x="299" y="187"/>
			<point x="513" y="321"/>
			<point x="513" y="504" type="curve" smooth="yes"/>
			<point x="513" y="606"/>
			<point x="436" y="670"/>
			<point x="325" y="670" type="curve" smooth="yes"/>
			<point x="207" y="670"/>
			<point x="126" y="595"/>
			<point x="95" y="497" type="curve"/>
			<point x="150" y="451" type="line"/>
			<point x="173" y="538"/>
			<point x="231" y="602"/>
			<point x="321" y="602" type="curve" smooth="yes"/>
			<point x="387" y="602"/>
			<point x="438" y="566"/>
			<point x="438" y="490" type="curve" smooth="yes"/>
			<point x="438" y="337"/>
			<point x="257" y="228"/>
			<point x="39" y="68" type="curve"/>
		</contour>
	</outline>
</glyph>
<glyph name="three" format="2">
	<advance width="544"/>
	<unicode hex="0033"/>
	<outline>
		<contour>
			<point x="256" y="-10" type="curve" smooth="yes"/>
			<point x="368" y="-10"/>
			<point x="473" y="69"/>
			<point x="473" y="202" type="curve" smooth="yes"/>
			<point x="473" y="273"/>
			<point x="432" y="318"/>
			<point x="364" y="329" type="curve"/>
			<point x="365" y="331" type="line"/>
			<point x="448" y="336"/>
			<point x="515" y="407"/>
			<point x="515" y="508" type="curve" smooth="yes"/>
			<point x="515" y="609"/>
			<point x="437" y="671"/>
			<point x="333" y="671" type="curve" smooth="yes"/>
			<point x="233" y="671"/>
			<point x="155" y="622"/>
			<point x="119" y="538" type="curve"/>
			<point x="182" y="500" type="line"/>
			<point x="206" y="560"/>
			<point x="245" y="604"/>
			<point x="324" y="604" type="curve" smooth="yes"/>
			<point x="386" y="604"/>
			<point x="443" y="571"/>
			<point x="443" y="496" type="curve" smooth="yes"/>
			<point x="443" y="416"/>
			<point x="392" y="368"/>
			<point x="306" y="368" type="curve" smooth="yes"/>
			<point x="294" y="368"/>
			<point x="281" y="369"/>
			<point x="267" y="371" type="curve"/>
			<point x="251" y="300" type="line"/>
			<point x="261" y="301"/>
			<point x="269" y="301"/>
			<point x="278" y="301" type="curve" smooth="yes"/>
			<point x="346" y="301"/>
			<point x="400" y="272"/>
			<point x="400" y="195" type="curve" smooth="yes"/>
			<point x="400" y="122"/>
			<point x="350" y="57"/>
			<point x="261" y="57" type="curve" smooth="yes"/>
			<point x="176" y="57"/>
			<point x="126" y="110"/>
			<point x="115" y="193" type="curve"/>
			<point x="39" y="171" type="line"/>
			<point x="61" y="62"/>
			<point x="138" y="-10"/>
		</contour>
	</outline>
</glyph>
<glyph name="four" format="2">
	<advance width="544"/>
	<unicode hex="0034"/>
	<outline>
		<contour>
			<point x="266" y="0" type="line"/>
			<point x="337" y="0" type="line"/>
			<point x="378" y="177" type="line"/>
			<point x="499" y="177" type="line"/>
			<point x="514" y="239" type="line"/>
			<point x="392" y="239" type="line"/>
			<point x="490" y="660" type="line"/>
			<point x="388" y="660" type="line"/>
			<point x="94" y="318" type="line" smooth="yes"/>
			<point x="57" y="275"/>
			<point x="49" y="261"/>
			<point x="32" y="239" type="curve"/>
			<point x="17" y="177" type="line"/>
			<point x="307" y="177" type="line"/>
		</contour>
		<contour>
			<point x="99" y="239" type="line"/>
			<point x="123" y="266"/>
			<point x="147" y="289"/>
			<point x="172" y="319" type="curve" smooth="yes"/>
			<point x="402" y="592" type="line"/>
			<point x="321" y="239" type="line"/>
		</contour>
	</outline>
</glyph>
<glyph name="five" format="2">
	<unicode hex="0035"/>
	<advance width="553"/>
	<outline>
		<contour>
			<point x="259" y="-10" type="curve" smooth="yes"/>
			<point x="399" y="-10"/>
			<point x="487" y="97"/>
			<point x="487" y="240" type="curve" smooth="yes"/>
			<point x="487" y="358"/>
			<point x="408" y="421"/>
			<point x="311" y="421" type="curve" smooth="yes"/>
			<point x="264" y="421"/>
			<point x="222" y="406"/>
			<point x="191" y="381" type="curve"/>
			<point x="259" y="593" type="line"/>
			<point x="526" y="593" type="line"/>
			<point x="543" y="660" type="line"/>
			<point x="211" y="660" type="line"/>
			<point x="106" y="334" type="line"/>
			<point x="164" y="314" type="line"/>
			<point x="198" y="344"/>
			<point x="232" y="360"/>
			<point x="282" y="360" type="curve" smooth="yes"/>
			<point x="352" y="360"/>
			<point x="412" y="320"/>
			<point x="412" y="230" type="curve" smooth="yes"/>
			<point x="412" y="140"/>
			<point x="364" y="57"/>
			<point x="267" y="57" type="curve" smooth="yes"/>
			<point x="168" y="57"/>
			<point x="135" y="120"/>
			<point x="127" y="181" type="curve"/>
			<point x="50" y="162" type="line"/>
			<point x="62" y="72"/>
			<point x="141" y="-10"/>
		</contour>
	</outline>
</glyph>
<glyph name="six" format="2">
	<advance width="567"/>
	<unicode hex="0036"/>
	<outline>
		<contour>
			<point x="293" y="-10" type="curve" smooth="yes"/>
			<point x="426" y="-10"/>
			<point x="510" y="91"/>
			<point x="510" y="229" type="curve" smooth="yes"/>
			<point x="510" y="339"/>
			<point x="439" y="412"/>
			<point x="327" y="412" type="curve" smooth="yes"/>
			<point x="245" y="412"/>
			<point x="169" y="369"/>
			<point x="146" y="293" type="curve"/>
			<point x="162" y="445"/>
			<point x="230" y="603"/>
			<point x="371" y="603" type="curve" smooth="yes"/>
			<point x="431" y="603"/>
			<point x="485" y="566"/>
			<point x="494" y="501" type="curve"/>
			<point x="566" y="524" type="line"/>
			<point x="546" y="627"/>
			<point x="468" y="671"/>
			<point x="378" y="671" type="curve" smooth="yes"/>
			<point x="169" y="671"/>
			<point x="75" y="453"/>
			<point x="75" y="241" type="curve" smooth="yes"/>
			<point x="75" y="91"/>
			<point x="145" y="-10"/>
		</contour>
		<contour>
			<point x="297" y="57" type="curve" smooth="yes"/>
			<point x="214" y="57"/>
			<point x="157" y="113"/>
			<point x="157" y="195" type="curve" smooth="yes"/>
			<point x="157" y="274"/>
			<point x="209" y="346"/>
			<point x="300" y="346" type="curve" smooth="yes"/>
			<point x="388" y="346"/>
			<point x="436" y="291"/>
			<point x="436" y="216" type="curve" smooth="yes"/>
			<point x="436" y="127"/>
			<point x="385" y="57"/>
		</contour>
	</outline>
</glyph>
<glyph name="seven" format="2">
	<unicode hex="0037"/>
	<advance width="516"/>
	<outline>
		<contour>
			<point x="121" y="660" type="line"/>
			<point x="104" y="593" type="line"/>
			<point x="500" y="593" type="line"/>
			<point x="501" y="611" type="line"/>
			<point x="312" y="446"/>
			<point x="191" y="225"/>
			<point x="148" y="0" type="curve"/>
			<point x="227" y="0" type="line"/>
			<point x="277" y="254"/>
			<point x="393" y="444"/>
			<point x="553" y="593" type="curve"/>
			<point x="570" y="660" type="line"/>
		</contour>
	</outline>
</glyph>
<glyph name="eight" format="2">
	<advance width="588"/>
	<unicode hex="0038"/>
	<outline>
		<contour>
			<point x="282" y="-9" type="curve" smooth="yes"/>
			<point x="416" y="-9"/>
			<point x="511" y="72"/>
			<point x="511" y="194" type="curve" smooth="yes"/>
			<point x="511" y="263"/>
			<point x="468" y="316"/>
			<point x="401" y="344" type="curve"/>
			<point x="402" y="328" type="line"/>
			<point x="496" y="346"/>
			<point x="557" y="419"/>
			<point x="557" y="508" type="curve" smooth="yes"/>
			<point x="557" y="608"/>
			<point x="471" y="671"/>
			<point x="357" y="671" type="curve" smooth="yes"/>
			<point x="234" y="671"/>
			<point x="147" y="591"/>
			<point x="147" y="479" type="curve" smooth="yes"/>
			<point x="147" y="419"/>
			<point x="182" y="368"/>
			<point x="234" y="348" type="curve"/>
			<point x="235" y="362" type="line"/>
			<point x="124" y="347"/>
			<point x="47" y="283"/>
			<point x="47" y="175" type="curve" smooth="yes"/>
			<point x="47" y="60"/>
			<point x="153" y="-9"/>
		</contour>
		<contour>
			<point x="289" y="58" type="curve" smooth="yes"/>
			<point x="200" y="58"/>
			<point x="122" y="100"/>
			<point x="122" y="181" type="curve" smooth="yes"/>
			<point x="122" y="261"/>
			<point x="189" y="313"/>
			<point x="275" y="313" type="curve" smooth="yes"/>
			<point x="359" y="313"/>
			<point x="436" y="265"/>
			<point x="436" y="186" type="curve" smooth="yes"/>
			<point x="436" y="107"/>
			<point x="380" y="58"/>
		</contour>
		<contour>
			<point x="349" y="375" type="curve" smooth="yes"/>
			<point x="273" y="375"/>
			<point x="221" y="423"/>
			<point x="221" y="481" type="curve" smooth="yes"/>
			<point x="221" y="551"/>
			<point x="275" y="606"/>
			<point x="355" y="606" type="curve" smooth="yes"/>
			<point x="434" y="606"/>
			<point x="482" y="561"/>
			<point x="482" y="499" type="curve" smooth="yes"/>
			<point x="482" y="427"/>
			<point x="426" y="375"/>
		</contour>
	</outline>
</glyph>
<glyph name="nine" format="2">
	<unicode hex="0039"/>
	<advance width="586"/>
	<outline>
		<contour>
			<point x="247" y="-10" type="curve" smooth="yes"/>
			<point x="450" y="-10"/>
			<point x="548" y="207"/>
			<point x="548" y="421" type="curve" smooth="yes"/>
			<point x="548" y="571"/>
			<point x="482" y="670"/>
			<point x="336" y="670" type="curve" smooth="yes"/>
			<point x="202" y="670"/>
			<point x="113" y="567"/>
			<point x="113" y="441" type="curve" smooth="yes"/>
			<point x="113" y="330"/>
			<point x="187" y="250"/>
			<point x="308" y="250" type="curve" smooth="yes"/>
			<point x="380" y="250"/>
			<point x="455" y="292"/>
			<point x="477" y="368" type="curve"/>
			<point x="463" y="204"/>
			<point x="394" y="57"/>
			<point x="253" y="57" type="curve" smooth="yes"/>
			<point x="168" y="57"/>
			<point x="128" y="121"/>
			<point x="118" y="189" type="curve"/>
			<point x="43" y="165" type="line"/>
			<point x="63" y="63"/>
			<point x="130" y="-10"/>
		</contour>
		<contour>
			<point x="323" y="314" type="curve" smooth="yes"/>
			<point x="234" y="314"/>
			<point x="187" y="377"/>
			<point x="187" y="453" type="curve" smooth="yes"/>
			<point x="187" y="540"/>
			<point x="243" y="603"/>
			<point x="333" y="603" type="curve" smooth="yes"/>
			<point x="413" y="603"/>
			<point x="466" y="550"/>
			<point x="466" y="467" type="curve" smooth="yes"/>
			<point x="466" y="386"/>
			<point x="413" y="314"/>
		</contour>
	</outline>
</glyph>
<glyph name="colon" format="2">
	<advance width="283"/>
	<unicode hex="003A"/>
	<anchor x="39.75" y="35.5" name="_center"/>
	<outline>
		<contour>
			<point x="182" y="396" type="curve" smooth="yes"/>
			<point x="208" y="396"/>
			<point x="229" y="416"/>
			<point x="229" y="447" type="curve" smooth="yes"/>
			<point x="229" y="470"/>
			<point x="212" y="486"/>
			<point x="189" y="486" type="curve" smooth="yes"/>
			<point x="163" y="486"/>
			<point x="142" y="465"/>
			<point x="142" y="435" type="curve" smooth="yes"/>
			<point x="142" y="412"/>
			<point x="159" y="396"/>
		</contour>
		<contour>
			<point x="90" y="-3" type="curve" smooth="yes"/>
			<point x="116" y="-3"/>
			<point x="137" y="17"/>
			<point x="137" y="48" type="curve" smooth="yes"/>
			<point x="137" y="71"/>
			<point x="120" y="87"/>
			<point x="97" y="87" type="curve" smooth="yes"/>
			<point x="71" y="87"/>
			<point x="50" y="66"/>
			<point x="50" y="36" type="curve" smooth="yes"/>
			<point x="50" y="13"/>
			<point x="67" y="-3"/>
		</contour>
	</outline>
</glyph>
<glyph name="semicolon" format="2">
	<advance width="283"/>
	<unicode hex="003B"/>
	<outline>
		<contour>
			<point x="100" y="110" type="curve" smooth="yes"/>
			<point x="64" y="110"/>
			<point x="36" y="82"/>
			<point x="36" y="44" type="curve" smooth="yes"/>
			<point x="36" y="18"/>
			<point x="52" y="-8"/>
			<point x="81" y="-8" type="curve" smooth="yes"/>
			<point x="94" y="-8"/>
			<point x="101" y="-6"/>
			<point x="107" y="0" type="curve"/>
			<point x="108" y="-1" type="line"/>
			<point x="96" y="-47"/>
			<point x="58" y="-89"/>
			<point x="-17" y="-100" type="curve"/>
			<point x="6" y="-144" type="line"/>
			<point x="103" y="-123"/>
			<point x="162" y="-38"/>
			<point x="162" y="35" type="curve" smooth="yes"/>
			<point x="162" y="79"/>
			<point x="138" y="110"/>
		</contour>
		<contour>
			<point x="192" y="508" type="curve" smooth="yes"/>
			<point x="158" y="508"/>
			<point x="130" y="482"/>
			<point x="130" y="441" type="curve" smooth="yes"/>
			<point x="130" y="410"/>
			<point x="153" y="389"/>
			<point x="183" y="389" type="curve" smooth="yes"/>
			<point x="218" y="389"/>
			<point x="246" y="416"/>
			<point x="246" y="457" type="curve" smooth="yes"/>
			<point x="246" y="487"/>
			<point x="223" y="508"/>
		</contour>
	</outline>
</glyph>
<glyph name="less" format="2">
  <advance width="590"/>
  <unicode hex="003C"/>
  <outline>
    <contour>
      <point x="602" y="567" type="line"/>
      <point x="93" y="341" type="line"/>
      <point x="73" y="258" type="line"/>
      <point x="479" y="32" type="line"/>
      <point x="495" y="101" type="line"/>
      <point x="136" y="298" type="line"/>
      <point x="584" y="491" type="line"/>
    </contour>
  </outline>
</glyph>
<glyph name="equal" format="2">
	<advance width="604"/>
	<unicode hex="003D"/>
	<outline>
		<contour>
			<point x="581" y="439" type="line"/>
			<point x="110" y="439" type="line"/>
			<point x="95" y="371" type="line"/>
			<point x="565" y="371" type="line"/>
		</contour>
		<contour>
			<point x="535" y="238" type="line"/>
			<point x="64" y="238" type="line"/>
			<point x="49" y="171" type="line"/>
			<point x="519" y="171" type="line"/>
		</contour>
	</outline>
</glyph>
<glyph name="question" format="2">
	<advance width="512"/>
	<unicode hex="003F"/>
	<anchor x="142" y="42" name="_center"/>
	<outline>
		<contour>
			<point x="195" y="201" type="line"/>
			<point x="270" y="201" type="line"/>
			<point x="291" y="295" type="line"/>
			<point x="422" y="302"/>
			<point x="517" y="374"/>
			<point x="517" y="500" type="curve" smooth="yes"/>
			<point x="517" y="605"/>
			<point x="432" y="668"/>
			<point x="320" y="668" type="curve" smooth="yes"/>
			<point x="210" y="668"/>
			<point x="128" y="609"/>
			<point x="93" y="526" type="curve"/>
			<point x="151" y="484" type="line"/>
			<point x="176" y="553"/>
			<point x="232" y="601"/>
			<point x="317" y="601" type="curve" smooth="yes"/>
			<point x="389" y="601"/>
			<point x="443" y="566"/>
			<point x="443" y="496" type="curve" smooth="yes"/>
			<point x="443" y="392"/>
			<point x="366" y="348"/>
			<point x="230" y="348" type="curve"/>
		</contour>
		<contour>
			<point x="196" y="-9" type="curve" smooth="yes"/>
			<point x="230" y="-9"/>
			<point x="258" y="17"/>
			<point x="258" y="58" type="curve" smooth="yes"/>
			<point x="258" y="89"/>
			<point x="235" y="110"/>
			<point x="205" y="110" type="curve" smooth="yes"/>
			<point x="170" y="110"/>
			<point x="142" y="83"/>
			<point x="142" y="42" type="curve" smooth="yes"/>
			<point x="142" y="12"/>
			<point x="165" y="-9"/>
		</contour>
	</outline>
</glyph>
<glyph name="at" format="2">
  <advance width="929"/>
  <unicode hex="0040"/>
  <outline>
    <contour>
      <point x="457" y="-193" type="curve" smooth="yes"/>
      <point x="567" y="-193"/>
      <point x="623" y="-166"/>
      <point x="678" y="-136" type="curve"/>
      <point x="656" y="-89" type="line"/>
      <point x="614" y="-115"/>
      <point x="553" y="-140"/>
      <point x="458" y="-140" type="curve" smooth="yes"/>
      <point x="278" y="-140"/>
      <point x="127" y="-17"/>
      <point x="127" y="196" type="curve" smooth="yes"/>
      <point x="127" y="444"/>
      <point x="288" y="605"/>
      <point x="498" y="605" type="curve" smooth="yes"/>
      <point x="699" y="605"/>
      <point x="819" y="485"/>
      <point x="819" y="297" type="curve" smooth="yes"/>
      <point x="819" y="148"/>
      <point x="753" y="47"/>
      <point x="681" y="47" type="curve" smooth="yes"/>
      <point x="657" y="47"/>
      <point x="636" y="55"/>
      <point x="636" y="93" type="curve" smooth="yes"/>
      <point x="636" y="102"/>
      <point x="637" y="115"/>
      <point x="641" y="132" type="curve" smooth="yes"/>
      <point x="717" y="458" type="line"/>
      <point x="653" y="458" type="line"/>
      <point x="627" y="348" type="line"/>
      <point x="612" y="421"/>
      <point x="557" y="467"/>
      <point x="478" y="467" type="curve" smooth="yes"/>
      <point x="350" y="467"/>
      <point x="254" y="349"/>
      <point x="254" y="200" type="curve" smooth="yes"/>
      <point x="254" y="84"/>
      <point x="323" y="3"/>
      <point x="425" y="3" type="curve" smooth="yes"/>
      <point x="487" y="3"/>
      <point x="551" y="39"/>
      <point x="581" y="96" type="curve"/>
      <point x="573" y="39"/>
      <point x="607" y="-4"/>
      <point x="672" y="-4" type="curve" smooth="yes"/>
      <point x="777" y="-4"/>
      <point x="872" y="123"/>
      <point x="872" y="297" type="curve" smooth="yes"/>
      <point x="872" y="506"/>
      <point x="741" y="659"/>
      <point x="504" y="659" type="curve" smooth="yes"/>
      <point x="250" y="659"/>
      <point x="67" y="468"/>
      <point x="67" y="195" type="curve" smooth="yes"/>
      <point x="67" y="-43"/>
      <point x="229" y="-193"/>
    </contour>
    <contour>
      <point x="445" y="58" type="curve" smooth="yes"/>
      <point x="365" y="58"/>
      <point x="318" y="111"/>
      <point x="318" y="201" type="curve" smooth="yes"/>
      <point x="318" y="321"/>
      <point x="388" y="411"/>
      <point x="482" y="411" type="curve" smooth="yes"/>
      <point x="553" y="411"/>
      <point x="601" y="359"/>
      <point x="601" y="274" type="curve" smooth="yes"/>
      <point x="601" y="154"/>
      <point x="532" y="58"/>
    </contour>
  </outline>
</glyph>
<glyph name="A" format="2">
	<advance width="619"/>
	<unicode hex="0041"/>
	<anchor x="374" y="539" name="top_ring"/>
	<anchor x="539" y="0" name="ogonek"/>
	<anchor x="397" y="660" name="top"/>
	<anchor x="279" y="0" name="bottom"/>
	<outline>
		<contour>
			<point x="-36" y="0" type="line"/>
			<point x="45" y="0" type="line"/>
			<point x="159" y="195" type="line"/>
			<point x="441" y="195" type="line"/>
			<point x="468" y="0" type="line"/>
			<point x="539" y="0" type="line"/>
			<point x="449" y="660" type="line"/>
			<point x="360" y="660" type="line"/>
		</contour>
		<contour>
			<point x="201" y="262" type="line"/>
			<point x="389" y="583" type="line"/>
			<point x="432" y="262" type="line"/>
		</contour>
	</outline>
</glyph>
<glyph name="B" format="2">
	<unicode hex="0042"/>
	<advance width="630"/>
	<outline>
		<contour>
			<point x="46" y="0" type="line"/>
			<point x="317" y="0" type="line" smooth="yes"/>
			<point x="468" y="0"/>
			<point x="560" y="76"/>
			<point x="560" y="202" type="curve" smooth="yes"/>
			<point x="560" y="265"/>
			<point x="519" y="318"/>
			<point x="456" y="327" type="curve"/>
			<point x="456" y="328" type="line"/>
			<point x="540" y="348"/>
			<point x="594" y="419"/>
			<point x="594" y="512" type="curve" smooth="yes"/>
			<point x="594" y="602"/>
			<point x="534" y="660"/>
			<point x="426" y="660" type="curve" smooth="yes"/>
			<point x="199" y="660" type="line"/>
		</contour>
		<contour>
			<point x="135" y="67" type="line"/>
			<point x="187" y="296" type="line"/>
			<point x="366" y="296" type="line" smooth="yes"/>
			<point x="447" y="296"/>
			<point x="485" y="261"/>
			<point x="485" y="202" type="curve" smooth="yes"/>
			<point x="485" y="117"/>
			<point x="425" y="67"/>
			<point x="317" y="67" type="curve" smooth="yes"/>
		</contour>
		<contour>
			<point x="202" y="363" type="line"/>
			<point x="255" y="593" type="line"/>
			<point x="407" y="593" type="line" smooth="yes"/>
			<point x="474" y="593"/>
			<point x="520" y="567"/>
			<point x="520" y="502" type="curve" smooth="yes"/>
			<point x="520" y="422"/>
			<point x="464" y="363"/>
			<point x="371" y="363" type="curve" smooth="yes"/>
		</contour>
	</outline>
	<anchor name="bottom" x="235" y="0"/>
	<anchor name="ogonek" x="269" y="0"/>
	<anchor name="top" x="388" y="660"/>
</glyph>
<glyph name="C" format="2">
  <advance width="658"/>
  <unicode hex="0043"/>
  <anchor x="332" y="0" name="bottom"/>
  <anchor x="432" y="0" name="ogonek"/>
  <anchor x="428" y="660" name="top"/>
  <outline>
    <contour>
      <point x="353" y="-10" type="curve" smooth="yes"/>
      <point x="470" y="-10"/>
      <point x="543" y="44"/>
      <point x="597" y="129" type="curve"/>
      <point x="528" y="163" type="line"/>
      <point x="492" y="98"/>
      <point x="444" y="57"/>
      <point x="357" y="57" type="curve" smooth="yes"/>
      <point x="247" y="57"/>
      <point x="159" y="141"/>
      <point x="159" y="282" type="curve" smooth="yes"/>
      <point x="159" y="440"/>
      <point x="247" y="603"/>
      <point x="407" y="603" type="curve" smooth="yes"/>
      <point x="496" y="603"/>
      <point x="554" y="561"/>
      <point x="577" y="461" type="curve"/>
      <point x="652" y="486" type="line"/>
      <point x="620" y="610"/>
      <point x="536" y="670"/>
      <point x="414" y="670" type="curve" smooth="yes"/>
      <point x="199" y="670"/>
      <point x="83" y="470"/>
      <point x="83" y="271" type="curve" smooth="yes"/>
      <point x="83" y="86"/>
      <point x="204" y="-10"/>
    </contour>
  </outline>
</glyph>
<glyph name="D" format="2">
  <advance width="689"/>
  <unicode hex="0044"/>
  <anchor x="284" y="0" name="bottom"/>
  <anchor x="366" y="330" name="center"/>
  <anchor x="265" y="0" name="ogonek"/>
  <anchor x="407" y="660" name="top"/>
  <outline>
    <contour>
      <point x="47" y="0" type="line"/>
      <point x="284" y="0" type="line" smooth="yes"/>
      <point x="499" y="0"/>
      <point x="646" y="169"/>
      <point x="646" y="392" type="curve" smooth="yes"/>
      <point x="646" y="547"/>
      <point x="549" y="660"/>
      <point x="386" y="660" type="curve" smooth="yes"/>
      <point x="200" y="660" type="line"/>
    </contour>
    <contour>
      <point x="134" y="67" type="line"/>
      <point x="256" y="593" type="line"/>
      <point x="377" y="593" type="line" smooth="yes"/>
      <point x="506" y="593"/>
      <point x="569" y="501"/>
      <point x="569" y="381" type="curve" smooth="yes"/>
      <point x="569" y="215"/>
      <point x="462" y="67"/>
      <point x="294" y="67" type="curve" smooth="yes"/>
    </contour>
  </outline>
</glyph>
<glyph name="E" format="2">
	<advance width="606"/>
	<unicode hex="0045"/>
	<anchor x="500" y="0" name="ogonek"/>
	<anchor x="301" y="0" name="bottom"/>
	<anchor x="411" y="660" name="top"/>
	<outline>
		<contour>
			<point x="46" y="0" type="line"/>
			<point x="500" y="0" type="line"/>
			<point x="516" y="67" type="line"/>
			<point x="134" y="67" type="line"/>
			<point x="188" y="301" type="line"/>
			<point x="475" y="301" type="line"/>
			<point x="491" y="369" type="line"/>
			<point x="203" y="369" type="line"/>
			<point x="254" y="593" type="line"/>
			<point x="620" y="593" type="line"/>
			<point x="637" y="660" type="line"/>
			<point x="199" y="660" type="line"/>
		</contour>
	</outline>
</glyph>
<glyph name="F" format="2">
	<advance width="566"/>
	<unicode hex="0046"/>
	<anchor x="118" y="0" name="ogonek"/>
	<anchor x="82" y="0" name="bottom"/>
	<anchor x="415" y="660" name="top"/>
	<outline>
		<contour>
			<point x="607" y="593" type="line"/>
			<point x="623" y="660" type="line"/>
			<point x="199" y="660" type="line"/>
			<point x="46" y="0" type="line"/>
			<point x="118" y="0" type="line"/>
			<point x="188" y="301" type="line"/>
			<point x="479" y="301" type="line"/>
			<point x="496" y="369" type="line"/>
			<point x="203" y="369" type="line"/>
			<point x="255" y="593" type="line"/>
		</contour>
	</outline>
</glyph>
<glyph name="G" format="2">
	<unicode hex="0047"/>
	<advance width="690"/>
	<outline>
		<contour>
			<point x="334" y="-8" type="curve" smooth="yes"/>
			<point x="431" y="-8"/>
			<point x="502" y="39"/>
			<point x="539" y="131" type="curve"/>
			<point x="531" y="139" type="line"/>
			<point x="502" y="0" type="line"/>
			<point x="559" y="0" type="line"/>
			<point x="638" y="325" type="line"/>
			<point x="371" y="325" type="line"/>
			<point x="355" y="258" type="line"/>
			<point x="559" y="258" type="line"/>
			<point x="551" y="224" type="line" smooth="yes"/>
			<point x="527" y="122"/>
			<point x="457" y="60"/>
			<point x="348" y="60" type="curve" smooth="yes"/>
			<point x="234" y="60"/>
			<point x="158" y="141"/>
			<point x="158" y="281" type="curve" smooth="yes"/>
			<point x="158" y="441"/>
			<point x="249" y="604"/>
			<point x="416" y="604" type="curve" smooth="yes"/>
			<point x="504" y="604"/>
			<point x="571" y="564"/>
			<point x="595" y="468" type="curve"/>
			<point x="668" y="493" type="line"/>
			<point x="632" y="622"/>
			<point x="535" y="670"/>
			<point x="420" y="670" type="curve" smooth="yes"/>
			<point x="203" y="670"/>
			<point x="83" y="478"/>
			<point x="83" y="272" type="curve" smooth="yes"/>
			<point x="83" y="95"/>
			<point x="197" y="-8"/>
		</contour>
	</outline>
	<anchor name="bottom" x="358" y="0"/>
	<anchor name="ogonek" x="345" y="0"/>
	<anchor name="top" x="437" y="660"/>
</glyph>
<glyph name="H" format="2">
	<advance width="702"/>
	<unicode hex="0048"/>
	<anchor x="540" y="0" name="ogonek"/>
	<anchor x="299" y="0" name="bottom"/>
	<anchor x="447" y="660" name="top"/>
	<outline>
		<contour>
			<point x="693" y="660" type="line"/>
			<point x="621" y="660" type="line"/>
			<point x="468" y="0" type="line"/>
			<point x="540" y="0" type="line"/>
		</contour>
		<contour>
			<point x="271" y="660" type="line"/>
			<point x="199" y="660" type="line"/>
			<point x="46" y="0" type="line"/>
			<point x="118" y="0" type="line"/>
		</contour>
		<contour>
			<point x="587" y="369" type="line"/>
			<point x="169" y="369" type="line"/>
			<point x="154" y="301" type="line"/>
			<point x="571" y="301" type="line"/>
		</contour>
	</outline>
</glyph>
<glyph name="I" format="2">
	<advance width="280"/>
	<unicode hex="0049"/>
	<anchor x="118" y="0" name="ogonek"/>
	<anchor x="82" y="0" name="bottom"/>
	<anchor x="235" y="660" name="top"/>
	<outline>
		<contour>
			<point x="271" y="660" type="line"/>
			<point x="199" y="660" type="line"/>
			<point x="46" y="0" type="line"/>
			<point x="118" y="0" type="line"/>
		</contour>
	</outline>
</glyph>
<glyph name="J" format="2">
	<advance width="528"/>
	<unicode hex="004A"/>
	<anchor x="232" y="-1" name="ogonek"/>
	<anchor x="181" y="0" name="bottom"/>
	<anchor x="494" y="660" name="top"/>
	<outline>
		<contour>
			<point x="202" y="-8" type="curve" smooth="yes"/>
			<point x="345" y="-8"/>
			<point x="398" y="90"/>
			<point x="425" y="205" type="curve" smooth="yes"/>
			<point x="530" y="660" type="line"/>
			<point x="457" y="660" type="line"/>
			<point x="357" y="222" type="line" smooth="yes"/>
			<point x="330" y="104"/>
			<point x="293" y="57"/>
			<point x="209" y="57" type="curve" smooth="yes"/>
			<point x="111" y="57"/>
			<point x="77" y="133"/>
			<point x="112" y="242" type="curve"/>
			<point x="44" y="237" type="line"/>
			<point x="-4" y="98"/>
			<point x="68" y="-8"/>
		</contour>
	</outline>
</glyph>
<glyph name="K" format="2">
	<unicode hex="004B"/>
	<advance width="614"/>
	<outline>
		<contour>
			<point x="46" y="0" type="line"/>
			<point x="118" y="0" type="line"/>
			<point x="166" y="206" type="line"/>
			<point x="315" y="338" type="line"/>
			<point x="450" y="0" type="line"/>
			<point x="530" y="0" type="line"/>
			<point x="371" y="387" type="line"/>
			<point x="679" y="660" type="line"/>
			<point x="578" y="660" type="line"/>
			<point x="192" y="316" type="line"/>
			<point x="271" y="660" type="line"/>
			<point x="199" y="660" type="line"/>
		</contour>
	</outline>
	<anchor name="bottom" x="295" y="0"/>
	<anchor name="ogonek" x="531" y="0"/>
	<anchor name="top" x="431" y="660"/>
</glyph>
<glyph name="L" format="2">
	<unicode hex="004C"/>
	<advance width="564"/>
	<outline>
		<contour>
			<point x="134" y="67" type="line"/>
			<point x="271" y="660" type="line"/>
			<point x="199" y="660" type="line"/>
			<point x="46" y="0" type="line"/>
			<point x="477" y="0" type="line"/>
			<point x="494" y="67" type="line"/>
		</contour>
	</outline>
	<anchor name="bottom" x="281" y="0"/>
	<anchor name="center" x="397" y="353"/>
	<anchor name="ogonek" x="477" y="0"/>
	<anchor name="top" x="235" y="660"/>
	<anchor name="topright" x="409" y="660"/>
</glyph>
<glyph name="M" format="2">
  <advance width="816"/>
  <unicode hex="004D"/>
  <anchor x="360" y="0" name="bottom"/>
  <anchor x="654" y="0" name="ogonek"/>
  <anchor x="504" y="660" name="top"/>
  <outline>
    <contour>
      <point x="46" y="0" type="line"/>
      <point x="115" y="0" type="line"/>
      <point x="214" y="436" type="line"/>
      <point x="245" y="595" type="line"/>
      <point x="246" y="595" type="line"/>
      <point x="317" y="0" type="line"/>
      <point x="379" y="0" type="line"/>
      <point x="727" y="595" type="line"/>
      <point x="728" y="595" type="line"/>
      <point x="687" y="436" type="line"/>
      <point x="587" y="0" type="line"/>
      <point x="654" y="0" type="line"/>
      <point x="807" y="660" type="line"/>
      <point x="691" y="660" type="line"/>
      <point x="441" y="223" type="line"/>
      <point x="367" y="87" type="line"/>
      <point x="366" y="87" type="line"/>
      <point x="354" y="225" type="line"/>
      <point x="302" y="660" type="line"/>
      <point x="199" y="660" type="line"/>
    </contour>
  </outline>
</glyph>
<glyph name="N" format="2">
	<advance width="702"/>
	<unicode hex="004E"/>
	<anchor x="540" y="0" name="ogonek"/>
	<anchor x="312" y="0" name="bottom"/>
	<anchor x="439" y="660" name="top"/>
	<outline>
		<contour>
			<point x="46" y="0" type="line"/>
			<point x="115" y="0" type="line"/>
			<point x="225" y="481" type="line"/>
			<point x="245" y="581" type="line"/>
			<point x="246" y="581" type="line"/>
			<point x="283" y="462" type="line"/>
			<point x="454" y="0" type="line"/>
			<point x="540" y="0" type="line"/>
			<point x="693" y="660" type="line"/>
			<point x="625" y="660" type="line"/>
			<point x="514" y="179" type="line"/>
			<point x="493" y="79" type="line"/>
			<point x="492" y="79" type="line"/>
			<point x="454" y="200" type="line"/>
			<point x="286" y="660" type="line"/>
			<point x="199" y="660" type="line"/>
		</contour>
	</outline>
</glyph>
<glyph name="O" format="2">
	<unicode hex="004F"/>
	<advance width="723"/>
	<outline>
		<contour>
			<point x="348" y="-10" type="curve" smooth="yes"/>
			<point x="560" y="-10"/>
			<point x="677" y="178"/>
			<point x="677" y="383" type="curve" smooth="yes"/>
			<point x="677" y="566"/>
			<point x="558" y="670"/>
			<point x="415" y="670" type="curve" smooth="yes"/>
			<point x="201" y="670"/>
			<point x="84" y="483"/>
			<point x="84" y="277" type="curve" smooth="yes"/>
			<point x="84" y="93"/>
			<point x="204" y="-10"/>
		</contour>
		<contour>
			<point x="357" y="58" type="curve" smooth="yes"/>
			<point x="239" y="58"/>
			<point x="159" y="141"/>
			<point x="159" y="282" type="curve" smooth="yes"/>
			<point x="159" y="444"/>
			<point x="245" y="602"/>
			<point x="405" y="602" type="curve" smooth="yes"/>
			<point x="520" y="602"/>
			<point x="601" y="520"/>
			<point x="601" y="378" type="curve" smooth="yes"/>
			<point x="601" y="218"/>
			<point x="516" y="58"/>
		</contour>
	</outline>
	<anchor name="bottom" x="333" y="0"/>
	<anchor name="center" x="379" y="330"/>
	<anchor name="ogonek" x="433" y="1"/>
	<anchor name="top" x="428" y="660"/>
	<anchor name="topleft" x="115" y="660"/>
	<anchor name="topright" x="622" y="660"/>
</glyph>
<glyph name="P" format="2">
	<unicode hex="0050"/>
	<advance width="592"/>
	<outline>
		<contour>
			<point x="46" y="0" type="line"/>
			<point x="118" y="0" type="line"/>
			<point x="255" y="593" type="line"/>
			<point x="377" y="593" type="line" smooth="yes"/>
			<point x="466" y="593"/>
			<point x="512" y="547"/>
			<point x="512" y="477" type="curve" smooth="yes"/>
			<point x="512" y="395"/>
			<point x="459" y="325"/>
			<point x="354" y="325" type="curve" smooth="yes"/>
			<point x="163" y="325" type="line"/>
			<point x="148" y="257" type="line"/>
			<point x="336" y="257" type="line" smooth="yes"/>
			<point x="486" y="257"/>
			<point x="587" y="351"/>
			<point x="587" y="483" type="curve" smooth="yes"/>
			<point x="587" y="589"/>
			<point x="510" y="660"/>
			<point x="383" y="660" type="curve" smooth="yes"/>
			<point x="199" y="660" type="line"/>
		</contour>
	</outline>
	<anchor name="bottom" x="82" y="0"/>
	<anchor name="ogonek" x="118" y="0"/>
	<anchor name="top" x="395" y="660"/>
</glyph>
<glyph name="Q" format="2">
	<advance width="723"/>
	<unicode hex="0051"/>
	<anchor x="247" y="-210" name="bottom"/>
	<anchor x="440" y="-190" name="ogonek"/>
	<anchor x="428" y="660" name="top"/>
	<anchor x="622" y="660" name="topright"/>
	<anchor x="115" y="660" name="topleft"/>
	<anchor x="379" y="330" name="center"/>
	<outline>
		<contour>
			<point x="441" y="-194" type="curve" smooth="yes"/>
			<point x="474" y="-194"/>
			<point x="520" y="-187"/>
			<point x="554" y="-166" type="curve"/>
			<point x="550" y="-95" type="line"/>
			<point x="519" y="-114"/>
			<point x="487" y="-124"/>
			<point x="448" y="-124" type="curve" smooth="yes"/>
			<point x="381" y="-124"/>
			<point x="338" y="-92"/>
			<point x="338" y="-29" type="curve" smooth="yes"/>
			<point x="338" y="-9"/>
			<point x="342" y="12"/>
			<point x="349" y="32" type="curve"/>
			<point x="281" y="18" type="line"/>
			<point x="275" y="-4"/>
			<point x="272" y="-25"/>
			<point x="272" y="-43" type="curve" smooth="yes"/>
			<point x="272" y="-135"/>
			<point x="346" y="-194"/>
		</contour>
		<component base="O"/>
	</outline>
</glyph>
<glyph name="R" format="2">
	<unicode hex="0052"/>
	<advance width="620"/>
	<outline>
		<contour>
			<point x="46" y="0" type="line"/>
			<point x="118" y="0" type="line"/>
			<point x="255" y="593" type="line"/>
			<point x="393" y="593" type="line" smooth="yes"/>
			<point x="471" y="593"/>
			<point x="519" y="554"/>
			<point x="519" y="487" type="curve" smooth="yes"/>
			<point x="519" y="404"/>
			<point x="467" y="337"/>
			<point x="362" y="337" type="curve" smooth="yes"/>
			<point x="181" y="337" type="line"/>
			<point x="166" y="270" type="line"/>
			<point x="368" y="270" type="line"/>
			<point x="412" y="276" type="line"/>
			<point x="511" y="291"/>
			<point x="594" y="372"/>
			<point x="594" y="485" type="curve" smooth="yes"/>
			<point x="594" y="594"/>
			<point x="523" y="660"/>
			<point x="407" y="660" type="curve" smooth="yes"/>
			<point x="199" y="660" type="line"/>
		</contour>
		<contour>
			<point x="458" y="0" type="line"/>
			<point x="536" y="0" type="line"/>
			<point x="423" y="293" type="line"/>
			<point x="350" y="284" type="line"/>
		</contour>
	</outline>
	<anchor name="bottom" x="300" y="0"/>
	<anchor name="ogonek" x="536" y="0"/>
	<anchor name="top" x="394" y="660"/>
</glyph>
<glyph name="S" format="2">
	<advance width="620"/>
	<unicode hex="0053"/>
	<anchor x="311" y="0" name="ogonek"/>
	<anchor x="275" y="0" name="bottom"/>
	<anchor x="387" y="660" name="top"/>
	<outline>
		<contour>
			<point x="324" y="-8" type="curve" smooth="yes"/>
			<point x="449" y="-8"/>
			<point x="556" y="70"/>
			<point x="556" y="194" type="curve" smooth="yes"/>
			<point x="556" y="268"/>
			<point x="510" y="320"/>
			<point x="415" y="347" type="curve" smooth="yes"/>
			<point x="304" y="379" type="line" smooth="yes"/>
			<point x="242" y="397"/>
			<point x="207" y="440"/>
			<point x="207" y="487" type="curve" smooth="yes"/>
			<point x="207" y="550"/>
			<point x="260" y="604"/>
			<point x="360" y="604" type="curve" smooth="yes"/>
			<point x="436" y="604"/>
			<point x="512" y="580"/>
			<point x="537" y="475" type="curve"/>
			<point x="609" y="509" type="line"/>
			<point x="574" y="618"/>
			<point x="488" y="671"/>
			<point x="364" y="671" type="curve" smooth="yes"/>
			<point x="224" y="671"/>
			<point x="132" y="585"/>
			<point x="132" y="475" type="curve" smooth="yes"/>
			<point x="132" y="397"/>
			<point x="187" y="337"/>
			<point x="286" y="308" type="curve" smooth="yes"/>
			<point x="386" y="279" type="line" smooth="yes"/>
			<point x="444" y="262"/>
			<point x="481" y="236"/>
			<point x="481" y="182" type="curve" smooth="yes"/>
			<point x="481" y="115"/>
			<point x="426" y="59"/>
			<point x="331" y="59" type="curve" smooth="yes"/>
			<point x="228" y="59"/>
			<point x="141" y="107"/>
			<point x="111" y="222" type="curve"/>
			<point x="39" y="187" type="line"/>
			<point x="78" y="61"/>
			<point x="179" y="-8"/>
		</contour>
	</outline>
</glyph>
<glyph name="T" format="2">
	<unicode hex="0054"/>
	<advance width="569"/>
	<outline>
		<contour>
			<point x="635" y="660" type="line"/>
			<point x="124" y="660" type="line"/>
			<point x="107" y="593" type="line"/>
			<point x="329" y="593" type="line"/>
			<point x="192" y="0" type="line"/>
			<point x="264" y="0" type="line"/>
			<point x="401" y="593" type="line"/>
			<point x="619" y="593" type="line"/>
		</contour>
	</outline>
	<anchor name="bottom" x="228" y="0"/>
	<anchor name="center" x="304" y="324"/>
	<anchor name="ogonek" x="264" y="0"/>
	<anchor name="top" x="380" y="660"/>
</glyph>
<glyph name="U" format="2">
	<unicode hex="0055"/>
	<advance width="686"/>
	<outline>
		<contour>
			<point x="315" y="-10" type="curve" smooth="yes"/>
			<point x="456" y="-10"/>
			<point x="546" y="84"/>
			<point x="579" y="228" type="curve" smooth="yes"/>
			<point x="679" y="660" type="line"/>
			<point x="607" y="660" type="line"/>
			<point x="512" y="249" type="line" smooth="yes"/>
			<point x="485" y="131"/>
			<point x="425" y="57"/>
			<point x="320" y="57" type="curve" smooth="yes"/>
			<point x="206" y="57"/>
			<point x="136" y="129"/>
			<point x="168" y="268" type="curve" smooth="yes"/>
			<point x="258" y="660" type="line"/>
			<point x="186" y="660" type="line"/>
			<point x="98" y="285" type="line" smooth="yes"/>
			<point x="55" y="100"/>
			<point x="145" y="-10"/>
		</contour>
	</outline>
	<anchor name="bottom" x="297" y="0"/>
	<anchor name="ogonek" x="384" y="1"/>
	<anchor name="top" x="422" y="638"/>
	<anchor name="top_ring" x="406" y="607"/>
	<anchor name="topright" x="688" y="660"/>
</glyph>
<glyph name="V" format="2">
	<unicode hex="0056"/>
	<advance width="604"/>
	<outline>
		<contour>
			<point x="677" y="660" type="line"/>
			<point x="598" y="660" type="line"/>
			<point x="319" y="188" type="line"/>
			<point x="256" y="66" type="line"/>
			<point x="246" y="190" type="line"/>
			<point x="190" y="660" type="line"/>
			<point x="117" y="660" type="line"/>
			<point x="202" y="0" type="line"/>
			<point x="284" y="0" type="line"/>
		</contour>
	</outline>
	<anchor name="bottom" x="244" y="0"/>
	<anchor name="ogonek" x="286" y="0"/>
	<anchor name="top" x="397" y="660"/>
</glyph>
<glyph name="W" format="2">
	<advance width="917"/>
	<unicode hex="0057"/>
	<anchor x="638" y="0" name="ogonek"/>
	<anchor x="409" y="0" name="bottom"/>
	<anchor x="548" y="660" name="top"/>
	<outline>
		<contour>
			<point x="164" y="0" type="line"/>
			<point x="251" y="0" type="line"/>
			<point x="462" y="437" type="line"/>
			<point x="529" y="585" type="line"/>
			<point x="530" y="585" type="line"/>
			<point x="531" y="439" type="line"/>
			<point x="547" y="0" type="line"/>
			<point x="638" y="0" type="line"/>
			<point x="980" y="660" type="line"/>
			<point x="903" y="660" type="line"/>
			<point x="607" y="71" type="line"/>
			<point x="590" y="660" type="line"/>
			<point x="502" y="660" type="line"/>
			<point x="223" y="75" type="line"/>
			<point x="196" y="660" type="line"/>
			<point x="127" y="660" type="line"/>
		</contour>
	</outline>
</glyph>
<glyph name="X" format="2">
	<unicode hex="0058"/>
	<advance width="567"/>
	<outline>
		<contour>
			<point x="-35" y="0" type="line"/>
			<point x="53" y="0" type="line"/>
			<point x="294" y="283" type="line"/>
			<point x="406" y="0" type="line"/>
			<point x="482" y="0" type="line"/>
			<point x="348" y="336" type="line"/>
			<point x="625" y="660" type="line"/>
			<point x="541" y="660" type="line"/>
			<point x="320" y="398" type="line"/>
			<point x="220" y="660" type="line"/>
			<point x="141" y="660" type="line"/>
			<point x="266" y="346" type="line"/>
		</contour>
	</outline>
	<anchor name="bottom" x="226" y="0"/>
	<anchor name="ogonek" x="482" y="0"/>
	<anchor name="top" x="379" y="660"/>
</glyph>
<glyph name="Y" format="2">
	<unicode hex="0059"/>
	<advance width="539"/>
	<outline>
		<contour>
			<point x="175" y="0" type="line"/>
			<point x="247" y="0" type="line"/>
			<point x="306" y="252" type="line"/>
			<point x="619" y="660" type="line"/>
			<point x="532" y="660" type="line"/>
			<point x="360" y="436" type="line"/>
			<point x="283" y="325" type="line"/>
			<point x="255" y="430" type="line"/>
			<point x="188" y="660" type="line"/>
			<point x="110" y="660" type="line"/>
			<point x="235" y="258" type="line"/>
		</contour>
	</outline>
	<anchor name="bottom" x="211" y="0"/>
	<anchor name="ogonek" x="247" y="0"/>
	<anchor name="top" x="348" y="638"/>
</glyph>
<glyph name="Z" format="2">
	<advance width="573"/>
	<unicode hex="005A"/>
	<anchor x="473" y="0" name="ogonek"/>
	<anchor x="274" y="0" name="bottom"/>
	<anchor x="364" y="660" name="top"/>
	<outline>
		<contour>
			<point x="-6" y="0" type="line"/>
			<point x="480" y="0" type="line"/>
			<point x="497" y="67" type="line"/>
			<point x="99" y="67" type="line"/>
			<point x="591" y="595" type="line"/>
			<point x="607" y="660" type="line"/>
			<point x="145" y="660" type="line"/>
			<point x="129" y="593" type="line"/>
			<point x="500" y="593" type="line"/>
			<point x="9" y="66" type="line"/>
		</contour>
	</outline>
</glyph>
<glyph name="bracketleft" format="2">
	<unicode hex="005B"/>
	<advance width="335"/>
	<outline>
		<contour>
			<point x="403" y="667" type="line"/>
			<point x="417" y="730" type="line"/>
			<point x="195" y="730" type="line"/>
			<point x="-13" y="-168" type="line"/>
			<point x="209" y="-168" type="line"/>
			<point x="224" y="-105" type="line"/>
			<point x="69" y="-105" type="line"/>
			<point x="248" y="667" type="line"/>
		</contour>
	</outline>
</glyph>
<glyph name="asciicircum" format="2">
  <advance width="541"/>
  <unicode hex="005E"/>
  <outline>
    <contour>
      <point x="52" y="355" type="line"/>
      <point x="130" y="355" type="line"/>
      <point x="370" y="669" type="line"/>
      <point x="468" y="355" type="line"/>
      <point x="536" y="355" type="line"/>
      <point x="416" y="730" type="line"/>
      <point x="347" y="730" type="line"/>
    </contour>
  </outline>
</glyph>
<glyph name="a" format="2">
  <advance width="608"/>
  <unicode hex="0061"/>
  <anchor x="244" y="0" name="bottom"/>
  <anchor x="451" y="0" name="ogonek"/>
  <anchor x="322" y="500" name="top"/>
  <outline>
    <contour>
      <point x="243" y="-8" type="curve" smooth="yes"/>
      <point x="312" y="-8"/>
      <point x="375" y="33"/>
      <point x="407" y="97" type="curve"/>
      <point x="388" y="0" type="line"/>
      <point x="451" y="0" type="line"/>
      <point x="567" y="500" type="line"/>
      <point x="495" y="500" type="line"/>
      <point x="468" y="378" type="line"/>
      <point x="453" y="458"/>
      <point x="391" y="510"/>
      <point x="303" y="510" type="curve" smooth="yes"/>
      <point x="159" y="510"/>
      <point x="54" y="377"/>
      <point x="54" y="211" type="curve" smooth="yes"/>
      <point x="54" y="81"/>
      <point x="131" y="-8"/>
    </contour>
    <contour>
      <point x="262" y="53" type="curve" smooth="yes"/>
      <point x="175" y="53"/>
      <point x="125" y="110"/>
      <point x="125" y="211" type="curve" smooth="yes"/>
      <point x="125" y="344"/>
      <point x="201" y="448"/>
      <point x="307" y="448" type="curve" smooth="yes"/>
      <point x="385" y="448"/>
      <point x="438" y="391"/>
      <point x="438" y="296" type="curve" smooth="yes"/>
      <point x="438" y="164"/>
      <point x="358" y="53"/>
    </contour>
  </outline>
</glyph>
<glyph name="b" format="2">
  <advance width="597"/>
  <unicode hex="0062"/>
  <anchor x="250" y="0" name="bottom"/>
  <anchor x="373" y="7" name="ogonek"/>
  <anchor x="227" y="698" name="top"/>
  <outline>
    <contour>
      <point x="361" y="508" type="curve" smooth="yes"/>
      <point x="291" y="508"/>
      <point x="229" y="470"/>
      <point x="198" y="416" type="curve"/>
      <point x="270" y="730" type="line"/>
      <point x="198" y="730" type="line"/>
      <point x="30" y="0" type="line"/>
      <point x="102" y="0" type="line"/>
      <point x="129" y="123" type="line"/>
      <point x="143" y="49"/>
      <point x="202" y="-10"/>
      <point x="295" y="-10" type="curve" smooth="yes"/>
      <point x="436" y="-10"/>
      <point x="543" y="121"/>
      <point x="543" y="289" type="curve" smooth="yes"/>
      <point x="543" y="426"/>
      <point x="466" y="508"/>
    </contour>
    <contour>
      <point x="295" y="52" type="curve" smooth="yes"/>
      <point x="207" y="52"/>
      <point x="160" y="112"/>
      <point x="160" y="203" type="curve" smooth="yes"/>
      <point x="160" y="344"/>
      <point x="234" y="446"/>
      <point x="340" y="446" type="curve" smooth="yes"/>
      <point x="415" y="446"/>
      <point x="472" y="393"/>
      <point x="472" y="290" type="curve" smooth="yes"/>
      <point x="472" y="156"/>
      <point x="394" y="52"/>
    </contour>
  </outline>
</glyph>
<glyph name="c" format="2">
	<advance width="519"/>
	<unicode hex="0063"/>
	<anchor x="344" y="18" name="ogonek"/>
	<anchor x="225" y="0" name="bottom"/>
	<anchor x="314" y="500" name="top"/>
	<outline>
		<contour>
			<point x="264" y="-9" type="curve" smooth="yes"/>
			<point x="355" y="-9"/>
			<point x="430" y="35"/>
			<point x="464" y="112" type="curve"/>
			<point x="395" y="137" type="line"/>
			<point x="375" y="83"/>
			<point x="324" y="53"/>
			<point x="272" y="53" type="curve" smooth="yes"/>
			<point x="179" y="53"/>
			<point x="128" y="123"/>
			<point x="128" y="216" type="curve" smooth="yes"/>
			<point x="128" y="350"/>
			<point x="202" y="447"/>
			<point x="305" y="447" type="curve" smooth="yes"/>
			<point x="381" y="447"/>
			<point x="420" y="400"/>
			<point x="427" y="338" type="curve"/>
			<point x="502" y="356" type="line"/>
			<point x="486" y="445"/>
			<point x="415" y="509"/>
			<point x="309" y="509" type="curve" smooth="yes"/>
			<point x="159" y="509"/>
			<point x="55" y="387"/>
			<point x="55" y="214" type="curve" smooth="yes"/>
			<point x="55" y="89"/>
			<point x="133" y="-9"/>
		</contour>
	</outline>
</glyph>
<glyph name="d" format="2">
  <advance width="609"/>
  <unicode hex="0064"/>
  <anchor x="253" y="0" name="bottom"/>
  <anchor x="287" y="254" name="center"/>
  <anchor x="317" y="8" name="ogonek"/>
  <anchor x="578" y="698" name="top"/>
  <anchor x="691" y="730" name="topright"/>
  <outline>
    <contour>
      <point x="244" y="-8" type="curve" smooth="yes"/>
      <point x="313" y="-8"/>
      <point x="376" y="33"/>
      <point x="408" y="97" type="curve"/>
      <point x="389" y="0" type="line"/>
      <point x="452" y="0" type="line"/>
      <point x="621" y="730" type="line"/>
      <point x="549" y="730" type="line"/>
      <point x="469" y="378" type="line"/>
      <point x="454" y="459"/>
      <point x="392" y="510"/>
      <point x="304" y="510" type="curve" smooth="yes"/>
      <point x="159" y="510"/>
      <point x="54" y="377"/>
      <point x="54" y="211" type="curve" smooth="yes"/>
      <point x="54" y="81"/>
      <point x="131" y="-8"/>
    </contour>
    <contour>
      <point x="262" y="53" type="curve" smooth="yes"/>
      <point x="176" y="53"/>
      <point x="125" y="110"/>
      <point x="125" y="211" type="curve" smooth="yes"/>
      <point x="125" y="345"/>
      <point x="202" y="448"/>
      <point x="308" y="448" type="curve" smooth="yes"/>
      <point x="386" y="448"/>
      <point x="439" y="391"/>
      <point x="439" y="296" type="curve" smooth="yes"/>
      <point x="439" y="163"/>
      <point x="359" y="53"/>
    </contour>
  </outline>
</glyph>
<glyph name="e" format="2">
	<unicode hex="0065"/>
	<advance width="551"/>
	<outline>
		<contour>
			<point x="264" y="-9" type="curve" smooth="yes"/>
			<point x="355" y="-9"/>
			<point x="424" y="32"/>
			<point x="467" y="96" type="curve"/>
			<point x="410" y="134" type="line"/>
			<point x="382" y="86"/>
			<point x="339" y="53"/>
			<point x="273" y="53" type="curve" smooth="yes"/>
			<point x="185" y="53"/>
			<point x="128" y="119"/>
			<point x="128" y="212" type="curve" smooth="yes"/>
			<point x="128" y="328"/>
			<point x="180" y="447"/>
			<point x="307" y="447" type="curve" smooth="yes"/>
			<point x="383" y="447"/>
			<point x="427" y="394"/>
			<point x="427" y="320" type="curve" smooth="yes"/>
			<point x="427" y="304"/>
			<point x="425" y="290"/>
			<point x="421" y="273" type="curve"/>
			<point x="453" y="298" type="line"/>
			<point x="91" y="298" type="line"/>
			<point x="90" y="235" type="line"/>
			<point x="483" y="235" type="line"/>
			<point x="493" y="265"/>
			<point x="497" y="294"/>
			<point x="497" y="318" type="curve" smooth="yes"/>
			<point x="497" y="427"/>
			<point x="428" y="509"/>
			<point x="312" y="509" type="curve" smooth="yes"/>
			<point x="149" y="509"/>
			<point x="55" y="371"/>
			<point x="55" y="213" type="curve" smooth="yes"/>
			<point x="55" y="90"/>
			<point x="131" y="-9"/>
		</contour>
	</outline>
	<anchor name="bottom" x="255" y="0"/>
	<anchor name="ogonek" x="349" y="4"/>
	<anchor name="top" x="310" y="500"/>
</glyph>
<glyph name="f" format="2">
	<advance width="366"/>
	<unicode hex="0066"/>
	<anchor x="139" y="0" name="ogonek"/>
	<anchor x="103" y="0" name="bottom"/>
	<anchor x="352" y="730" name="top"/>
	<outline>
		<contour>
			<point x="67" y="0" type="line"/>
			<point x="139" y="0" type="line"/>
			<point x="249" y="476" type="line"/>
			<point x="254" y="500" type="line"/>
			<point x="270" y="573" type="line" smooth="yes"/>
			<point x="286" y="644"/>
			<point x="314" y="670"/>
			<point x="369" y="670" type="curve" smooth="yes"/>
			<point x="391" y="670"/>
			<point x="415" y="663"/>
			<point x="428" y="652" type="curve"/>
			<point x="453" y="711" type="line"/>
			<point x="436" y="725"/>
			<point x="404" y="735"/>
			<point x="370" y="735" type="curve" smooth="yes"/>
			<point x="282" y="735"/>
			<point x="227" y="691"/>
			<point x="204" y="593" type="curve" smooth="yes"/>
		</contour>
		<contour>
			<point x="70" y="438" type="line"/>
			<point x="388" y="438" type="line"/>
			<point x="403" y="500" type="line"/>
			<point x="86" y="500" type="line"/>
		</contour>
	</outline>
</glyph>
<glyph name="g" format="2">
	<unicode hex="0067"/>
	<advance width="608"/>
	<outline>
		<contour>
			<point x="206" y="-215" type="curve" smooth="yes"/>
			<point x="324" y="-215"/>
			<point x="415" y="-152"/>
			<point x="450" y="-1" type="curve" smooth="yes"/>
			<point x="567" y="500" type="line"/>
			<point x="495" y="500" type="line"/>
			<point x="456" y="333" type="line"/>
			<point x="470" y="338" type="line"/>
			<point x="469" y="440"/>
			<point x="401" y="510"/>
			<point x="299" y="510" type="curve" smooth="yes"/>
			<point x="156" y="510"/>
			<point x="52" y="390"/>
			<point x="52" y="226" type="curve" smooth="yes"/>
			<point x="52" y="105"/>
			<point x="134" y="11"/>
			<point x="247" y="11" type="curve" smooth="yes"/>
			<point x="329" y="11"/>
			<point x="398" y="61"/>
			<point x="420" y="135" type="curve"/>
			<point x="408" y="128" type="line"/>
			<point x="382" y="8" type="line" smooth="yes"/>
			<point x="355" y="-116"/>
			<point x="289" y="-152"/>
			<point x="211" y="-152" type="curve" smooth="yes"/>
			<point x="122" y="-152"/>
			<point x="80" y="-107"/>
			<point x="66" y="-28" type="curve"/>
			<point x="-6" y="-54" type="line"/>
			<point x="11" y="-152"/>
			<point x="93" y="-215"/>
		</contour>
		<contour>
			<point x="266" y="73" type="curve" smooth="yes"/>
			<point x="178" y="73"/>
			<point x="124" y="136"/>
			<point x="124" y="227" type="curve" smooth="yes"/>
			<point x="124" y="356"/>
			<point x="198" y="448"/>
			<point x="303" y="448" type="curve" smooth="yes"/>
			<point x="383" y="448"/>
			<point x="436" y="391"/>
			<point x="436" y="297" type="curve" smooth="yes"/>
			<point x="436" y="170"/>
			<point x="362" y="73"/>
		</contour>
	</outline>
	<anchor name="bottom" x="183" y="-210"/>
	<anchor name="ogonek" x="286" y="-204"/>
	<anchor name="top" x="319" y="500"/>
</glyph>
<glyph name="h" format="2">
	<unicode hex="0068"/>
	<advance width="581"/>
	<outline>
		<contour>
			<point x="30" y="0" type="line"/>
			<point x="102" y="0" type="line"/>
			<point x="164" y="268" type="line" smooth="yes"/>
			<point x="190" y="381"/>
			<point x="251" y="447"/>
			<point x="344" y="447" type="curve" smooth="yes"/>
			<point x="422" y="447"/>
			<point x="462" y="393"/>
			<point x="441" y="301" type="curve" smooth="yes"/>
			<point x="371" y="0" type="line"/>
			<point x="443" y="0" type="line"/>
			<point x="513" y="300" type="line" smooth="yes"/>
			<point x="544" y="432"/>
			<point x="471" y="510"/>
			<point x="364" y="510" type="curve" smooth="yes"/>
			<point x="283" y="510"/>
			<point x="207" y="468"/>
			<point x="180" y="389" type="curve"/>
			<point x="194" y="395" type="line"/>
			<point x="272" y="730" type="line"/>
			<point x="200" y="730" type="line"/>
		</contour>
	</outline>
	<anchor name="bottom" x="244" y="0"/>
	<anchor name="ogonek" x="443" y="0"/>
	<anchor name="top" x="229" y="706"/>
</glyph>
<glyph name="k" format="2">
  <advance width="524"/>
  <unicode hex="006B"/>
  <anchor x="237" y="0" name="bottom"/>
  <anchor x="228" y="698" name="top"/>
  <outline>
    <contour>
      <point x="549" y="500" type="line"/>
      <point x="448" y="500" type="line"/>
      <point x="106" y="208" type="line"/>
      <point x="92" y="116" type="line"/>
      <point x="279" y="274" type="line"/>
      <point x="295" y="285" type="line"/>
    </contour>
    <contour>
      <point x="271" y="730" type="line"/>
      <point x="199" y="730" type="line"/>
      <point x="30" y="0" type="line"/>
      <point x="102" y="0" type="line"/>
    </contour>
    <contour>
      <point x="308" y="322" type="line"/>
      <point x="249" y="284" type="line"/>
      <point x="366" y="0" type="line"/>
      <point x="444" y="0" type="line"/>
    </contour>
  </outline>
</glyph>
<glyph name="l" format="2">
  <advance width="294"/>
  <unicode hex="006C"/>
  <anchor x="132" y="0" name="bottom"/>
  <anchor x="262" y="365" name="center"/>
  <anchor x="195" y="0" name="ogonek"/>
  <anchor x="232" y="730" name="top"/>
  <anchor x="336" y="730" name="topright"/>
  <outline>
    <contour>
      <point x="151" y="-7" type="curve" smooth="yes"/>
      <point x="172" y="-7"/>
      <point x="185" y="-5"/>
      <point x="205" y="3" type="curve"/>
      <point x="224" y="60" type="line"/>
      <point x="212" y="57"/>
      <point x="201" y="56"/>
      <point x="183" y="56" type="curve" smooth="yes"/>
      <point x="137" y="56"/>
      <point x="118" y="80"/>
      <point x="131" y="137" type="curve" smooth="yes"/>
      <point x="268" y="730" type="line"/>
      <point x="196" y="730" type="line"/>
      <point x="60" y="140" type="line" smooth="yes"/>
      <point x="40" y="52"/>
      <point x="69" y="-7"/>
    </contour>
  </outline>
</glyph>
<glyph name="m" format="2">
	<unicode hex="006D"/>
	<advance width="919"/>
	<outline>
		<contour>
			<point x="30" y="0" type="line"/>
			<point x="102" y="0" type="line"/>
			<point x="165" y="268" type="line" smooth="yes"/>
			<point x="191" y="379"/>
			<point x="249" y="447"/>
			<point x="345" y="447" type="curve" smooth="yes"/>
			<point x="419" y="447"/>
			<point x="459" y="393"/>
			<point x="437" y="299" type="curve" smooth="yes"/>
			<point x="367" y="0" type="line"/>
			<point x="439" y="0" type="line"/>
			<point x="509" y="298" type="line" smooth="yes"/>
			<point x="541" y="435"/>
			<point x="469" y="510"/>
			<point x="366" y="510" type="curve" smooth="yes"/>
			<point x="282" y="510"/>
			<point x="207" y="468"/>
			<point x="180" y="389" type="curve"/>
			<point x="189" y="385" type="line"/>
			<point x="210" y="500" type="line"/>
			<point x="146" y="500" type="line"/>
		</contour>
		<contour>
			<point x="704" y="0" type="line"/>
			<point x="776" y="0" type="line"/>
			<point x="845" y="298" type="line" smooth="yes"/>
			<point x="876" y="432"/>
			<point x="808" y="510"/>
			<point x="702" y="510" type="curve" smooth="yes"/>
			<point x="612" y="510"/>
			<point x="530" y="461"/>
			<point x="493" y="368" type="curve"/>
			<point x="500" y="267" type="line"/>
			<point x="527" y="379"/>
			<point x="585" y="447"/>
			<point x="682" y="447" type="curve" smooth="yes"/>
			<point x="755" y="447"/>
			<point x="795" y="393"/>
			<point x="773" y="299" type="curve" smooth="yes"/>
		</contour>
	</outline>
	<anchor name="bottom" x="403" y="0"/>
	<anchor name="ogonek" x="778" y="0"/>
	<anchor name="top" x="517" y="500"/>
</glyph>
<glyph name="n" format="2">
	<unicode hex="006E"/>
	<advance width="581"/>
	<outline>
		<contour>
			<point x="30" y="0" type="line"/>
			<point x="102" y="0" type="line"/>
			<point x="164" y="268" type="line" smooth="yes"/>
			<point x="190" y="381"/>
			<point x="251" y="447"/>
			<point x="344" y="447" type="curve" smooth="yes"/>
			<point x="422" y="447"/>
			<point x="462" y="393"/>
			<point x="441" y="301" type="curve" smooth="yes"/>
			<point x="371" y="0" type="line"/>
			<point x="443" y="0" type="line"/>
			<point x="513" y="300" type="line" smooth="yes"/>
			<point x="544" y="432"/>
			<point x="475" y="510"/>
			<point x="364" y="510" type="curve" smooth="yes"/>
			<point x="283" y="510"/>
			<point x="207" y="468"/>
			<point x="180" y="389" type="curve"/>
			<point x="189" y="385" type="line"/>
			<point x="210" y="500" type="line"/>
			<point x="146" y="500" type="line"/>
		</contour>
	</outline>
	<anchor name="bottom" x="251" y="0"/>
	<anchor name="ogonek" x="443" y="0"/>
	<anchor name="top" x="350" y="500"/>
</glyph>
<glyph name="o" format="2">
  <advance width="576"/>
  <unicode hex="006F"/>
  <anchor x="255" y="0" name="bottom"/>
  <anchor x="288" y="250" name="center"/>
  <anchor x="349" y="4" name="ogonek"/>
  <anchor x="315" y="500" name="top"/>
  <anchor x="485" y="500" name="topright"/>
  <outline>
    <contour>
      <point x="271" y="-9" type="curve" smooth="yes"/>
      <point x="416" y="-9"/>
      <point x="521" y="115"/>
      <point x="521" y="287" type="curve" smooth="yes"/>
      <point x="521" y="409"/>
      <point x="444" y="509"/>
      <point x="306" y="509" type="curve" smooth="yes"/>
      <point x="159" y="509"/>
      <point x="55" y="385"/>
      <point x="55" y="214" type="curve" smooth="yes"/>
      <point x="55" y="92"/>
      <point x="132" y="-9"/>
    </contour>
    <contour>
      <point x="273" y="53" type="curve" smooth="yes"/>
      <point x="176" y="53"/>
      <point x="128" y="126"/>
      <point x="128" y="217" type="curve" smooth="yes"/>
      <point x="128" y="350"/>
      <point x="201" y="447"/>
      <point x="303" y="447" type="curve" smooth="yes"/>
      <point x="401" y="447"/>
      <point x="448" y="375"/>
      <point x="448" y="284" type="curve" smooth="yes"/>
      <point x="448" y="151"/>
      <point x="375" y="53"/>
    </contour>
  </outline>
</glyph>
<glyph name="p" format="2">
	<unicode hex="0070"/>
	<advance width="598"/>
	<outline>
		<contour>
			<point x="-19" y="-210" type="line"/>
			<point x="53" y="-210" type="line"/>
			<point x="139" y="168" type="line"/>
			<point x="125" y="157" type="line"/>
			<point x="128" y="57"/>
			<point x="196" y="-10"/>
			<point x="294" y="-10" type="curve" smooth="yes"/>
			<point x="436" y="-10"/>
			<point x="544" y="120"/>
			<point x="544" y="291" type="curve" smooth="yes"/>
			<point x="544" y="425"/>
			<point x="468" y="508"/>
			<point x="364" y="508" type="curve" smooth="yes"/>
			<point x="273" y="508"/>
			<point x="197" y="454"/>
			<point x="173" y="363" type="curve"/>
			<point x="185" y="373" type="line"/>
			<point x="209" y="500" type="line"/>
			<point x="145" y="500" type="line"/>
		</contour>
		<contour>
			<point x="296" y="52" type="curve" smooth="yes"/>
			<point x="207" y="52"/>
			<point x="159" y="112"/>
			<point x="159" y="203" type="curve" smooth="yes"/>
			<point x="159" y="343"/>
			<point x="235" y="446"/>
			<point x="339" y="446" type="curve" smooth="yes"/>
			<point x="418" y="446"/>
			<point x="473" y="390"/>
			<point x="473" y="292" type="curve" smooth="yes"/>
			<point x="473" y="157"/>
			<point x="395" y="52"/>
		</contour>
	</outline>
	<anchor name="bottom" x="17" y="-210"/>
	<anchor name="ogonek" x="373" y="18"/>
	<anchor name="top" x="366" y="500"/>
</glyph>
<glyph name="q" format="2">
	<advance width="608"/>
	<unicode hex="0071"/>
	<anchor x="319" y="18" name="ogonek"/>
	<anchor x="367" y="-210" name="bottom"/>
	<anchor x="346" y="500" name="top"/>
	<outline>
		<contour>
			<point x="331" y="-210" type="line"/>
			<point x="403" y="-210" type="line"/>
			<point x="567" y="500" type="line"/>
			<point x="495" y="500" type="line"/>
			<point x="459" y="341" type="line"/>
			<point x="469" y="349" type="line"/>
			<point x="466" y="438"/>
			<point x="405" y="510"/>
			<point x="302" y="510" type="curve" smooth="yes"/>
			<point x="162" y="510"/>
			<point x="54" y="380"/>
			<point x="54" y="211" type="curve" smooth="yes"/>
			<point x="54" y="80"/>
			<point x="133" y="-8"/>
			<point x="243" y="-8" type="curve" smooth="yes"/>
			<point x="319" y="-8"/>
			<point x="383" y="40"/>
			<point x="411" y="114" type="curve"/>
			<point x="407" y="116" type="line"/>
		</contour>
		<contour>
			<point x="261" y="53" type="curve" smooth="yes"/>
			<point x="177" y="53"/>
			<point x="125" y="111"/>
			<point x="125" y="211" type="curve" smooth="yes"/>
			<point x="125" y="346"/>
			<point x="202" y="448"/>
			<point x="307" y="448" type="curve" smooth="yes"/>
			<point x="384" y="448"/>
			<point x="437" y="391"/>
			<point x="437" y="295" type="curve" smooth="yes"/>
			<point x="437" y="159"/>
			<point x="360" y="53"/>
		</contour>
	</outline>
</glyph>
<glyph name="r" format="2">
	<advance width="371"/>
	<unicode hex="0072"/>
	<anchor x="102" y="0" name="ogonek"/>
	<anchor x="72" y="0" name="bottom"/>
	<anchor x="270" y="500" name="top"/>
	<outline>
		<contour>
			<point x="30" y="0" type="line"/>
			<point x="102" y="0" type="line"/>
			<point x="166" y="275" type="line" smooth="yes"/>
			<point x="192" y="387"/>
			<point x="256" y="443"/>
			<point x="330" y="443" type="curve" smooth="yes"/>
			<point x="350" y="443"/>
			<point x="367" y="439"/>
			<point x="379" y="432" type="curve"/>
			<point x="401" y="500" type="line"/>
			<point x="389" y="507"/>
			<point x="372" y="510"/>
			<point x="352" y="510" type="curve" smooth="yes"/>
			<point x="284" y="510"/>
			<point x="211" y="463"/>
			<point x="181" y="388" type="curve"/>
			<point x="191" y="381" type="line"/>
			<point x="205" y="500" type="line"/>
			<point x="146" y="500" type="line"/>
		</contour>
	</outline>
</glyph>
<glyph name="s" format="2">
  <advance width="495"/>
  <unicode hex="0073"/>
  <anchor x="212" y="0" name="bottom"/>
  <anchor x="310" y="0" name="ogonek"/>
  <anchor x="286" y="500" name="top"/>
  <outline>
    <contour>
      <point x="50" y="47"/>
      <point x="129" y="-11"/>
      <point x="241" y="-11" type="curve" smooth="yes"/>
      <point x="350" y="-11"/>
      <point x="425" y="54"/>
      <point x="425" y="150" type="curve" smooth="yes"/>
      <point x="425" y="205"/>
      <point x="386" y="249"/>
      <point x="321" y="268" type="curve" smooth="yes"/>
      <point x="226" y="296" type="line" smooth="yes"/>
      <point x="187" y="308"/>
      <point x="159" y="328"/>
      <point x="159" y="368" type="curve" smooth="yes"/>
      <point x="159" y="417"/>
      <point x="196" y="448"/>
      <point x="268" y="448" type="curve" smooth="yes"/>
      <point x="334" y="448"/>
      <point x="382" y="411"/>
      <point x="399" y="351" type="curve"/>
      <point x="464" y="383" type="line"/>
      <point x="437" y="466"/>
      <point x="364" y="510"/>
      <point x="272" y="510" type="curve" smooth="yes"/>
      <point x="160" y="510"/>
      <point x="89" y="445"/>
      <point x="89" y="362" type="curve" smooth="yes"/>
      <point x="89" y="302"/>
      <point x="128" y="257"/>
      <point x="205" y="234" type="curve" smooth="yes"/>
      <point x="292" y="208" type="line" smooth="yes"/>
      <point x="333" y="196"/>
      <point x="353" y="176"/>
      <point x="353" y="140" type="curve" smooth="yes"/>
      <point x="353" y="90"/>
      <point x="314" y="52"/>
      <point x="245" y="52" type="curve" smooth="yes"/>
      <point x="162" y="52"/>
      <point x="111" y="92"/>
      <point x="89" y="167" type="curve"/>
      <point x="20" y="137" type="line"/>
    </contour>
  </outline>
</glyph>
<glyph name="t" format="2">
	<advance width="378"/>
	<unicode hex="0074"/>
	<anchor x="189" y="250" name="center"/>
	<anchor x="272" y="1" name="ogonek"/>
	<anchor x="240" y="635" name="top"/>
	<anchor x="384" y="767" name="topright"/>
	<anchor x="192" y="0" name="bottom"/>
	<outline>
		<contour>
			<point x="216" y="-8" type="curve"/>
			<point x="253" y="-8"/>
			<point x="285" y="-1"/>
			<point x="317" y="22" type="curve"/>
			<point x="303" y="81" type="line"/>
			<point x="284" y="66"/>
			<point x="261" y="56"/>
			<point x="230" y="56" type="curve"/>
			<point x="185" y="56"/>
			<point x="150" y="82"/>
			<point x="165" y="147" type="curve"/>
			<point x="279" y="635" type="line"/>
			<point x="200" y="613" type="line"/>
			<point x="95" y="151" type="line" smooth="yes"/>
			<point x="72" y="50"/>
			<point x="127" y="-8"/>
		</contour>
		<contour>
			<point x="64" y="438" type="line"/>
			<point x="378" y="438" type="line"/>
			<point x="394" y="500" type="line"/>
			<point x="79" y="500" type="line"/>
		</contour>
	</outline>
</glyph>
<glyph name="u" format="2">
	<unicode hex="0075"/>
	<advance width="578"/>
	<outline>
		<contour>
			<point x="209" y="-8" type="curve" smooth="yes"/>
			<point x="289" y="-8"/>
			<point x="361" y="32"/>
			<point x="388" y="111" type="curve"/>
			<point x="379" y="116" type="line"/>
			<point x="358" y="0" type="line"/>
			<point x="421" y="0" type="line"/>
			<point x="537" y="500" type="line"/>
			<point x="465" y="500" type="line"/>
			<point x="403" y="232" type="line" smooth="yes"/>
			<point x="377" y="119"/>
			<point x="318" y="55"/>
			<point x="228" y="55" type="curve" smooth="yes"/>
			<point x="151" y="55"/>
			<point x="108" y="107"/>
			<point x="130" y="202" type="curve" smooth="yes"/>
			<point x="198" y="500" type="line"/>
			<point x="126" y="500" type="line"/>
			<point x="57" y="200" type="line" smooth="yes"/>
			<point x="27" y="68"/>
			<point x="102" y="-8"/>
		</contour>
	</outline>
	<anchor name="bottom" x="214" y="0"/>
	<anchor name="ogonek" x="421" y="0"/>
	<anchor name="top" x="322" y="489"/>
	<anchor name="topright" x="566" y="500"/>
</glyph>
<glyph name="v" format="2">
	<unicode hex="0076"/>
	<advance width="475"/>
	<outline>
		<contour>
			<point x="444" y="500" type="line"/>
			<point x="184" y="58" type="line"/>
			<point x="202" y="54" type="line"/>
			<point x="137" y="500" type="line"/>
			<point x="66" y="500" type="line"/>
			<point x="145" y="0" type="line"/>
			<point x="218" y="0" type="line"/>
			<point x="525" y="500" type="line"/>
		</contour>
	</outline>
	<anchor name="bottom" x="182" y="0"/>
	<anchor name="ogonek" x="218" y="0"/>
	<anchor name="top" x="296" y="500"/>
</glyph>
<glyph name="w" format="2">
	<advance width="782"/>
	<unicode hex="0077"/>
	<anchor x="541" y="0" name="ogonek"/>
	<anchor x="334" y="0" name="bottom"/>
	<anchor x="426" y="500" name="top"/>
	<outline>
		<contour>
			<point x="126" y="0" type="line"/>
			<point x="199" y="0" type="line"/>
			<point x="416" y="407" type="line"/>
			<point x="469" y="0" type="line"/>
			<point x="541" y="0" type="line"/>
			<point x="813" y="500" type="line"/>
			<point x="736" y="500" type="line"/>
			<point x="518" y="85" type="line"/>
			<point x="470" y="500" type="line"/>
			<point x="398" y="500" type="line"/>
			<point x="182" y="91" type="line"/>
			<point x="147" y="500" type="line"/>
			<point x="77" y="500" type="line"/>
		</contour>
	</outline>
</glyph>
<glyph name="x" format="2">
  <advance width="500"/>
  <unicode hex="0078"/>
  <anchor x="188" y="0" name="bottom"/>
  <anchor x="417" y="0" name="ogonek"/>
  <anchor x="304" y="500" name="top"/>
  <outline>
    <contour>
      <point x="-32" y="0" type="line"/>
      <point x="59" y="0" type="line"/>
      <point x="255" y="216" type="line"/>
      <point x="274" y="235" type="line"/>
      <point x="518" y="500" type="line"/>
      <point x="430" y="500" type="line"/>
      <point x="243" y="291" type="line"/>
      <point x="225" y="276" type="line"/>
    </contour>
    <contour>
      <point x="336" y="0" type="line"/>
      <point x="417" y="0" type="line"/>
      <point x="279" y="277" type="line"/>
      <point x="276" y="286" type="line"/>
      <point x="174" y="500" type="line"/>
      <point x="92" y="500" type="line"/>
      <point x="219" y="240" type="line"/>
      <point x="228" y="224" type="line"/>
    </contour>
  </outline>
</glyph>
<glyph name="y" format="2">
	<unicode hex="0079"/>
	<advance width="488"/>
	<outline>
		<contour>
			<point x="5" y="-215" type="curve" smooth="yes"/>
			<point x="62" y="-215"/>
			<point x="115" y="-180"/>
			<point x="166" y="-98" type="curve" smooth="yes"/>
			<point x="538" y="500" type="line"/>
			<point x="456" y="500" type="line"/>
			<point x="272" y="188" type="line"/>
			<point x="208" y="80" type="line"/>
			<point x="190" y="194" type="line"/>
			<point x="144" y="500" type="line"/>
			<point x="73" y="500" type="line"/>
			<point x="156" y="4" type="line"/>
			<point x="109" y="-74" type="line" smooth="yes"/>
			<point x="76" y="-128"/>
			<point x="45" y="-152"/>
			<point x="2" y="-152" type="curve" smooth="yes"/>
			<point x="-26" y="-152"/>
			<point x="-49" y="-141"/>
			<point x="-70" y="-121" type="curve"/>
			<point x="-100" y="-181" type="line"/>
			<point x="-80" y="-200"/>
			<point x="-46" y="-215"/>
		</contour>
	</outline>
	<anchor name="bottom" x="332" y="-9"/>
	<anchor name="ogonek" x="36" y="-210"/>
	<anchor name="top" x="294" y="489"/>
	<anchor name="top_hook" x="285" y="454"/>
</glyph>
<glyph name="z" format="2">
  <advance width="495"/>
  <unicode hex="007A"/>
  <anchor x="225" y="0" name="bottom"/>
  <anchor x="255" y="250" name="center"/>
  <anchor x="397" y="0" name="ogonek"/>
  <anchor x="285" y="500" name="top"/>
  <outline>
    <contour>
      <point x="-2" y="0" type="line"/>
      <point x="397" y="0" type="line"/>
      <point x="412" y="62" type="line"/>
      <point x="201" y="62" type="line"/>
      <point x="99" y="62" type="line"/>
      <point x="174" y="133" type="line"/>
      <point x="478" y="438" type="line"/>
      <point x="493" y="500" type="line"/>
      <point x="110" y="500" type="line"/>
      <point x="95" y="438" type="line"/>
      <point x="311" y="438" type="line"/>
      <point x="394" y="440" type="line"/>
      <point x="341" y="390" type="line"/>
      <point x="12" y="59" type="line"/>
    </contour>
  </outline>
</glyph>
<glyph name="braceleft" format="2">
	<unicode hex="007B"/>
	<advance width="324"/>
	<outline>
		<contour>
			<point x="178" y="-187" type="curve"/>
			<point x="180" y="-187" type="line"/>
			<point x="193" y="-134" type="line"/>
			<point x="191" y="-134" type="line"/>
			<point x="135" y="-132"/>
			<point x="112" y="-109"/>
			<point x="122" y="-62" type="curve" smooth="yes"/>
			<point x="172" y="154" type="line" smooth="yes"/>
			<point x="187" y="217"/>
			<point x="163" y="261"/>
			<point x="107" y="275" type="curve"/>
			<point x="169" y="284"/>
			<point x="213" y="331"/>
			<point x="227" y="391" type="curve" smooth="yes"/>
			<point x="280" y="624" type="line" smooth="yes"/>
			<point x="292" y="672"/>
			<point x="313" y="694"/>
			<point x="380" y="694" type="curve"/>
			<point x="384" y="694" type="line"/>
			<point x="396" y="750" type="line"/>
			<point x="374" y="750" type="line" smooth="yes"/>
			<point x="280" y="750"/>
			<point x="232" y="705"/>
			<point x="216" y="637" type="curve" smooth="yes"/>
			<point x="162" y="398" type="line" smooth="yes"/>
			<point x="147" y="334"/>
			<point x="111" y="313"/>
			<point x="52" y="313" type="curve" smooth="yes"/>
			<point x="38" y="313" type="line"/>
			<point x="24" y="250" type="line"/>
			<point x="30" y="250" type="line" smooth="yes"/>
			<point x="91" y="250"/>
			<point x="120" y="221"/>
			<point x="104" y="148" type="curve" smooth="yes"/>
			<point x="55" y="-64" type="line" smooth="yes"/>
			<point x="38" y="-137"/>
			<point x="80" y="-187"/>
		</contour>
	</outline>
</glyph>
<glyph name="bar" format="2">
  <advance width="230"/>
  <unicode hex="007C"/>
  <outline>
    <contour>
      <point x="257" y="730" type="line"/>
      <point x="195" y="730" type="line"/>
      <point x="-13" y="-168" type="line"/>
      <point x="49" y="-168" type="line"/>
    </contour>
  </outline>
</glyph>
<glyph name="braceright" format="2">
  <advance width="325"/>
  <unicode hex="007D"/>
  <outline>
    <contour>
      <point x="-68" y="-187" type="line"/>
      <point x="-46" y="-187" type="line" smooth="yes"/>
      <point x="48" y="-187"/>
      <point x="96" y="-142"/>
      <point x="112" y="-74" type="curve" smooth="yes"/>
      <point x="167" y="165" type="line" smooth="yes"/>
      <point x="181" y="229"/>
      <point x="217" y="250"/>
      <point x="276" y="250" type="curve" smooth="yes"/>
      <point x="290" y="250" type="line"/>
      <point x="304" y="313" type="line"/>
      <point x="298" y="313" type="line" smooth="yes"/>
      <point x="237" y="313"/>
      <point x="208" y="342"/>
      <point x="224" y="415" type="curve" smooth="yes"/>
      <point x="273" y="627" type="line" smooth="yes"/>
      <point x="290" y="700"/>
      <point x="249" y="750"/>
      <point x="149" y="750" type="curve"/>
      <point x="148" y="750" type="line"/>
      <point x="134" y="694" type="line"/>
      <point x="136" y="694" type="line"/>
      <point x="193" y="694"/>
      <point x="216" y="669"/>
      <point x="205" y="623" type="curve" smooth="yes"/>
      <point x="156" y="410" type="line" smooth="yes"/>
      <point x="142" y="347"/>
      <point x="165" y="302"/>
      <point x="221" y="289" type="curve"/>
      <point x="159" y="279"/>
      <point x="115" y="232"/>
      <point x="102" y="172" type="curve" smooth="yes"/>
      <point x="48" y="-61" type="line" smooth="yes"/>
      <point x="37" y="-109"/>
      <point x="14" y="-133"/>
      <point x="-53" y="-133" type="curve"/>
      <point x="-56" y="-133" type="line"/>
    </contour>
  </outline>
</glyph>
<glyph name="asciitilde" format="2">
	<advance width="532"/>
	<unicode hex="007E"/>
	<outline>
		<contour>
			<point x="520" y="385" type="curve"/>
			<point x="452" y="385" type="line"/>
			<point x="436" y="336"/>
			<point x="407" y="311"/>
			<point x="370" y="311" type="curve" smooth="yes"/>
			<point x="304" y="311"/>
			<point x="285" y="385"/>
			<point x="201" y="385" type="curve" smooth="yes"/>
			<point x="132" y="385"/>
			<point x="68" y="339"/>
			<point x="42" y="243" type="curve"/>
			<point x="111" y="243" type="line"/>
			<point x="126" y="291"/>
			<point x="156" y="317"/>
			<point x="192" y="317" type="curve" smooth="yes"/>
			<point x="259" y="317"/>
			<point x="276" y="243"/>
			<point x="363" y="243" type="curve" smooth="yes"/>
			<point x="428" y="243"/>
			<point x="493" y="288"/>
		</contour>
	</outline>
</glyph>
<glyph name="cent" format="2">
	<advance width="547"/>
	<unicode hex="00A2"/>
	<outline>
		<contour>
			<point x="272" y="-9" type="curve" smooth="yes"/>
			<point x="363" y="-9"/>
			<point x="439" y="35"/>
			<point x="474" y="112" type="curve"/>
			<point x="407" y="137" type="line"/>
			<point x="388" y="83"/>
			<point x="332" y="50"/>
			<point x="280" y="50" type="curve" smooth="yes"/>
			<point x="187" y="50"/>
			<point x="132" y="123"/>
			<point x="132" y="216" type="curve" smooth="yes"/>
			<point x="132" y="350"/>
			<point x="209" y="451"/>
			<point x="313" y="451" type="curve" smooth="yes"/>
			<point x="389" y="451"/>
			<point x="433" y="400"/>
			<point x="439" y="338" type="curve"/>
			<point x="511" y="356" type="line"/>
			<point x="495" y="445"/>
			<point x="424" y="509"/>
			<point x="317" y="509" type="curve" smooth="yes"/>
			<point x="166" y="509"/>
			<point x="62" y="385"/>
			<point x="62" y="213" type="curve" smooth="yes"/>
			<point x="62" y="88"/>
			<point x="141" y="-9"/>
		</contour>
		<contour>
			<point x="177" y="-100" type="line"/>
			<point x="237" y="-100" type="line"/>
			<point x="399" y="600" type="line"/>
			<point x="339" y="600" type="line"/>
		</contour>
	</outline>
</glyph>
<glyph name="currency" format="2">
  <advance width="644"/>
  <unicode hex="00A4"/>
  <outline>
    <contour>
      <point x="342" y="536" type="curve" smooth="yes"/>
      <point x="225" y="536"/>
      <point x="140" y="448"/>
      <point x="140" y="328" type="curve" smooth="yes"/>
      <point x="140" y="208"/>
      <point x="224" y="122"/>
      <point x="339" y="122" type="curve" smooth="yes"/>
      <point x="456" y="122"/>
      <point x="541" y="210"/>
      <point x="541" y="332" type="curve" smooth="yes"/>
      <point x="541" y="451"/>
      <point x="458" y="536"/>
    </contour>
    <contour>
      <point x="342" y="471" type="curve" smooth="yes"/>
      <point x="416" y="471"/>
      <point x="469" y="412"/>
      <point x="469" y="331" type="curve" smooth="yes"/>
      <point x="469" y="248"/>
      <point x="415" y="187"/>
      <point x="340" y="187" type="curve" smooth="yes"/>
      <point x="265" y="187"/>
      <point x="212" y="245"/>
      <point x="212" y="328" type="curve" smooth="yes"/>
      <point x="212" y="411"/>
      <point x="266" y="471"/>
    </contour>
    <contour>
      <point x="137" y="588" type="line"/>
      <point x="90" y="542" type="line"/>
      <point x="203" y="427" type="line"/>
      <point x="250" y="473" type="line"/>
    </contour>
    <contour>
      <point x="200" y="233" type="line"/>
      <point x="87" y="115" type="line"/>
      <point x="133" y="69" type="line"/>
      <point x="245" y="187" type="line"/>
    </contour>
    <contour>
      <point x="477" y="230" type="line"/>
      <point x="431" y="184" type="line"/>
      <point x="544" y="69" type="line"/>
      <point x="590" y="115" type="line"/>
    </contour>
    <contour>
      <point x="548" y="588" type="line"/>
      <point x="436" y="471" type="line"/>
      <point x="481" y="425" type="line"/>
      <point x="593" y="542" type="line"/>
    </contour>
  </outline>
</glyph>
<glyph name="yen" format="2">
  <advance width="584"/>
  <unicode hex="00A5"/>
  <outline>
    <contour>
      <point x="202" y="0" type="line"/>
      <point x="266" y="0" type="line"/>
      <point x="291" y="110" type="line"/>
      <point x="463" y="110" type="line"/>
      <point x="474" y="160" type="line"/>
      <point x="303" y="160" type="line"/>
      <point x="321" y="239" type="line"/>
      <point x="492" y="239" type="line"/>
      <point x="505" y="294" type="line"/>
      <point x="393" y="294" type="line"/>
      <point x="354" y="289" type="line"/>
      <point x="644" y="660" type="line"/>
      <point x="558" y="660" type="line"/>
      <point x="369" y="404" type="line"/>
      <point x="313" y="315" type="line"/>
      <point x="311" y="315" type="line"/>
      <point x="287" y="402" type="line"/>
      <point x="204" y="660" type="line"/>
      <point x="131" y="660" type="line"/>
      <point x="257" y="290" type="line"/>
      <point x="212" y="294" type="line"/>
      <point x="101" y="294" type="line"/>
      <point x="88" y="239" type="line"/>
      <point x="258" y="239" type="line"/>
      <point x="240" y="160" type="line"/>
      <point x="70" y="160" type="line"/>
      <point x="58" y="110" type="line"/>
      <point x="228" y="110" type="line"/>
    </contour>
  </outline>
</glyph>
<glyph name="brokenbar" format="2">
	<advance width="230"/>
	<unicode hex="00A6"/>
	<outline>
		<contour>
			<point x="257" y="730" type="line"/>
			<point x="195" y="730" type="line"/>
			<point x="111" y="367" type="line"/>
			<point x="173" y="367" type="line"/>
		</contour>
		<contour>
			<point x="133" y="195" type="line"/>
			<point x="71" y="195" type="line"/>
			<point x="-13" y="-168" type="line"/>
			<point x="49" y="-168" type="line"/>
		</contour>
	</outline>
</glyph>
<glyph name="section" format="2">
	<advance width="574"/>
	<unicode hex="00A7"/>
	<outline>
		<contour>
			<point x="246" y="-110" type="curve" smooth="yes"/>
			<point x="394" y="-110"/>
			<point x="461" y="-31"/>
			<point x="461" y="66" type="curve" smooth="yes"/>
			<point x="461" y="134"/>
			<point x="417" y="168"/>
			<point x="328" y="194" type="curve" smooth="yes"/>
			<point x="210" y="228" type="line" smooth="yes"/>
			<point x="140" y="248"/>
			<point x="110" y="276"/>
			<point x="110" y="322" type="curve" smooth="yes"/>
			<point x="110" y="364"/>
			<point x="140" y="403"/>
			<point x="207" y="407" type="curve"/>
			<point x="176" y="436" type="line"/>
			<point x="98" y="430"/>
			<point x="45" y="380"/>
			<point x="45" y="310" type="curve" smooth="yes"/>
			<point x="45" y="235"/>
			<point x="89" y="195"/>
			<point x="189" y="166" type="curve" smooth="yes"/>
			<point x="302" y="133" type="line" smooth="yes"/>
			<point x="367" y="114"/>
			<point x="388" y="92"/>
			<point x="388" y="49" type="curve" smooth="yes"/>
			<point x="388" y="-10"/>
			<point x="343" y="-50"/>
			<point x="259" y="-50" type="curve" smooth="yes"/>
			<point x="162" y="-50"/>
			<point x="109" y="-4"/>
			<point x="87" y="59" type="curve"/>
			<point x="21" y="21" type="line"/>
			<point x="55" y="-66"/>
			<point x="145" y="-110"/>
		</contour>
		<contour>
			<point x="403" y="126" type="line"/>
			<point x="500" y="132"/>
			<point x="546" y="195"/>
			<point x="546" y="261" type="curve" smooth="yes"/>
			<point x="546" y="324"/>
			<point x="508" y="363"/>
			<point x="429" y="387" type="curve" smooth="yes"/>
			<point x="313" y="422" type="line" smooth="yes"/>
			<point x="248" y="441"/>
			<point x="226" y="463"/>
			<point x="226" y="513" type="curve" smooth="yes"/>
			<point x="226" y="570"/>
			<point x="275" y="608"/>
			<point x="348" y="608" type="curve" smooth="yes"/>
			<point x="423" y="608"/>
			<point x="475" y="580"/>
			<point x="514" y="511" type="curve"/>
			<point x="576" y="548" type="line"/>
			<point x="525" y="640"/>
			<point x="436" y="670"/>
			<point x="358" y="670" type="curve" smooth="yes"/>
			<point x="223" y="670"/>
			<point x="153" y="592"/>
			<point x="153" y="503" type="curve" smooth="yes"/>
			<point x="153" y="423"/>
			<point x="198" y="388"/>
			<point x="276" y="365" type="curve" smooth="yes"/>
			<point x="392" y="331" type="line" smooth="yes"/>
			<point x="454" y="313"/>
			<point x="481" y="290"/>
			<point x="481" y="247" type="curve" smooth="yes"/>
			<point x="481" y="193"/>
			<point x="443" y="160"/>
			<point x="385" y="160" type="curve"/>
		</contour>
	</outline>
</glyph>
<glyph name="copyright" format="2">
  <advance width="805"/>
  <unicode hex="00A9"/>
  <outline>
    <contour>
      <point x="421" y="-10" type="curve" smooth="yes"/>
      <point x="624" y="-10"/>
      <point x="762" y="137"/>
      <point x="762" y="330" type="curve" smooth="yes"/>
      <point x="762" y="524"/>
      <point x="624" y="670"/>
      <point x="421" y="670" type="curve" smooth="yes"/>
      <point x="218" y="670"/>
      <point x="80" y="523"/>
      <point x="80" y="330" type="curve" smooth="yes"/>
      <point x="80" y="137"/>
      <point x="218" y="-10"/>
    </contour>
    <contour>
      <point x="421" y="49" type="curve" smooth="yes"/>
      <point x="256" y="49"/>
      <point x="144" y="172"/>
      <point x="144" y="330" type="curve" smooth="yes"/>
      <point x="144" y="488"/>
      <point x="256" y="611"/>
      <point x="421" y="611" type="curve" smooth="yes"/>
      <point x="585" y="611"/>
      <point x="698" y="488"/>
      <point x="698" y="330" type="curve" smooth="yes"/>
      <point x="698" y="172"/>
      <point x="585" y="49"/>
    </contour>
    <contour>
      <point x="429" y="143" type="curve" smooth="yes"/>
      <point x="509" y="143"/>
      <point x="564" y="183"/>
      <point x="588" y="249" type="curve"/>
      <point x="538" y="269" type="line"/>
      <point x="521" y="222"/>
      <point x="483" y="197"/>
      <point x="428" y="197" type="curve" smooth="yes"/>
      <point x="353" y="197"/>
      <point x="307" y="246"/>
      <point x="307" y="328" type="curve" smooth="yes"/>
      <point x="307" y="411"/>
      <point x="353" y="459"/>
      <point x="428" y="459" type="curve" smooth="yes"/>
      <point x="480" y="459"/>
      <point x="514" y="437"/>
      <point x="531" y="391" type="curve"/>
      <point x="584" y="417" type="line"/>
      <point x="558" y="477"/>
      <point x="507" y="513"/>
      <point x="429" y="513" type="curve" smooth="yes"/>
      <point x="315" y="513"/>
      <point x="247" y="443"/>
      <point x="247" y="328" type="curve" smooth="yes"/>
      <point x="247" y="213"/>
      <point x="315" y="143"/>
    </contour>
  </outline>
</glyph>
<glyph name="ordfeminine" format="2">
  <advance width="347"/>
  <unicode hex="00AA"/>
  <outline>
    <contour>
      <point x="182" y="327" type="curve" smooth="yes"/>
      <point x="233" y="327"/>
      <point x="283" y="364"/>
      <point x="305" y="437" type="curve"/>
      <point x="309" y="489" type="line"/>
      <point x="273" y="336" type="line"/>
      <point x="325" y="336" type="line"/>
      <point x="402" y="660" type="line"/>
      <point x="343" y="660" type="line"/>
      <point x="310" y="525" type="line"/>
      <point x="324" y="549" type="line"/>
      <point x="330" y="625"/>
      <point x="287" y="666"/>
      <point x="236" y="666" type="curve" smooth="yes"/>
      <point x="142" y="666"/>
      <point x="72" y="580"/>
      <point x="72" y="466" type="curve" smooth="yes"/>
      <point x="72" y="382"/>
      <point x="118" y="327"/>
    </contour>
    <contour>
      <point x="28" y="204" type="line"/>
      <point x="297" y="204" type="line"/>
      <point x="309" y="252" type="line"/>
      <point x="39" y="252" type="line"/>
    </contour>
    <contour>
      <point x="204" y="377" type="curve" smooth="yes"/>
      <point x="158" y="377"/>
      <point x="133" y="415"/>
      <point x="133" y="466" type="curve" smooth="yes"/>
      <point x="133" y="540"/>
      <point x="167" y="616"/>
      <point x="235" y="616" type="curve" smooth="yes"/>
      <point x="275" y="616"/>
      <point x="301" y="581"/>
      <point x="301" y="528" type="curve" smooth="yes"/>
      <point x="301" y="453"/>
      <point x="266" y="377"/>
    </contour>
  </outline>
</glyph>
<glyph name="logicalnot" format="2">
	<unicode hex="00AC"/>
	<advance width="604"/>
	<outline>
		<contour>
			<point x="559" y="319" type="line"/>
			<point x="487" y="319" type="line"/>
			<point x="445" y="137" type="line"/>
			<point x="517" y="137" type="line"/>
		</contour>
		<contour>
			<point x="566" y="350" type="line"/>
			<point x="84" y="350" type="line"/>
			<point x="69" y="283" type="line"/>
			<point x="551" y="283" type="line"/>
		</contour>
	</outline>
</glyph>
<glyph name="registered" format="2">
	<unicode hex="00AE"/>
	<advance width="810"/>
	<outline>
		<contour>
			<point x="423" y="670" type="curve" smooth="yes"/>
			<point x="216" y="670"/>
			<point x="81" y="536"/>
			<point x="81" y="330" type="curve" smooth="yes"/>
			<point x="81" y="124"/>
			<point x="216" y="-10"/>
			<point x="423" y="-10" type="curve" smooth="yes"/>
			<point x="631" y="-10"/>
			<point x="765" y="124"/>
			<point x="765" y="330" type="curve" smooth="yes"/>
			<point x="765" y="536"/>
			<point x="631" y="670"/>
		</contour>
		<contour>
			<point x="356" y="513" type="line"/>
			<point x="295" y="513" type="line"/>
			<point x="295" y="143" type="line"/>
			<point x="356" y="143" type="line"/>
		</contour>
		<contour>
			<point x="472" y="317" type="line"/>
			<point x="422" y="296" type="line"/>
			<point x="524" y="143" type="line"/>
			<point x="593" y="143" type="line"/>
		</contour>
		<contour>
			<point x="423" y="611" type="curve" smooth="yes"/>
			<point x="592" y="611"/>
			<point x="701" y="501"/>
			<point x="701" y="330" type="curve" smooth="yes"/>
			<point x="701" y="160"/>
			<point x="592" y="49"/>
			<point x="423" y="49" type="curve" smooth="yes"/>
			<point x="254" y="49"/>
			<point x="145" y="160"/>
			<point x="145" y="330" type="curve" smooth="yes"/>
			<point x="145" y="501"/>
			<point x="254" y="611"/>
		</contour>
		<contour>
			<point x="447" y="513" type="curve" smooth="yes"/>
			<point x="332" y="513" type="line"/>
			<point x="332" y="467" type="line"/>
			<point x="447" y="467" type="line" smooth="yes"/>
			<point x="497" y="467"/>
			<point x="524" y="444"/>
			<point x="524" y="397" type="curve" smooth="yes"/>
			<point x="524" y="351"/>
			<point x="497" y="328"/>
			<point x="447" y="328" type="curve" smooth="yes"/>
			<point x="332" y="328" type="line"/>
			<point x="332" y="281" type="line"/>
			<point x="447" y="281" type="line" smooth="yes"/>
			<point x="530" y="281"/>
			<point x="585" y="325"/>
			<point x="585" y="397" type="curve" smooth="yes"/>
			<point x="585" y="469"/>
			<point x="530" y="513"/>
		</contour>
	</outline>
</glyph>
<glyph name="degree" format="2">
	<unicode hex="00B0"/>
	<advance width="433"/>
	<outline>
		<contour>
			<point x="277" y="348" type="curve" smooth="yes"/>
			<point x="373" y="348"/>
			<point x="442" y="415"/>
			<point x="442" y="509" type="curve" smooth="yes"/>
			<point x="442" y="603"/>
			<point x="373" y="670"/>
			<point x="277" y="670" type="curve" smooth="yes"/>
			<point x="180" y="670"/>
			<point x="111" y="603"/>
			<point x="111" y="509" type="curve" smooth="yes"/>
			<point x="111" y="415"/>
			<point x="180" y="348"/>
		</contour>
		<contour>
			<point x="277" y="406" type="curve" smooth="yes"/>
			<point x="217" y="406"/>
			<point x="174" y="449"/>
			<point x="174" y="509" type="curve" smooth="yes"/>
			<point x="174" y="568"/>
			<point x="217" y="611"/>
			<point x="277" y="611" type="curve" smooth="yes"/>
			<point x="336" y="611"/>
			<point x="379" y="568"/>
			<point x="379" y="509" type="curve" smooth="yes"/>
			<point x="379" y="449"/>
			<point x="336" y="406"/>
		</contour>
	</outline>
</glyph>
<glyph name="plusminus" format="2">
	<unicode hex="00B1"/>
	<advance width="591"/>
	<outline>
		<contour>
			<point x="419" y="638" type="line"/>
			<point x="351" y="638" type="line"/>
			<point x="239" y="148" type="line"/>
			<point x="307" y="148" type="line"/>
		</contour>
		<contour>
			<point x="570" y="427" type="line"/>
			<point x="102" y="427" type="line"/>
			<point x="86" y="359" type="line"/>
			<point x="554" y="359" type="line"/>
		</contour>
		<contour>
			<point x="488" y="67" type="line"/>
			<point x="20" y="67" type="line"/>
			<point x="3" y="0" type="line"/>
			<point x="471" y="0" type="line"/>
		</contour>
	</outline>
</glyph>
<glyph name="twosuperior" format="2">
  <advance width="358"/>
  <unicode hex="00B2"/>
  <anchor x="235" y="517" name="_indexring"/>
  <outline>
    <contour>
      <point x="78" y="333" type="line"/>
      <point x="348" y="333" type="line"/>
      <point x="360" y="385" type="line"/>
      <point x="222" y="385" type="line" smooth="yes"/>
      <point x="211" y="385"/>
      <point x="187" y="384"/>
      <point x="172" y="383" type="curve"/>
      <point x="172" y="384" type="line"/>
      <point x="263" y="443"/>
      <point x="387" y="517"/>
      <point x="387" y="628" type="curve" smooth="yes"/>
      <point x="387" y="686"/>
      <point x="343" y="735"/>
      <point x="266" y="735" type="curve" smooth="yes"/>
      <point x="188" y="735"/>
      <point x="137" y="689"/>
      <point x="119" y="623" type="curve"/>
      <point x="173" y="592" type="line"/>
      <point x="183" y="648"/>
      <point x="217" y="683"/>
      <point x="263" y="683" type="curve" smooth="yes"/>
      <point x="298" y="683"/>
      <point x="324" y="664"/>
      <point x="324" y="619" type="curve" smooth="yes"/>
      <point x="324" y="530"/>
      <point x="208" y="463"/>
      <point x="90" y="383" type="curve"/>
    </contour>
  </outline>
</glyph>
<glyph name="threesuperior" format="2">
  <advance width="337"/>
  <unicode hex="00B3"/>
  <anchor x="221" y="530" name="_indexring"/>
  <outline>
    <contour>
      <point x="207" y="327" type="curve" smooth="yes"/>
      <point x="279" y="327"/>
      <point x="345" y="374"/>
      <point x="345" y="452" type="curve" smooth="yes"/>
      <point x="345" y="497"/>
      <point x="318" y="523"/>
      <point x="278" y="529" type="curve"/>
      <point x="279" y="530" type="line"/>
      <point x="333" y="535"/>
      <point x="369" y="578"/>
      <point x="369" y="636" type="curve" smooth="yes"/>
      <point x="369" y="697"/>
      <point x="319" y="735"/>
      <point x="248" y="735" type="curve" smooth="yes"/>
      <point x="182" y="735"/>
      <point x="133" y="704"/>
      <point x="111" y="651" type="curve"/>
      <point x="167" y="624" type="line"/>
      <point x="179" y="662"/>
      <point x="207" y="683"/>
      <point x="244" y="683" type="curve" smooth="yes"/>
      <point x="279" y="683"/>
      <point x="306" y="664"/>
      <point x="306" y="625" type="curve" smooth="yes"/>
      <point x="306" y="583"/>
      <point x="277" y="557"/>
      <point x="233" y="557" type="curve" smooth="yes"/>
      <point x="225" y="557"/>
      <point x="216" y="558"/>
      <point x="210" y="559" type="curve"/>
      <point x="197" y="508" type="line"/>
      <point x="203" y="509"/>
      <point x="208" y="509"/>
      <point x="213" y="509" type="curve" smooth="yes"/>
      <point x="257" y="509"/>
      <point x="281" y="489"/>
      <point x="281" y="452" type="curve" smooth="yes"/>
      <point x="281" y="412"/>
      <point x="253" y="380"/>
      <point x="209" y="380" type="curve" smooth="yes"/>
      <point x="160" y="380"/>
      <point x="136" y="408"/>
      <point x="130" y="455" type="curve"/>
      <point x="66" y="440" type="line"/>
      <point x="78" y="369"/>
      <point x="132" y="327"/>
    </contour>
  </outline>
</glyph>
<glyph name="micro" format="2">
	<advance width="600"/>
	<unicode hex="00B5"/>
	<outline>
		<contour>
			<point x="-19" y="-210" type="line"/>
			<point x="53" y="-210" type="line"/>
			<point x="115" y="58" type="line"/>
			<point x="115" y="58" type="line"/>
			<point x="139" y="11"/>
			<point x="188" y="-8"/>
			<point x="236" y="-8" type="curve" smooth="yes"/>
			<point x="302" y="-8"/>
			<point x="359" y="21"/>
			<point x="393" y="78" type="curve"/>
			<point x="380" y="0" type="line"/>
			<point x="443" y="0" type="line"/>
			<point x="559" y="500" type="line"/>
			<point x="487" y="500" type="line"/>
			<point x="425" y="232" type="line" smooth="yes"/>
			<point x="399" y="119"/>
			<point x="339" y="55"/>
			<point x="248" y="55" type="curve" smooth="yes"/>
			<point x="173" y="55"/>
			<point x="127" y="104"/>
			<point x="149" y="202" type="curve" smooth="yes"/>
			<point x="217" y="500" type="line"/>
			<point x="145" y="500" type="line"/>
		</contour>
	</outline>
</glyph>
<glyph name="paragraph" format="2">
  <advance width="640"/>
  <unicode hex="00B6"/>
  <outline>
    <contour>
      <point x="210" y="-100" type="line"/>
      <point x="276" y="-100" type="line"/>
      <point x="437" y="600" type="line"/>
      <point x="568" y="600" type="line"/>
      <point x="406" y="-100" type="line"/>
      <point x="469" y="-100" type="line"/>
      <point x="645" y="660" type="line"/>
      <point x="365" y="660" type="line" smooth="yes"/>
      <point x="189" y="660"/>
      <point x="80" y="567"/>
      <point x="80" y="400" type="curve" smooth="yes"/>
      <point x="80" y="286"/>
      <point x="155" y="205"/>
      <point x="279" y="199" type="curve"/>
    </contour>
    <contour>
      <point x="293" y="259" type="line"/>
      <point x="201" y="259"/>
      <point x="145" y="322"/>
      <point x="145" y="407" type="curve" smooth="yes"/>
      <point x="145" y="532"/>
      <point x="226" y="600"/>
      <point x="336" y="600" type="curve" smooth="yes"/>
      <point x="371" y="600" type="line"/>
    </contour>
  </outline>
</glyph>
<glyph name="periodcentered" format="2">
  <advance width="219"/>
  <unicode hex="00B7"/>
  <anchor x="76" y="347" name="_center"/>
  <outline>
    <contour>
      <point x="130" y="296" type="curve" smooth="yes"/>
      <point x="164" y="296"/>
      <point x="192" y="322"/>
      <point x="192" y="363" type="curve" smooth="yes"/>
      <point x="192" y="394"/>
      <point x="169" y="415"/>
      <point x="139" y="415" type="curve" smooth="yes"/>
      <point x="104" y="415"/>
      <point x="76" y="388"/>
      <point x="76" y="347" type="curve" smooth="yes"/>
      <point x="76" y="317"/>
      <point x="99" y="296"/>
    </contour>
  </outline>
</glyph>
<glyph name="onesuperior" format="2">
  <advance width="236"/>
  <unicode hex="00B9"/>
  <anchor x="190" y="527" name="_indexring"/>
  <outline>
    <contour>
      <point x="134" y="333" type="line"/>
      <point x="197" y="333" type="line"/>
      <point x="289" y="729" type="line"/>
      <point x="235" y="729" type="line"/>
      <point x="208" y="703"/>
      <point x="148" y="673"/>
      <point x="113" y="664" type="curve"/>
      <point x="107" y="605" type="line"/>
      <point x="141" y="614"/>
      <point x="183" y="634"/>
      <point x="212" y="659" type="curve"/>
      <point x="211" y="656"/>
      <point x="200" y="620"/>
      <point x="194" y="595" type="curve" smooth="yes"/>
    </contour>
  </outline>
</glyph>
<glyph name="ordmasculine" format="2">
	<advance width="346"/>
	<unicode hex="00BA"/>
	<outline>
		<contour>
			<point x="212" y="327" type="curve" smooth="yes"/>
			<point x="312" y="327"/>
			<point x="380" y="423"/>
			<point x="380" y="528" type="curve" smooth="yes"/>
			<point x="380" y="613"/>
			<point x="326" y="666"/>
			<point x="248" y="666" type="curve" smooth="yes"/>
			<point x="149" y="666"/>
			<point x="80" y="575"/>
			<point x="80" y="466" type="curve" smooth="yes"/>
			<point x="80" y="380"/>
			<point x="134" y="327"/>
		</contour>
		<contour>
			<point x="28" y="204" type="line"/>
			<point x="296" y="204" type="line"/>
			<point x="308" y="252" type="line"/>
			<point x="39" y="252" type="line"/>
		</contour>
		<contour>
			<point x="216" y="377" type="curve" smooth="yes"/>
			<point x="168" y="377"/>
			<point x="143" y="412"/>
			<point x="143" y="466" type="curve" smooth="yes"/>
			<point x="143" y="541"/>
			<point x="179" y="616"/>
			<point x="244" y="616" type="curve" smooth="yes"/>
			<point x="292" y="616"/>
			<point x="318" y="581"/>
			<point x="318" y="527" type="curve" smooth="yes"/>
			<point x="318" y="452"/>
			<point x="282" y="377"/>
		</contour>
	</outline>
</glyph>
<glyph name="AE" format="2">
	<advance width="913"/>
	<unicode hex="00C6"/>
	<anchor x="806" y="0" name="ogonek"/>
	<anchor x="411" y="0" name="bottom"/>
	<anchor x="564" y="660" name="top"/>
	<outline>
		<contour>
			<point x="-54" y="0" type="line"/>
			<point x="33" y="0" type="line"/>
			<point x="203" y="218" type="line"/>
			<point x="426" y="218" type="line"/>
			<point x="375" y="0" type="line"/>
			<point x="806" y="0" type="line"/>
			<point x="823" y="67" type="line"/>
			<point x="463" y="67" type="line"/>
			<point x="517" y="301" type="line"/>
			<point x="781" y="301" type="line"/>
			<point x="796" y="368" type="line"/>
			<point x="533" y="368" type="line"/>
			<point x="585" y="593" type="line"/>
			<point x="928" y="593" type="line"/>
			<point x="944" y="660" type="line"/>
			<point x="469" y="660" type="line"/>
		</contour>
		<contour>
			<point x="257" y="286" type="line"/>
			<point x="499" y="593" type="line"/>
			<point x="513" y="593" type="line"/>
			<point x="442" y="286" type="line"/>
		</contour>
	</outline>
</glyph>
<glyph name="Idieresis" format="2">
  <advance width="264"/>
  <unicode hex="00CF"/>
  <anchor x="269" y="825" name="top"/>
  <anchor x="77" y="0" name="bottom"/>
  <anchor x="113" y="0" name="ogonek"/>
  <outline>
    <contour>
      <point x="327" y="744" type="curve" smooth="yes"/>
      <point x="361" y="744"/>
      <point x="384" y="771"/>
      <point x="384" y="805" type="curve" smooth="yes"/>
      <point x="384" y="831"/>
      <point x="366" y="849"/>
      <point x="341" y="849" type="curve" smooth="yes"/>
      <point x="308" y="849"/>
      <point x="284" y="823"/>
      <point x="284" y="788" type="curve" smooth="yes"/>
      <point x="284" y="763"/>
      <point x="302" y="744"/>
    </contour>
    <contour>
      <point x="173" y="744" type="curve" smooth="yes"/>
      <point x="206" y="744"/>
      <point x="230" y="770"/>
      <point x="230" y="805" type="curve" smooth="yes"/>
      <point x="230" y="831"/>
      <point x="211" y="849"/>
      <point x="186" y="849" type="curve" smooth="yes"/>
      <point x="153" y="849"/>
      <point x="129" y="823"/>
      <point x="129" y="788" type="curve" smooth="yes"/>
      <point x="129" y="763"/>
      <point x="147" y="744"/>
    </contour>
    <component base="I" xOffset="-5"/>
  </outline>
</glyph>
<glyph name="Eth" format="2">
  <advance width="721"/>
  <unicode hex="00D0"/>
  <anchor x="302" y="0" name="bottom"/>
  <anchor x="384" y="330" name="center"/>
  <anchor x="283" y="0" name="ogonek"/>
  <anchor x="425" y="660" name="top"/>
  <outline>
    <contour>
      <point x="26" y="300" type="line"/>
      <point x="396" y="300" type="line"/>
      <point x="411" y="367" type="line"/>
      <point x="42" y="367" type="line"/>
    </contour>
    <component base="D" xOffset="18"/>
  </outline>
</glyph>
<glyph name="multiply" format="2">
  <advance width="604"/>
  <unicode hex="00D7"/>
  <outline>
    <contour>
      <point x="91" y="102" type="line"/>
      <point x="557" y="479" type="line"/>
      <point x="516" y="532" type="line"/>
      <point x="50" y="155" type="line"/>
    </contour>
    <contour>
      <point x="426" y="102" type="line"/>
      <point x="478" y="143" type="line"/>
      <point x="181" y="532" type="line"/>
      <point x="128" y="491" type="line"/>
    </contour>
  </outline>
</glyph>
<glyph name="Oslash" format="2">
	<unicode hex="00D8"/>
	<advance width="723"/>
	<outline>
		<contour>
			<point x="206" y="91" type="line"/>
			<point x="588" y="527" type="line"/>
			<point x="555" y="567" type="line"/>
			<point x="170" y="129" type="line"/>
		</contour>
		<contour>
			<point x="45" y="-12" type="line"/>
			<point x="115" y="-12" type="line"/>
			<point x="206" y="91" type="line"/>
			<point x="170" y="129" type="line"/>
		</contour>
		<contour>
			<point x="588" y="527" type="line"/>
			<point x="720" y="674" type="line"/>
			<point x="649" y="674" type="line"/>
			<point x="555" y="567" type="line"/>
		</contour>
		<component base="O"/>
	</outline>
	<anchor name="bottom" x="333" y="0"/>
	<anchor name="center" x="379" y="330"/>
	<anchor name="ogonek" x="433" y="1"/>
	<anchor name="top" x="428" y="660"/>
	<anchor name="topleft" x="115" y="660"/>
	<anchor name="topright" x="622" y="660"/>
</glyph>
<glyph name="Thorn" format="2">
	<unicode hex="00DE"/>
	<advance width="594"/>
	<outline>
		<contour>
			<point x="124" y="132" type="line"/>
			<point x="325" y="132" type="line" smooth="yes"/>
			<point x="466" y="132"/>
			<point x="566" y="227"/>
			<point x="566" y="359" type="curve" smooth="yes"/>
			<point x="566" y="464"/>
			<point x="490" y="535"/>
			<point x="363" y="535" type="curve" smooth="yes"/>
			<point x="217" y="535" type="line"/>
			<point x="199" y="468" type="line"/>
			<point x="357" y="468" type="line" smooth="yes"/>
			<point x="443" y="468"/>
			<point x="492" y="425"/>
			<point x="492" y="359" type="curve" smooth="yes"/>
			<point x="492" y="274"/>
			<point x="440" y="200"/>
			<point x="333" y="200" type="curve" smooth="yes"/>
			<point x="140" y="200" type="line"/>
		</contour>
		<contour>
			<point x="46" y="0" type="line"/>
			<point x="118" y="0" type="line"/>
			<point x="271" y="660" type="line"/>
			<point x="199" y="660" type="line"/>
		</contour>
	</outline>
	<anchor name="bottom" x="82" y="0"/>
	<anchor name="ogonek" x="118" y="0"/>
	<anchor name="top" x="235" y="660"/>
</glyph>
<glyph name="germandbls" format="2">
  <advance width="577"/>
  <unicode hex="00DF"/>
  <anchor x="283" y="0" name="bottom"/>
  <anchor x="410" y="16" name="ogonek"/>
  <anchor x="391" y="734" name="top"/>
  <outline>
    <contour>
      <point x="306" y="-10" type="curve" smooth="yes"/>
      <point x="431" y="-10"/>
      <point x="516" y="84"/>
      <point x="516" y="222" type="curve" smooth="yes"/>
      <point x="516" y="313"/>
      <point x="456" y="371"/>
      <point x="393" y="379" type="curve"/>
      <point x="393" y="381" type="line"/>
      <point x="487" y="383"/>
      <point x="564" y="471"/>
      <point x="564" y="574" type="curve" smooth="yes"/>
      <point x="564" y="669"/>
      <point x="499" y="735"/>
      <point x="386" y="735" type="curve" smooth="yes"/>
      <point x="270" y="735"/>
      <point x="185" y="670"/>
      <point x="152" y="528" type="curve" smooth="yes"/>
      <point x="30" y="0" type="line"/>
      <point x="102" y="0" type="line"/>
      <point x="217" y="498" type="line" smooth="yes"/>
      <point x="244" y="616"/>
      <point x="293" y="668"/>
      <point x="379" y="668" type="curve" smooth="yes"/>
      <point x="448" y="668"/>
      <point x="493" y="629"/>
      <point x="493" y="562" type="curve" smooth="yes"/>
      <point x="493" y="475"/>
      <point x="437" y="414"/>
      <point x="333" y="414" type="curve" smooth="yes"/>
      <point x="321" y="414"/>
      <point x="310" y="415"/>
      <point x="298" y="416" type="curve"/>
      <point x="283" y="352" type="line"/>
      <point x="290" y="353"/>
      <point x="298" y="353"/>
      <point x="305" y="353" type="curve" smooth="yes"/>
      <point x="399" y="353"/>
      <point x="448" y="297"/>
      <point x="448" y="217" type="curve" smooth="yes"/>
      <point x="448" y="133"/>
      <point x="400" y="56"/>
      <point x="310" y="56" type="curve" smooth="yes"/>
      <point x="268" y="56"/>
      <point x="230" y="70"/>
      <point x="208" y="87" type="curve"/>
      <point x="185" y="24" type="line"/>
      <point x="212" y="5"/>
      <point x="257" y="-10"/>
    </contour>
  </outline>
</glyph>
<glyph name="ae" format="2">
  <advance width="863"/>
  <unicode hex="00E6"/>
  <anchor x="360" y="0" name="bottom"/>
  <anchor x="643" y="0" name="ogonek"/>
  <anchor x="452" y="500" name="top"/>
  <outline>
    <contour>
      <point x="197" y="-10" type="curve" smooth="yes"/>
      <point x="312" y="-10"/>
      <point x="393" y="70"/>
      <point x="405" y="166" type="curve"/>
      <point x="390" y="155" type="line"/>
      <point x="390" y="70"/>
      <point x="465" y="-9"/>
      <point x="579" y="-9" type="curve" smooth="yes"/>
      <point x="667" y="-9"/>
      <point x="737" y="32"/>
      <point x="779" y="96" type="curve"/>
      <point x="723" y="134" type="line"/>
      <point x="694" y="85"/>
      <point x="650" y="53"/>
      <point x="585" y="53" type="curve" smooth="yes"/>
      <point x="499" y="53"/>
      <point x="444" y="118"/>
      <point x="444" y="209" type="curve" smooth="yes"/>
      <point x="444" y="326"/>
      <point x="497" y="447"/>
      <point x="628" y="447" type="curve" smooth="yes"/>
      <point x="694" y="447"/>
      <point x="739" y="393"/>
      <point x="739" y="319" type="curve" smooth="yes"/>
      <point x="739" y="308"/>
      <point x="739" y="303"/>
      <point x="738" y="298" type="curve"/>
      <point x="439" y="298" type="line"/>
      <point x="431" y="235" type="line"/>
      <point x="796" y="235" type="line"/>
      <point x="805" y="264"/>
      <point x="809" y="293"/>
      <point x="809" y="317" type="curve" smooth="yes"/>
      <point x="809" y="427"/>
      <point x="743" y="509"/>
      <point x="635" y="509" type="curve" smooth="yes"/>
      <point x="544" y="509"/>
      <point x="470" y="465"/>
      <point x="431" y="400" type="curve"/>
      <point x="443" y="396" type="line"/>
      <point x="439" y="456"/>
      <point x="376" y="509"/>
      <point x="289" y="509" type="curve" smooth="yes"/>
      <point x="188" y="509"/>
      <point x="117" y="466"/>
      <point x="77" y="389" type="curve"/>
      <point x="129" y="352" type="line"/>
      <point x="162" y="418"/>
      <point x="209" y="447"/>
      <point x="282" y="447" type="curve" smooth="yes"/>
      <point x="350" y="447"/>
      <point x="394" y="407"/>
      <point x="394" y="346" type="curve" smooth="yes"/>
      <point x="394" y="335"/>
      <point x="393" y="323"/>
      <point x="390" y="309" type="curve" smooth="yes"/>
      <point x="365" y="197" type="line" smooth="yes"/>
      <point x="344" y="103"/>
      <point x="291" y="51"/>
      <point x="204" y="51" type="curve" smooth="yes"/>
      <point x="144" y="51"/>
      <point x="113" y="79"/>
      <point x="113" y="128" type="curve" smooth="yes"/>
      <point x="113" y="188"/>
      <point x="163" y="210"/>
      <point x="245" y="221" type="curve" smooth="yes"/>
      <point x="405" y="242" type="line"/>
      <point x="408" y="298" type="line"/>
      <point x="220" y="274" type="line" smooth="yes"/>
      <point x="113" y="260"/>
      <point x="38" y="216"/>
      <point x="38" y="126" type="curve" smooth="yes"/>
      <point x="38" y="48"/>
      <point x="91" y="-10"/>
    </contour>
  </outline>
</glyph>
<glyph name="idieresis" format="2">
  <advance width="233"/>
  <unicode hex="00EF"/>
  <anchor x="216" y="665" name="top"/>
  <anchor x="61" y="0" name="bottom"/>
  <anchor x="97" y="0" name="ogonek"/>
  <outline>
    <contour>
      <point x="274" y="584" type="curve" smooth="yes"/>
      <point x="307" y="584"/>
      <point x="330" y="611"/>
      <point x="330" y="646" type="curve" smooth="yes"/>
      <point x="330" y="671"/>
      <point x="312" y="689"/>
      <point x="287" y="689" type="curve" smooth="yes"/>
      <point x="255" y="689"/>
      <point x="231" y="663"/>
      <point x="231" y="627" type="curve" smooth="yes"/>
      <point x="231" y="602"/>
      <point x="249" y="584"/>
    </contour>
    <contour>
      <point x="121" y="584" type="curve" smooth="yes"/>
      <point x="154" y="584"/>
      <point x="178" y="610"/>
      <point x="178" y="646" type="curve" smooth="yes"/>
      <point x="178" y="670"/>
      <point x="160" y="689"/>
      <point x="135" y="689" type="curve" smooth="yes"/>
      <point x="102" y="689"/>
      <point x="78" y="663"/>
      <point x="78" y="627" type="curve" smooth="yes"/>
      <point x="78" y="603"/>
      <point x="96" y="584"/>
    </contour>
    <component base="idotless" xOffset="-5"/>
  </outline>
</glyph>
<glyph name="eth" format="2">
	<advance width="581"/>
	<unicode hex="00F0"/>
	<anchor x="340" y="5" name="ogonek"/>
	<anchor x="229" y="0" name="bottom"/>
	<anchor x="396" y="730" name="top"/>
	<outline>
		<contour>
			<point x="258" y="-10" type="curve" smooth="yes"/>
			<point x="438" y="-10"/>
			<point x="527" y="169"/>
			<point x="527" y="381" type="curve" smooth="yes"/>
			<point x="527" y="515"/>
			<point x="474" y="672"/>
			<point x="348" y="730" type="curve"/>
			<point x="261" y="730" type="line"/>
			<point x="400" y="648"/>
			<point x="455" y="532"/>
			<point x="455" y="393" type="curve" smooth="yes"/>
			<point x="455" y="371"/>
			<point x="454" y="351"/>
			<point x="452" y="332" type="curve"/>
			<point x="466" y="334" type="line"/>
			<point x="465" y="426"/>
			<point x="395" y="487"/>
			<point x="294" y="487" type="curve" smooth="yes"/>
			<point x="157" y="487"/>
			<point x="52" y="366"/>
			<point x="52" y="212" type="curve" smooth="yes"/>
			<point x="52" y="91"/>
			<point x="127" y="-10"/>
		</contour>
		<contour>
			<point x="270" y="53" type="curve" smooth="yes"/>
			<point x="183" y="53"/>
			<point x="124" y="121"/>
			<point x="124" y="214" type="curve" smooth="yes"/>
			<point x="124" y="323"/>
			<point x="192" y="424"/>
			<point x="294" y="424" type="curve" smooth="yes"/>
			<point x="377" y="424"/>
			<point x="442" y="371"/>
			<point x="442" y="270" type="curve" smooth="yes"/>
			<point x="442" y="161"/>
			<point x="376" y="53"/>
		</contour>
		<contour>
			<point x="253" y="541" type="line"/>
			<point x="456" y="591" type="line"/>
			<point x="425" y="634" type="line"/>
			<point x="241" y="592" type="line"/>
		</contour>
		<contour>
			<point x="456" y="591" type="line"/>
			<point x="593" y="623" type="line"/>
			<point x="579" y="674" type="line"/>
			<point x="426" y="634" type="line"/>
		</contour>
	</outline>
</glyph>
<glyph name="divide" format="2">
	<advance width="604"/>
	<unicode hex="00F7"/>
	<anchor x="214" y="113" name="_center"/>
	<outline>
		<contour>
			<point x="566" y="350" type="line"/>
			<point x="84" y="350" type="line"/>
			<point x="69" y="283" type="line"/>
			<point x="551" y="283" type="line"/>
		</contour>
		<contour>
			<point x="268" y="62" type="curve" smooth="yes"/>
			<point x="302" y="62"/>
			<point x="330" y="88"/>
			<point x="330" y="129" type="curve" smooth="yes"/>
			<point x="330" y="160"/>
			<point x="307" y="181"/>
			<point x="277" y="181" type="curve" smooth="yes"/>
			<point x="242" y="181"/>
			<point x="214" y="154"/>
			<point x="214" y="113" type="curve" smooth="yes"/>
			<point x="214" y="83"/>
			<point x="237" y="62"/>
		</contour>
		<contour>
			<point x="358" y="451" type="curve" smooth="yes"/>
			<point x="392" y="451"/>
			<point x="420" y="477"/>
			<point x="420" y="518" type="curve" smooth="yes"/>
			<point x="420" y="549"/>
			<point x="397" y="570"/>
			<point x="367" y="570" type="curve" smooth="yes"/>
			<point x="332" y="570"/>
			<point x="304" y="543"/>
			<point x="304" y="502" type="curve" smooth="yes"/>
			<point x="304" y="472"/>
			<point x="327" y="451"/>
		</contour>
	</outline>
</glyph>
<glyph name="thorn" format="2">
	<unicode hex="00FE"/>
	<advance width="598"/>
	<outline>
		<contour>
			<point x="-19" y="-210" type="line"/>
			<point x="53" y="-210" type="line"/>
			<point x="139" y="168" type="line"/>
			<point x="125" y="157" type="line"/>
			<point x="128" y="57"/>
			<point x="196" y="-10"/>
			<point x="294" y="-10" type="curve" smooth="yes"/>
			<point x="436" y="-10"/>
			<point x="544" y="120"/>
			<point x="544" y="291" type="curve" smooth="yes"/>
			<point x="544" y="425"/>
			<point x="464" y="508"/>
			<point x="367" y="508" type="curve" smooth="yes"/>
			<point x="273" y="508"/>
			<point x="200" y="454"/>
			<point x="176" y="363" type="curve"/>
			<point x="190" y="385" type="line"/>
			<point x="270" y="730" type="line"/>
			<point x="198" y="730" type="line"/>
		</contour>
		<contour>
			<point x="296" y="52" type="curve" smooth="yes"/>
			<point x="207" y="52"/>
			<point x="159" y="112"/>
			<point x="159" y="203" type="curve" smooth="yes"/>
			<point x="159" y="343"/>
			<point x="235" y="446"/>
			<point x="339" y="446" type="curve" smooth="yes"/>
			<point x="418" y="446"/>
			<point x="473" y="390"/>
			<point x="473" y="292" type="curve" smooth="yes"/>
			<point x="473" y="157"/>
			<point x="395" y="52"/>
		</contour>
	</outline>
	<anchor name="bottom" x="19" y="-210"/>
	<anchor name="ogonek" x="370" y="18"/>
	<anchor name="top" x="236" y="730"/>
</glyph>
<glyph name="idotless" format="2">
  <advance width="249"/>
  <unicode hex="0131"/>
  <anchor x="66" y="0" name="bottom"/>
  <anchor x="102" y="0" name="ogonek"/>
  <anchor x="182" y="500" name="top"/>
  <outline>
    <contour>
      <point x="218" y="500" type="line"/>
      <point x="146" y="500" type="line"/>
      <point x="30" y="0" type="line"/>
      <point x="102" y="0" type="line"/>
    </contour>
  </outline>
</glyph>
<glyph name="OE" format="2">
	<advance width="1052"/>
	<unicode hex="0152"/>
	<anchor x="946" y="0" name="ogonek"/>
	<anchor x="523" y="0" name="bottom"/>
	<anchor x="675" y="660" name="top"/>
	<outline>
		<contour>
			<point x="345" y="-10" type="curve" smooth="yes"/>
			<point x="422" y="-10"/>
			<point x="488" y="21"/>
			<point x="542" y="91" type="curve"/>
			<point x="521" y="0" type="line"/>
			<point x="946" y="0" type="line"/>
			<point x="962" y="67" type="line"/>
			<point x="602" y="67" type="line"/>
			<point x="656" y="301" type="line"/>
			<point x="919" y="301" type="line"/>
			<point x="935" y="369" type="line"/>
			<point x="672" y="369" type="line"/>
			<point x="723" y="593" type="line"/>
			<point x="1067" y="593" type="line"/>
			<point x="1083" y="660" type="line"/>
			<point x="674" y="660" type="line"/>
			<point x="638" y="502" type="line"/>
			<point x="612" y="609"/>
			<point x="524" y="670"/>
			<point x="416" y="670" type="curve" smooth="yes"/>
			<point x="200" y="670"/>
			<point x="81" y="477"/>
			<point x="85" y="269" type="curve" smooth="yes"/>
			<point x="88" y="91"/>
			<point x="206" y="-10"/>
		</contour>
		<contour>
			<point x="354" y="58" type="curve" smooth="yes"/>
			<point x="240" y="58"/>
			<point x="160" y="142"/>
			<point x="160" y="284" type="curve" smooth="yes"/>
			<point x="160" y="444"/>
			<point x="249" y="602"/>
			<point x="407" y="602" type="curve" smooth="yes"/>
			<point x="525" y="602"/>
			<point x="598" y="516"/>
			<point x="597" y="376" type="curve" smooth="yes"/>
			<point x="595" y="204"/>
			<point x="505" y="58"/>
		</contour>
	</outline>
</glyph>
<glyph name="oe" format="2">
	<advance width="949"/>
	<unicode hex="0153"/>
	<anchor x="536" y="500" name="top"/>
	<anchor x="420" y="0" name="bottom"/>
	<outline>
		<contour>
			<point x="270" y="-9" type="curve" smooth="yes"/>
			<point x="359" y="-9"/>
			<point x="429" y="34"/>
			<point x="472" y="111" type="curve"/>
			<point x="504" y="36"/>
			<point x="567" y="-9"/>
			<point x="659" y="-9" type="curve" smooth="yes"/>
			<point x="751" y="-9"/>
			<point x="821" y="32"/>
			<point x="865" y="96" type="curve"/>
			<point x="808" y="134" type="line"/>
			<point x="780" y="85"/>
			<point x="734" y="53"/>
			<point x="666" y="53" type="curve" smooth="yes"/>
			<point x="576" y="53"/>
			<point x="520" y="117"/>
			<point x="520" y="209" type="curve" smooth="yes"/>
			<point x="520" y="221"/>
			<point x="520" y="229"/>
			<point x="521" y="235" type="curve"/>
			<point x="881" y="235" type="line"/>
			<point x="890" y="266"/>
			<point x="894" y="292"/>
			<point x="894" y="317" type="curve" smooth="yes"/>
			<point x="894" y="426"/>
			<point x="824" y="509"/>
			<point x="705" y="509" type="curve" smooth="yes"/>
			<point x="612" y="509"/>
			<point x="543" y="462"/>
			<point x="499" y="385" type="curve"/>
			<point x="469" y="462"/>
			<point x="406" y="509"/>
			<point x="312" y="509" type="curve" smooth="yes"/>
			<point x="159" y="509"/>
			<point x="55" y="386"/>
			<point x="55" y="214" type="curve" smooth="yes"/>
			<point x="55" y="90"/>
			<point x="131" y="-9"/>
		</contour>
		<contour>
			<point x="274" y="53" type="curve" smooth="yes"/>
			<point x="176" y="53"/>
			<point x="128" y="125"/>
			<point x="128" y="217" type="curve" smooth="yes"/>
			<point x="128" y="352"/>
			<point x="202" y="447"/>
			<point x="307" y="447" type="curve" smooth="yes"/>
			<point x="405" y="447"/>
			<point x="453" y="375"/>
			<point x="453" y="283" type="curve" smooth="yes"/>
			<point x="453" y="149"/>
			<point x="378" y="53"/>
		</contour>
		<contour>
			<point x="531" y="298" type="line"/>
			<point x="551" y="380"/>
			<point x="606" y="447"/>
			<point x="701" y="447" type="curve" smooth="yes"/>
			<point x="779" y="447"/>
			<point x="824" y="393"/>
			<point x="824" y="318" type="curve" smooth="yes"/>
			<point x="824" y="308"/>
			<point x="823" y="303"/>
			<point x="823" y="298" type="curve"/>
		</contour>
	</outline>
</glyph>
<glyph name="jdotless" format="2">
	<advance width="241"/>
	<unicode hex="0237"/>
	<anchor x="-40" y="-204" name="ogonek"/>
	<anchor x="-71" y="-210" name="bottom"/>
	<anchor x="174" y="500" name="top"/>
	<outline>
		<contour>
			<point x="-65" y="-215" type="curve" smooth="yes"/>
			<point x="-4" y="-215"/>
			<point x="54" y="-172"/>
			<point x="76" y="-77" type="curve" smooth="yes"/>
			<point x="210" y="500" type="line"/>
			<point x="138" y="500" type="line"/>
			<point x="7" y="-58" type="line" smooth="yes"/>
			<point x="-7" y="-118"/>
			<point x="-28" y="-143"/>
			<point x="-69" y="-143" type="curve" smooth="yes"/>
			<point x="-93" y="-143"/>
			<point x="-119" y="-132"/>
			<point x="-136" y="-117" type="curve"/>
			<point x="-162" y="-181" type="line"/>
			<point x="-141" y="-204"/>
			<point x="-101" y="-215"/>
		</contour>
	</outline>
</glyph>
<glyph name="gravecomb" format="2">
	<advance width="0"/>
	<unicode hex="0300"/>
	<anchor x="112" y="733" name="top"/>
	<anchor x="58" y="500" name="_top"/>
	<outline>
		<contour>
			<point x="64" y="748" type="line"/>
			<point x="-8" y="748" type="line"/>
			<point x="55" y="583" type="line"/>
			<point x="110" y="583" type="line"/>
		</contour>
	</outline>
</glyph>
<glyph name="acutecomb" format="2">
	<advance width="0"/>
	<unicode hex="0301"/>
	<anchor x="91" y="702" name="top"/>
	<anchor x="58" y="500" name="_top"/>
	<outline>
		<contour>
			<point x="151" y="748" type="line"/>
			<point x="30" y="583" type="line"/>
			<point x="97" y="583" type="line"/>
			<point x="238" y="748" type="line"/>
		</contour>
	</outline>
</glyph>
<glyph name="circumflexcomb" format="2">
	<unicode hex="0302"/>
	<outline>
		<contour>
			<point x="-81" y="577" type="line"/>
			<point x="-11" y="577" type="line"/>
			<point x="94" y="693" type="line"/>
			<point x="148" y="577" type="line"/>
			<point x="210" y="577" type="line"/>
			<point x="143" y="741" type="line"/>
			<point x="62" y="741" type="line"/>
		</contour>
	</outline>
	<anchor name="_top" x="50" y="500"/>
	<anchor name="top" x="91" y="682"/>
</glyph>
<glyph name="tildecomb" format="2">
	<unicode hex="0303"/>
	<outline>
		<contour>
			<point x="256" y="713" type="curve"/>
			<point x="199" y="713" type="line"/>
			<point x="187" y="670"/>
			<point x="168" y="643"/>
			<point x="145" y="643" type="curve" smooth="yes"/>
			<point x="106" y="643"/>
			<point x="92" y="712"/>
			<point x="26" y="712" type="curve" smooth="yes"/>
			<point x="-29" y="712"/>
			<point x="-75" y="667"/>
			<point x="-91" y="584" type="curve"/>
			<point x="-34" y="584" type="line"/>
			<point x="-23" y="627"/>
			<point x="-3" y="654"/>
			<point x="20" y="654" type="curve" smooth="yes"/>
			<point x="59" y="654"/>
			<point x="73" y="585"/>
			<point x="139" y="585" type="curve" smooth="yes"/>
			<point x="194" y="585"/>
			<point x="240" y="629"/>
		</contour>
	</outline>
	<anchor name="_top" x="51" y="500"/>
	<anchor name="top" x="90" y="693"/>
</glyph>
<glyph name="macroncomb" format="2">
	<unicode hex="0304"/>
	<outline>
		<contour>
			<point x="244" y="658" type="line"/>
			<point x="-64" y="658" type="line"/>
			<point x="-78" y="597" type="line"/>
			<point x="231" y="597" type="line"/>
		</contour>
	</outline>
	<anchor name="_top" x="58" y="500"/>
	<anchor name="top" x="97" y="656"/>
</glyph>
<glyph name="brevecomb" format="2">
  <unicode hex="0306"/>
  <anchor x="56" y="500" name="_top"/>
  <anchor x="86" y="656" name="top"/>
  <anchor x="88" y="663" name="top_viet"/>
  <outline>
    <contour>
      <point x="241" y="722" type="curve"/>
      <point x="183" y="722" type="line"/>
      <point x="173" y="664"/>
      <point x="136" y="632"/>
      <point x="88" y="632" type="curve" smooth="yes"/>
      <point x="46" y="632"/>
      <point x="18" y="658"/>
      <point x="18" y="701" type="curve" smooth="yes"/>
      <point x="18" y="707"/>
      <point x="19" y="715"/>
      <point x="20" y="722" type="curve"/>
      <point x="-34" y="722" type="line"/>
      <point x="-37" y="711"/>
      <point x="-38" y="698"/>
      <point x="-38" y="688" type="curve" smooth="yes"/>
      <point x="-38" y="625"/>
      <point x="9" y="578"/>
      <point x="81" y="578" type="curve" smooth="yes"/>
      <point x="164" y="578"/>
      <point x="226" y="634"/>
    </contour>
  </outline>
</glyph>
<glyph name="dotaccentcomb" format="2">
	<advance width="0"/>
	<unicode hex="0307"/>
	<anchor x="102" y="683" name="top"/>
	<anchor x="58" y="500" name="_top"/>
	<outline>
		<contour>
			<point x="89" y="596" type="curve" smooth="yes"/>
			<point x="121" y="596"/>
			<point x="147" y="621"/>
			<point x="147" y="659" type="curve" smooth="yes"/>
			<point x="147" y="687"/>
			<point x="127" y="707"/>
			<point x="97" y="707" type="curve" smooth="yes"/>
			<point x="65" y="707"/>
			<point x="40" y="682"/>
			<point x="40" y="644" type="curve" smooth="yes"/>
			<point x="40" y="616"/>
			<point x="60" y="596"/>
		</contour>
	</outline>
</glyph>
<glyph name="dieresiscomb" format="2">
  <unicode hex="0308"/>
  <anchor x="58" y="500" name="_top"/>
  <anchor x="99" y="665" name="top"/>
  <outline>
    <contour>
      <point x="179" y="584" type="curve" smooth="yes"/>
      <point x="211" y="584"/>
      <point x="236" y="607"/>
      <point x="236" y="644" type="curve" smooth="yes"/>
      <point x="236" y="670"/>
      <point x="216" y="689"/>
      <point x="189" y="689" type="curve" smooth="yes"/>
      <point x="157" y="689"/>
      <point x="132" y="666"/>
      <point x="132" y="629" type="curve" smooth="yes"/>
      <point x="132" y="603"/>
      <point x="152" y="584"/>
    </contour>
    <contour>
      <point x="-14" y="584" type="curve" smooth="yes"/>
      <point x="18" y="584"/>
      <point x="43" y="607"/>
      <point x="43" y="644" type="curve" smooth="yes"/>
      <point x="43" y="670"/>
      <point x="24" y="689"/>
      <point x="-3" y="689" type="curve" smooth="yes"/>
      <point x="-36" y="689"/>
      <point x="-60" y="666"/>
      <point x="-60" y="629" type="curve" smooth="yes"/>
      <point x="-60" y="603"/>
      <point x="-41" y="584"/>
    </contour>
  </outline>
</glyph>
<glyph name="ringcomb" format="2">
	<unicode hex="030A"/>
	<outline>
		<contour>
			<point x="102" y="803" type="curve" smooth="yes"/>
			<point x="32" y="803"/>
			<point x="-21" y="751"/>
			<point x="-21" y="680" type="curve" smooth="yes"/>
			<point x="-21" y="622"/>
			<point x="26" y="576"/>
			<point x="92" y="576" type="curve" smooth="yes"/>
			<point x="162" y="576"/>
			<point x="214" y="628"/>
			<point x="214" y="700" type="curve" smooth="yes"/>
			<point x="214" y="757"/>
			<point x="167" y="803"/>
		</contour>
		<contour>
			<point x="101" y="758" type="curve" smooth="yes"/>
			<point x="140" y="758"/>
			<point x="164" y="731"/>
			<point x="164" y="695" type="curve" smooth="yes"/>
			<point x="164" y="650"/>
			<point x="133" y="621"/>
			<point x="94" y="621" type="curve" smooth="yes"/>
			<point x="58" y="621"/>
			<point x="29" y="648"/>
			<point x="29" y="684" type="curve" smooth="yes"/>
			<point x="29" y="728"/>
			<point x="61" y="758"/>
		</contour>
	</outline>
	<anchor name="_top" x="59" y="500"/>
	<anchor name="top" x="108" y="774"/>
</glyph>
<glyph name="cedillacomb" format="2">
  <unicode hex="0327"/>
  <anchor x="-49" y="0" name="_bottom"/>
  <anchor x="-85" y="-213" name="bottom"/>
  <outline>
    <contour>
      <point x="-87" y="5" type="line"/>
      <point x="-40" y="-20"/>
      <point x="-15" y="-46"/>
      <point x="-15" y="-89" type="curve" smooth="yes"/>
      <point x="-15" y="-129"/>
      <point x="-42" y="-157"/>
      <point x="-82" y="-157" type="curve" smooth="yes"/>
      <point x="-112" y="-157"/>
      <point x="-138" y="-145"/>
      <point x="-156" y="-124" type="curve"/>
      <point x="-185" y="-169" type="line"/>
      <point x="-169" y="-191"/>
      <point x="-132" y="-213"/>
      <point x="-85" y="-213" type="curve" smooth="yes"/>
      <point x="-19" y="-213"/>
      <point x="42" y="-172"/>
      <point x="42" y="-91" type="curve" smooth="yes"/>
      <point x="42" y="-37"/>
      <point x="10" y="1"/>
      <point x="-45" y="26" type="curve"/>
    </contour>
  </outline>
</glyph>
<glyph name="slashlongcomb" format="2">
	<unicode hex="0338"/>
	<outline>
		<contour>
			<point x="9" y="-26" type="line"/>
			<point x="75" y="-26" type="line"/>
			<point x="579" y="527" type="line"/>
			<point x="514" y="527" type="line"/>
		</contour>
	</outline>
	<anchor name="_center" x="296" y="250"/>
</glyph>
<glyph name="ka-khmer" format="2">
	<advance width="624"/>
	<unicode hex="1780"/>
	<anchor x="386" y="594" name="top"/>
	<anchor x="592" y="594" name="topright"/>
	<anchor x="455" y="0" name="bottomright"/>
	<anchor x="249" y="0" name="bottom"/>
	<outline>
		<contour>
			<point x="104" y="264" type="curve" smooth="yes"/>
			<point x="43" y="0" type="line"/>
			<point x="113" y="0" type="line"/>
			<point x="174" y="264" type="line" smooth="yes"/>
			<point x="195" y="353"/>
			<point x="256" y="404"/>
			<point x="342" y="404" type="curve" smooth="yes"/>
			<point x="428" y="404"/>
			<point x="467" y="353"/>
			<point x="446" y="264" type="curve" smooth="yes"/>
			<point x="385" y="0" type="line"/>
			<point x="455" y="0" type="line"/>
			<point x="516" y="264" type="line" smooth="yes"/>
			<point x="545" y="391"/>
			<point x="487" y="464"/>
			<point x="356" y="464" type="curve" smooth="yes"/>
			<point x="225" y="464"/>
			<point x="133" y="391"/>
		</contour>
		<contour>
			<point x="161" y="530" type="line"/>
			<point x="581" y="530" type="line"/>
			<point x="596" y="594" type="line"/>
			<point x="176" y="594" type="line"/>
		</contour>
	</outline>
</glyph>
<glyph name="kha-khmer" format="2">
  <advance width="594"/>
  <unicode hex="1781"/>
  <anchor x="233" y="0" name="bottom"/>
  <anchor x="420" y="0" name="bottomright"/>
  <anchor x="369" y="594" name="top"/>
  <anchor x="571" y="594" name="topright"/>
  <outline>
    <contour>
      <point x="242" y="-10" type="curve" smooth="yes"/>
      <point x="357" y="-10"/>
      <point x="441" y="46"/>
      <point x="461" y="135" type="curve" smooth="yes"/>
      <point x="469" y="170"/>
      <point x="465" y="203"/>
      <point x="454" y="229" type="curve"/>
      <point x="390" y="207" type="line"/>
      <point x="400" y="187"/>
      <point x="400" y="167"/>
      <point x="396" y="150" type="curve" smooth="yes"/>
      <point x="382" y="90"/>
      <point x="323" y="50"/>
      <point x="243" y="50" type="curve" smooth="yes"/>
      <point x="163" y="50"/>
      <point x="126" y="92"/>
      <point x="144" y="166" type="curve" smooth="yes"/>
      <point x="155" y="211" type="line"/>
      <point x="323" y="233"/>
      <point x="506" y="269"/>
      <point x="542" y="423" type="curve" smooth="yes"/>
      <point x="568" y="535"/>
      <point x="491" y="604"/>
      <point x="362" y="604" type="curve" smooth="yes"/>
      <point x="240" y="604"/>
      <point x="154" y="544"/>
      <point x="134" y="457" type="curve" smooth="yes"/>
      <point x="117" y="383"/>
      <point x="154" y="336"/>
      <point x="224" y="336" type="curve" smooth="yes"/>
      <point x="243" y="336"/>
      <point x="262" y="342"/>
      <point x="274" y="349" type="curve"/>
      <point x="284" y="404" type="line"/>
      <point x="275" y="400"/>
      <point x="254" y="393"/>
      <point x="233" y="393" type="curve" smooth="yes"/>
      <point x="205" y="393"/>
      <point x="193" y="410"/>
      <point x="201" y="444" type="curve" smooth="yes"/>
      <point x="216" y="507"/>
      <point x="282" y="544"/>
      <point x="362" y="544" type="curve" smooth="yes"/>
      <point x="448" y="544"/>
      <point x="489" y="506"/>
      <point x="473" y="437" type="curve" smooth="yes"/>
      <point x="445" y="314"/>
      <point x="310" y="286"/>
      <point x="91" y="260" type="curve"/>
      <point x="72" y="176" type="line" smooth="yes"/>
      <point x="47" y="64"/>
      <point x="116" y="-10"/>
    </contour>
  </outline>
</glyph>
<glyph name="ko-khmer" format="2">
	<unicode hex="1782"/>
	<advance width="624"/>
	<outline>
		<contour>
			<point x="104" y="264" type="curve" smooth="yes"/>
			<point x="43" y="0" type="line"/>
			<point x="113" y="0" type="line"/>
			<point x="132" y="82" type="line"/>
			<point x="162" y="127"/>
			<point x="203" y="172"/>
			<point x="283" y="172" type="curve" smooth="yes"/>
			<point x="309" y="172" type="line"/>
			<point x="322" y="228" type="line"/>
			<point x="296" y="228" type="line" smooth="yes"/>
			<point x="205" y="228"/>
			<point x="154" y="177"/>
			<point x="128" y="118" type="curve"/>
			<point x="140" y="118" type="line"/>
			<point x="174" y="264" type="line" smooth="yes"/>
			<point x="195" y="353"/>
			<point x="256" y="404"/>
			<point x="342" y="404" type="curve" smooth="yes"/>
			<point x="428" y="404"/>
			<point x="467" y="353"/>
			<point x="446" y="264" type="curve" smooth="yes"/>
			<point x="385" y="0" type="line"/>
			<point x="455" y="0" type="line"/>
			<point x="516" y="264" type="line" smooth="yes"/>
			<point x="545" y="391"/>
			<point x="477" y="464"/>
			<point x="346" y="464" type="curve" smooth="yes"/>
			<point x="215" y="464"/>
			<point x="133" y="391"/>
		</contour>
		<contour>
			<point x="161" y="530" type="line"/>
			<point x="581" y="530" type="line"/>
			<point x="596" y="594" type="line"/>
			<point x="176" y="594" type="line"/>
		</contour>
	</outline>
	<anchor name="bottom" x="249" y="0"/>
	<anchor name="bottomright" x="455" y="0"/>
	<anchor name="top" x="386" y="594"/>
	<anchor name="topright" x="592" y="594"/>
</glyph>
<glyph name="ngo-khmer" format="2">
	<unicode hex="1784"/>
	<advance width="604"/>
	<outline>
		<contour>
			<point x="43" y="0" type="line"/>
			<point x="119" y="0" type="line"/>
			<point x="284" y="126" type="line"/>
			<point x="391" y="0" type="line"/>
			<point x="455" y="0" type="line"/>
			<point x="533" y="340" type="line" smooth="yes"/>
			<point x="547" y="399"/>
			<point x="537" y="434"/>
			<point x="481" y="460" type="curve"/>
			<point x="428" y="432" type="line"/>
			<point x="471" y="410"/>
			<point x="473" y="385"/>
			<point x="463" y="340" type="curve" smooth="yes"/>
			<point x="404" y="83" type="line"/>
			<point x="297" y="206" type="line"/>
			<point x="132" y="83" type="line"/>
			<point x="188" y="323" type="line"/>
			<point x="72" y="323" type="line"/>
			<point x="59" y="269" type="line"/>
			<point x="105" y="269" type="line"/>
		</contour>
		<contour>
			<point x="288" y="377" type="curve" smooth="yes"/>
			<point x="370" y="377"/>
			<point x="426" y="408"/>
			<point x="460" y="437" type="curve"/>
			<point x="500" y="446"/>
			<point x="542" y="473"/>
			<point x="552" y="516" type="curve" smooth="yes"/>
			<point x="563" y="563"/>
			<point x="532" y="599"/>
			<point x="480" y="599" type="curve" smooth="yes"/>
			<point x="429" y="599"/>
			<point x="393" y="573"/>
			<point x="382" y="527" type="curve" smooth="yes"/>
			<point x="372" y="485"/>
			<point x="397" y="450"/>
			<point x="432" y="447" type="curve"/>
			<point x="434" y="474" type="line"/>
			<point x="396" y="448"/>
			<point x="360" y="432"/>
			<point x="304" y="432" type="curve" smooth="yes"/>
			<point x="236" y="432"/>
			<point x="213" y="456"/>
			<point x="222" y="492" type="curve" smooth="yes"/>
			<point x="228" y="521"/>
			<point x="251" y="550"/>
			<point x="258" y="580" type="curve" smooth="yes"/>
			<point x="266" y="615"/>
			<point x="249" y="634"/>
			<point x="203" y="634" type="curve" smooth="yes"/>
			<point x="171" y="634" type="line"/>
			<point x="159" y="582" type="line"/>
			<point x="172" y="582" type="line" smooth="yes"/>
			<point x="186" y="582"/>
			<point x="189" y="576"/>
			<point x="186" y="563" type="curve" smooth="yes"/>
			<point x="180" y="538"/>
			<point x="159" y="517"/>
			<point x="152" y="483" type="curve" smooth="yes"/>
			<point x="136" y="417"/>
			<point x="197" y="377"/>
		</contour>
		<contour>
			<point x="459" y="487" type="curve" smooth="yes"/>
			<point x="441" y="487"/>
			<point x="432" y="501"/>
			<point x="436" y="519" type="curve" smooth="yes"/>
			<point x="440" y="537"/>
			<point x="456" y="551"/>
			<point x="474" y="551" type="curve" smooth="yes"/>
			<point x="492" y="551"/>
			<point x="502" y="537"/>
			<point x="498" y="519" type="curve" smooth="yes"/>
			<point x="494" y="501"/>
			<point x="477" y="487"/>
		</contour>
	</outline>
	<anchor name="bottom" x="249" y="0"/>
	<anchor name="bottomright" x="455" y="0"/>
	<anchor name="top" x="376" y="594"/>
	<anchor name="topright" x="582" y="594"/>
</glyph>
<glyph name="ca-khmer" format="2">
  <advance width="624"/>
  <unicode hex="1785"/>
  <anchor x="249" y="0" name="bottom"/>
  <anchor x="445" y="0" name="bottomright"/>
  <anchor x="386" y="594" name="top"/>
  <anchor x="592" y="594" name="topright"/>
  <outline>
    <contour>
      <point x="257" y="-10" type="curve" smooth="yes"/>
      <point x="388" y="-10"/>
      <point x="469" y="63"/>
      <point x="499" y="190" type="curve"/>
      <point x="548" y="402" type="line"/>
      <point x="556" y="436"/>
      <point x="537" y="452"/>
      <point x="493" y="452" type="curve" smooth="yes"/>
      <point x="436" y="452"/>
      <point x="402" y="427"/>
      <point x="389" y="370" type="curve" smooth="yes"/>
      <point x="377" y="319"/>
      <point x="402" y="282"/>
      <point x="452" y="282" type="curve" smooth="yes"/>
      <point x="469" y="282" type="line"/>
      <point x="456" y="308" type="line"/>
      <point x="429" y="190" type="line"/>
      <point x="408" y="102"/>
      <point x="347" y="50"/>
      <point x="261" y="50" type="curve" smooth="yes"/>
      <point x="175" y="50"/>
      <point x="137" y="102"/>
      <point x="157" y="190" type="curve" smooth="yes"/>
      <point x="212" y="430" type="line" smooth="yes"/>
      <point x="221" y="467"/>
      <point x="209" y="485"/>
      <point x="191" y="500" type="curve"/>
      <point x="193" y="508" type="line" smooth="yes"/>
      <point x="197" y="524"/>
      <point x="207" y="530"/>
      <point x="223" y="530" type="curve" smooth="yes"/>
      <point x="581" y="530" type="line"/>
      <point x="596" y="594" type="line"/>
      <point x="235" y="594" type="line" smooth="yes"/>
      <point x="179" y="594"/>
      <point x="147" y="569"/>
      <point x="137" y="525" type="curve" smooth="yes"/>
      <point x="128" y="485" type="line"/>
      <point x="142" y="472"/>
      <point x="148" y="458"/>
      <point x="142" y="430" type="curve" smooth="yes"/>
      <point x="87" y="190" type="line" smooth="yes"/>
      <point x="58" y="63"/>
      <point x="126" y="-10"/>
    </contour>
    <contour>
      <point x="482" y="406" type="curve"/>
      <point x="463" y="326" type="line"/>
      <point x="442" y="326"/>
      <point x="431" y="342"/>
      <point x="437" y="366" type="curve" smooth="yes"/>
      <point x="443" y="392"/>
      <point x="459" y="406"/>
    </contour>
  </outline>
</glyph>
<glyph name="cha-khmer" format="2">
	<unicode hex="1786"/>
	<advance width="624"/>
	<outline>
		<contour>
			<point x="53" y="0" type="curve"/>
			<point x="113" y="0" type="line"/>
			<point x="212" y="430" type="line" smooth="yes"/>
			<point x="221" y="467"/>
			<point x="209" y="485"/>
			<point x="191" y="500" type="curve"/>
			<point x="193" y="508" type="line" smooth="yes"/>
			<point x="197" y="524"/>
			<point x="207" y="530"/>
			<point x="223" y="530" type="curve" smooth="yes"/>
			<point x="581" y="530" type="line"/>
			<point x="596" y="594" type="line"/>
			<point x="235" y="594" type="line" smooth="yes"/>
			<point x="179" y="594"/>
			<point x="147" y="569"/>
			<point x="137" y="525" type="curve" smooth="yes"/>
			<point x="128" y="485" type="line"/>
			<point x="142" y="472"/>
			<point x="148" y="458"/>
			<point x="142" y="430" type="curve" smooth="yes"/>
			<point x="83" y="174" type="line"/>
			<point x="59" y="172"/>
			<point x="41" y="155"/>
			<point x="33" y="120" type="curve" smooth="yes"/>
			<point x="22" y="73"/>
			<point x="36" y="22"/>
		</contour>
		<contour>
			<point x="361" y="-6" type="curve" smooth="yes"/>
			<point x="420" y="-6"/>
			<point x="461" y="27"/>
			<point x="474" y="83" type="curve" smooth="yes"/>
			<point x="548" y="402" type="line" smooth="yes"/>
			<point x="556" y="436"/>
			<point x="537" y="452"/>
			<point x="493" y="452" type="curve" smooth="yes"/>
			<point x="436" y="452"/>
			<point x="402" y="427"/>
			<point x="389" y="370" type="curve" smooth="yes"/>
			<point x="377" y="319"/>
			<point x="402" y="282"/>
			<point x="452" y="282" type="curve" smooth="yes"/>
			<point x="469" y="282" type="line"/>
			<point x="456" y="308" type="line"/>
			<point x="406" y="91" type="line" smooth="yes"/>
			<point x="400" y="67"/>
			<point x="384" y="54"/>
			<point x="363" y="54" type="curve" smooth="yes"/>
			<point x="341" y="54"/>
			<point x="327" y="67"/>
			<point x="306" y="106" type="curve" smooth="yes"/>
			<point x="285" y="145"/>
			<point x="262" y="174"/>
			<point x="188" y="174" type="curve" smooth="yes"/>
			<point x="137" y="174" type="line"/>
			<point x="123" y="114" type="line"/>
			<point x="168" y="114" type="line" smooth="yes"/>
			<point x="217" y="114"/>
			<point x="235" y="98"/>
			<point x="255" y="61" type="curve" smooth="yes"/>
			<point x="276" y="22"/>
			<point x="299" y="-6"/>
		</contour>
		<contour>
			<point x="482" y="406" type="curve"/>
			<point x="463" y="326" type="line"/>
			<point x="442" y="326"/>
			<point x="431" y="342"/>
			<point x="437" y="366" type="curve" smooth="yes"/>
			<point x="443" y="392"/>
			<point x="459" y="406"/>
		</contour>
	</outline>
	<anchor name="bottom" x="249" y="0"/>
	<anchor name="bottomright" x="455" y="0"/>
	<anchor name="top" x="386" y="594"/>
	<anchor name="topright" x="592" y="594"/>
</glyph>
<glyph name="co-khmer" format="2">
  <advance width="604"/>
  <unicode hex="1787"/>
  <anchor x="239" y="0" name="bottom"/>
  <anchor x="435" y="0" name="bottomright"/>
  <anchor x="376" y="594" name="top"/>
  <anchor x="572" y="594" name="topright"/>
  <outline>
    <contour>
      <point x="43" y="0" type="line"/>
      <point x="119" y="0" type="line"/>
      <point x="274" y="126" type="line"/>
      <point x="371" y="0" type="line"/>
      <point x="435" y="0" type="line"/>
      <point x="527" y="400" type="line"/>
      <point x="457" y="400" type="line"/>
      <point x="385" y="86" type="line"/>
      <point x="287" y="209" type="line"/>
      <point x="133" y="86" type="line"/>
      <point x="212" y="430" type="line" smooth="yes"/>
      <point x="221" y="467"/>
      <point x="209" y="485"/>
      <point x="191" y="500" type="curve"/>
      <point x="193" y="508" type="line" smooth="yes"/>
      <point x="197" y="524"/>
      <point x="207" y="530"/>
      <point x="223" y="530" type="curve" smooth="yes"/>
      <point x="313" y="530" type="line"/>
      <point x="392" y="482" type="line"/>
      <point x="444" y="482" type="line" smooth="yes"/>
      <point x="516" y="482"/>
      <point x="553" y="512"/>
      <point x="569" y="582" type="curve" smooth="yes"/>
      <point x="581" y="634" type="line"/>
      <point x="515" y="634" type="line"/>
      <point x="503" y="582" type="line" smooth="yes"/>
      <point x="497" y="554"/>
      <point x="482" y="540"/>
      <point x="454" y="540" type="curve" smooth="yes"/>
      <point x="426" y="540" type="line"/>
      <point x="337" y="594" type="line"/>
      <point x="230" y="594" type="line" smooth="yes"/>
      <point x="181" y="594"/>
      <point x="147" y="568"/>
      <point x="137" y="525" type="curve" smooth="yes"/>
      <point x="128" y="485" type="line"/>
      <point x="142" y="472"/>
      <point x="148" y="458"/>
      <point x="142" y="430" type="curve" smooth="yes"/>
    </contour>
  </outline>
</glyph>
<glyph name="cho-khmer" format="2">
	<unicode hex="1788"/>
	<advance width="1192"/>
	<outline>
		<contour>
			<point x="534" y="-10" type="curve" smooth="yes"/>
			<point x="618" y="-10"/>
			<point x="673" y="29"/>
			<point x="712" y="98" type="curve"/>
			<point x="702" y="98" type="line"/>
			<point x="710" y="29"/>
			<point x="765" y="-10"/>
			<point x="849" y="-10" type="curve" smooth="yes"/>
			<point x="965" y="-10"/>
			<point x="1036" y="54"/>
			<point x="1061" y="164" type="curve" smooth="yes"/>
			<point x="1121" y="426" type="line" smooth="yes"/>
			<point x="1130" y="464"/>
			<point x="1113" y="485"/>
			<point x="1084" y="500" type="curve"/>
			<point x="1087" y="513" type="line" smooth="yes"/>
			<point x="1090" y="528"/>
			<point x="1099" y="530"/>
			<point x="1112" y="530" type="curve" smooth="yes"/>
			<point x="1165" y="530" type="line"/>
			<point x="1180" y="594" type="line"/>
			<point x="1116" y="594" type="line" smooth="yes"/>
			<point x="1066" y="594"/>
			<point x="1041" y="575"/>
			<point x="1031" y="531" type="curve" smooth="yes"/>
			<point x="1020" y="481" type="line"/>
			<point x="1045" y="468"/>
			<point x="1057" y="456"/>
			<point x="1051" y="428" type="curve" smooth="yes"/>
			<point x="991" y="164" type="line" smooth="yes"/>
			<point x="974" y="92"/>
			<point x="922" y="50"/>
			<point x="847" y="50" type="curve" smooth="yes"/>
			<point x="777" y="50"/>
			<point x="741" y="93"/>
			<point x="757" y="164" type="curve" smooth="yes"/>
			<point x="817" y="426" type="line" smooth="yes"/>
			<point x="826" y="464"/>
			<point x="809" y="485"/>
			<point x="780" y="500" type="curve"/>
			<point x="783" y="513" type="line" smooth="yes"/>
			<point x="786" y="528"/>
			<point x="795" y="530"/>
			<point x="808" y="530" type="curve" smooth="yes"/>
			<point x="861" y="530" type="line"/>
			<point x="876" y="594" type="line"/>
			<point x="812" y="594" type="line" smooth="yes"/>
			<point x="762" y="594"/>
			<point x="737" y="575"/>
			<point x="727" y="531" type="curve" smooth="yes"/>
			<point x="716" y="481" type="line"/>
			<point x="741" y="468"/>
			<point x="753" y="456"/>
			<point x="747" y="428" type="curve" smooth="yes"/>
			<point x="687" y="164" type="line" smooth="yes"/>
			<point x="671" y="93"/>
			<point x="601" y="50"/>
			<point x="544" y="50" type="curve" smooth="yes"/>
			<point x="472" y="50"/>
			<point x="436" y="92"/>
			<point x="453" y="164" type="curve" smooth="yes"/>
			<point x="513" y="423" type="line" smooth="yes"/>
			<point x="540" y="538"/>
			<point x="477" y="604"/>
			<point x="359" y="604" type="curve" smooth="yes"/>
			<point x="239" y="604"/>
			<point x="168" y="538"/>
			<point x="141" y="423" type="curve" smooth="yes"/>
			<point x="53" y="44" type="line" smooth="yes"/>
			<point x="45" y="10"/>
			<point x="64" y="-6"/>
			<point x="108" y="-6" type="curve" smooth="yes"/>
			<point x="166" y="-6"/>
			<point x="200" y="20"/>
			<point x="213" y="76" type="curve" smooth="yes"/>
			<point x="225" y="127"/>
			<point x="200" y="164"/>
			<point x="149" y="164" type="curve" smooth="yes"/>
			<point x="132" y="164" type="line"/>
			<point x="145" y="138" type="line"/>
			<point x="211" y="423" type="line" smooth="yes"/>
			<point x="229" y="499"/>
			<point x="281" y="544"/>
			<point x="356" y="544" type="curve" smooth="yes"/>
			<point x="429" y="544"/>
			<point x="461" y="499"/>
			<point x="443" y="423" type="curve" smooth="yes"/>
			<point x="383" y="164" type="line" smooth="yes"/>
			<point x="357" y="54"/>
			<point x="421" y="-10"/>
		</contour>
		<contour>
			<point x="119" y="40" type="curve"/>
			<point x="138" y="120" type="line"/>
			<point x="159" y="120"/>
			<point x="170" y="104"/>
			<point x="164" y="80" type="curve" smooth="yes"/>
			<point x="158" y="54"/>
			<point x="142" y="40"/>
		</contour>
	</outline>
	<anchor name="bottom" x="835" y="0"/>
	<anchor name="bottomright" x="1013" y="0"/>
	<anchor name="top" x="972" y="594"/>
	<anchor name="topright" x="1160" y="594"/>
</glyph>
<glyph name="nyo-khmer" format="2">
	<advance width="926"/>
	<unicode hex="1789"/>
	<anchor x="700" y="594" name="top"/>
	<anchor x="884" y="594" name="topright"/>
	<anchor x="687" y="-258" name="bottomright"/>
	<anchor x="503" y="-258" name="bottom"/>
	<outline>
		<contour>
			<point x="467" y="-258" type="curve" smooth="yes"/>
			<point x="582" y="-258" type="line" smooth="yes"/>
			<point x="665" y="-258"/>
			<point x="709" y="-220"/>
			<point x="725" y="-152" type="curve" smooth="yes"/>
			<point x="739" y="-90"/>
			<point x="710" y="-54"/>
			<point x="649" y="-54" type="curve" smooth="yes"/>
			<point x="632" y="-54"/>
			<point x="600" y="-65"/>
			<point x="580" y="-73" type="curve"/>
			<point x="568" y="-127" type="line"/>
			<point x="586" y="-120"/>
			<point x="616" y="-110"/>
			<point x="629" y="-110" type="curve" smooth="yes"/>
			<point x="651" y="-110"/>
			<point x="662" y="-125"/>
			<point x="656" y="-152" type="curve" smooth="yes"/>
			<point x="649" y="-183"/>
			<point x="625" y="-198"/>
			<point x="586" y="-198" type="curve" smooth="yes"/>
			<point x="473" y="-198" type="line" smooth="yes"/>
			<point x="333" y="-198"/>
			<point x="272" y="-90"/>
			<point x="74" y="-90" type="curve" smooth="yes"/>
			<point x="42" y="-90" type="line"/>
			<point x="28" y="-150" type="line"/>
			<point x="60" y="-150" type="line" smooth="yes"/>
			<point x="242" y="-150"/>
			<point x="304" y="-258"/>
		</contour>
		<component base="nyo-khmer.less"/>
	</outline>
</glyph>
<glyph name="da-khmer" format="2">
	<advance width="612"/>
	<unicode hex="178A"/>
	<anchor x="380" y="594" name="top"/>
	<anchor x="580" y="594" name="topright"/>
	<anchor x="443" y="0" name="bottomright"/>
	<anchor x="243" y="0" name="bottom"/>
	<outline>
		<contour>
			<point x="43" y="0" type="line"/>
			<point x="113" y="0" type="line"/>
			<point x="272" y="126" type="line"/>
			<point x="373" y="0" type="line"/>
			<point x="443" y="0" type="line"/>
			<point x="533" y="390" type="line"/>
			<point x="463" y="390" type="line"/>
			<point x="393" y="85" type="line"/>
			<point x="291" y="208" type="line"/>
			<point x="133" y="85" type="line"/>
			<point x="203" y="390" type="line"/>
			<point x="133" y="390" type="line"/>
		</contour>
		<contour>
			<point x="331" y="436" type="curve" smooth="yes"/>
			<point x="484" y="436"/>
			<point x="558" y="474"/>
			<point x="579" y="565" type="curve" smooth="yes"/>
			<point x="595" y="634" type="line"/>
			<point x="525" y="634" type="line"/>
			<point x="509" y="565" type="line" smooth="yes"/>
			<point x="497" y="513"/>
			<point x="444" y="492"/>
			<point x="331" y="492" type="curve" smooth="yes"/>
			<point x="257" y="492"/>
			<point x="221" y="506"/>
			<point x="228" y="532" type="curve" smooth="yes"/>
			<point x="231" y="543"/>
			<point x="240" y="549"/>
			<point x="252" y="549" type="curve" smooth="yes"/>
			<point x="266" y="549"/>
			<point x="284" y="543"/>
			<point x="299" y="536" type="curve"/>
			<point x="311" y="586" type="line"/>
			<point x="298" y="593"/>
			<point x="275" y="600"/>
			<point x="253" y="600" type="curve" smooth="yes"/>
			<point x="203" y="600"/>
			<point x="170" y="579"/>
			<point x="161" y="541" type="curve" smooth="yes"/>
			<point x="145" y="473"/>
			<point x="207" y="436"/>
		</contour>
	</outline>
</glyph>
<glyph name="ttha-khmer" format="2">
  <advance width="618"/>
  <unicode hex="178B"/>
  <anchor x="246" y="0" name="bottom"/>
  <anchor x="439" y="0" name="bottomright"/>
  <anchor x="383" y="594" name="top"/>
  <anchor x="586" y="594" name="topright"/>
  <outline>
    <contour>
      <point x="254" y="-10" type="curve" smooth="yes"/>
      <point x="383" y="-10"/>
      <point x="464" y="63"/>
      <point x="493" y="190" type="curve" smooth="yes"/>
      <point x="545" y="414" type="line" smooth="yes"/>
      <point x="556" y="460"/>
      <point x="528" y="485"/>
      <point x="482" y="498" type="curve"/>
      <point x="486" y="517" type="line" smooth="yes"/>
      <point x="489" y="530"/>
      <point x="498" y="535"/>
      <point x="507" y="535" type="curve" smooth="yes"/>
      <point x="511" y="535" type="line"/>
      <point x="544" y="515" type="line"/>
      <point x="558" y="515" type="line" smooth="yes"/>
      <point x="590" y="515"/>
      <point x="607" y="537"/>
      <point x="612" y="559" type="curve" smooth="yes"/>
      <point x="629" y="634" type="line"/>
      <point x="571" y="634" type="line"/>
      <point x="554" y="558" type="line"/>
      <point x="567" y="560" type="line"/>
      <point x="521" y="594" type="line"/>
      <point x="511" y="594" type="line" smooth="yes"/>
      <point x="467" y="594"/>
      <point x="438" y="571"/>
      <point x="428" y="526" type="curve" smooth="yes"/>
      <point x="416" y="471" type="line"/>
      <point x="458" y="459"/>
      <point x="483" y="450"/>
      <point x="475" y="414" type="curve" smooth="yes"/>
      <point x="423" y="190" type="line" smooth="yes"/>
      <point x="403" y="102"/>
      <point x="342" y="50"/>
      <point x="258" y="50" type="curve" smooth="yes"/>
      <point x="174" y="50"/>
      <point x="137" y="102"/>
      <point x="157" y="190" type="curve" smooth="yes"/>
      <point x="184" y="307" type="line"/>
      <point x="243" y="434" type="line"/>
      <point x="270" y="550" type="line" smooth="yes"/>
      <point x="278" y="584"/>
      <point x="260" y="600"/>
      <point x="216" y="600" type="curve" smooth="yes"/>
      <point x="159" y="600"/>
      <point x="123" y="571"/>
      <point x="110" y="514" type="curve" smooth="yes"/>
      <point x="98" y="463"/>
      <point x="124" y="430"/>
      <point x="174" y="430" type="curve" smooth="yes"/>
      <point x="179" y="430" type="line"/>
      <point x="174" y="436" type="line"/>
      <point x="114" y="309" type="line"/>
      <point x="87" y="190" type="line" smooth="yes"/>
      <point x="58" y="63"/>
      <point x="125" y="-10"/>
    </contour>
    <contour>
      <point x="204" y="554" type="curve"/>
      <point x="185" y="474" type="line"/>
      <point x="164" y="474"/>
      <point x="153" y="490"/>
      <point x="159" y="514" type="curve" smooth="yes"/>
      <point x="165" y="540"/>
      <point x="181" y="554"/>
    </contour>
  </outline>
</glyph>
<glyph name="do-khmer" format="2">
	<advance width="574"/>
	<unicode hex="178C"/>
	<anchor x="360" y="594" name="top"/>
	<anchor x="550" y="594" name="topright"/>
	<anchor x="422" y="0" name="bottomright"/>
	<anchor x="212" y="0" name="bottom"/>
	<outline>
		<contour>
			<point x="164" y="-10" type="curve" smooth="yes"/>
			<point x="225" y="-10"/>
			<point x="340" y="41"/>
			<point x="399" y="117" type="curve"/>
			<point x="401" y="182" type="line"/>
			<point x="364" y="123"/>
			<point x="237" y="48"/>
			<point x="173" y="48" type="curve" smooth="yes"/>
			<point x="129" y="48"/>
			<point x="110" y="73"/>
			<point x="126" y="141" type="curve" smooth="yes"/>
			<point x="142" y="211" type="line"/>
			<point x="346" y="231"/>
			<point x="489" y="281"/>
			<point x="519" y="414" type="curve" smooth="yes"/>
			<point x="538" y="498" type="line"/>
			<point x="448" y="604" type="line"/>
			<point x="444" y="604" type="line"/>
			<point x="345" y="530" type="line"/>
			<point x="280" y="604" type="line"/>
			<point x="276" y="604" type="line"/>
			<point x="138" y="498" type="line"/>
			<point x="121" y="427" type="line" smooth="yes"/>
			<point x="108" y="372"/>
			<point x="136" y="343"/>
			<point x="184" y="343" type="curve" smooth="yes"/>
			<point x="203" y="343"/>
			<point x="220" y="347"/>
			<point x="228" y="350" type="curve"/>
			<point x="241" y="406" type="line"/>
			<point x="233" y="403"/>
			<point x="220" y="399"/>
			<point x="207" y="399" type="curve" smooth="yes"/>
			<point x="195" y="399"/>
			<point x="187" y="407"/>
			<point x="192" y="428" type="curve" smooth="yes"/>
			<point x="204" y="479" type="line"/>
			<point x="264" y="524" type="line"/>
			<point x="326" y="458" type="line"/>
			<point x="332" y="458" type="line"/>
			<point x="424" y="524" type="line"/>
			<point x="464" y="479" type="line"/>
			<point x="447" y="409" type="line" smooth="yes"/>
			<point x="424" y="313"/>
			<point x="316" y="288"/>
			<point x="83" y="260" type="curve"/>
			<point x="55" y="137" type="line" smooth="yes"/>
			<point x="32" y="37"/>
			<point x="84" y="-10"/>
		</contour>
		<contour>
			<point x="356" y="0" type="line"/>
			<point x="422" y="0" type="line"/>
			<point x="470" y="208" type="line"/>
			<point x="402" y="208" type="line"/>
			<point x="382" y="120" type="line"/>
		</contour>
	</outline>
</glyph>
<glyph name="ttho-khmer" format="2">
	<advance width="926"/>
	<unicode hex="178D"/>
	<anchor x="699" y="594" name="top"/>
	<anchor x="894" y="594" name="topright"/>
	<anchor x="757" y="0" name="bottomright"/>
	<anchor x="562" y="0" name="bottom"/>
	<outline>
		<contour>
			<point x="367" y="0" type="line"/>
			<point x="437" y="0" type="line"/>
			<point x="549" y="487" type="line"/>
			<point x="467" y="604" type="line"/>
			<point x="463" y="604" type="line"/>
			<point x="361" y="522" type="line"/>
			<point x="295" y="604" type="line"/>
			<point x="291" y="604" type="line"/>
			<point x="155" y="487" type="line"/>
			<point x="53" y="44" type="line"/>
			<point x="45" y="10"/>
			<point x="64" y="-6"/>
			<point x="108" y="-6" type="curve" smooth="yes"/>
			<point x="166" y="-6"/>
			<point x="200" y="20"/>
			<point x="213" y="76" type="curve" smooth="yes"/>
			<point x="225" y="127"/>
			<point x="200" y="164"/>
			<point x="149" y="164" type="curve" smooth="yes"/>
			<point x="132" y="164" type="line"/>
			<point x="145" y="138" type="line"/>
			<point x="222" y="471" type="line"/>
			<point x="280" y="522" type="line"/>
			<point x="341" y="449" type="line"/>
			<point x="347" y="449" type="line"/>
			<point x="442" y="522" type="line"/>
			<point x="476" y="471" type="line"/>
		</contour>
		<contour>
			<point x="119" y="40" type="curve"/>
			<point x="138" y="120" type="line"/>
			<point x="159" y="120"/>
			<point x="170" y="104"/>
			<point x="164" y="80" type="curve" smooth="yes"/>
			<point x="158" y="54"/>
			<point x="142" y="40"/>
		</contour>
		<contour>
			<point x="667" y="-6" type="curve" smooth="yes"/>
			<point x="726" y="-6"/>
			<point x="763" y="28"/>
			<point x="777" y="87" type="curve" smooth="yes"/>
			<point x="855" y="426" type="line" smooth="yes"/>
			<point x="864" y="464"/>
			<point x="847" y="485"/>
			<point x="818" y="500" type="curve"/>
			<point x="821" y="513" type="line" smooth="yes"/>
			<point x="824" y="528"/>
			<point x="833" y="530"/>
			<point x="846" y="530" type="curve" smooth="yes"/>
			<point x="899" y="530" type="line"/>
			<point x="914" y="594" type="line"/>
			<point x="850" y="594" type="line" smooth="yes"/>
			<point x="800" y="594"/>
			<point x="775" y="575"/>
			<point x="765" y="531" type="curve" smooth="yes"/>
			<point x="754" y="481" type="line"/>
			<point x="779" y="468"/>
			<point x="791" y="456"/>
			<point x="785" y="428" type="curve" smooth="yes"/>
			<point x="708" y="92" type="line" smooth="yes"/>
			<point x="702" y="67"/>
			<point x="687" y="54"/>
			<point x="667" y="54" type="curve" smooth="yes"/>
			<point x="642" y="54"/>
			<point x="634" y="77"/>
			<point x="619" y="119" type="curve" smooth="yes"/>
			<point x="604" y="164"/>
			<point x="587" y="208"/>
			<point x="537" y="208" type="curve" smooth="yes"/>
			<point x="485" y="208"/>
			<point x="443" y="161"/>
			<point x="422" y="101" type="curve"/>
			<point x="442" y="86" type="line"/>
			<point x="456" y="114"/>
			<point x="478" y="147"/>
			<point x="513" y="147" type="curve" smooth="yes"/>
			<point x="536" y="147"/>
			<point x="551" y="128"/>
			<point x="566" y="84" type="curve" smooth="yes"/>
			<point x="586" y="30"/>
			<point x="601" y="-6"/>
		</contour>
	</outline>
</glyph>
<glyph name="nno-khmer" format="2">
	<unicode hex="178E"/>
	<advance width="1192"/>
	<outline>
		<contour>
			<point x="452" y="420" type="curve" smooth="yes"/>
			<point x="355" y="0" type="line"/>
			<point x="429" y="0" type="line"/>
			<point x="564" y="116" type="line"/>
			<point x="645" y="0" type="line"/>
			<point x="711" y="0" type="line"/>
			<point x="808" y="420" type="line" smooth="yes"/>
			<point x="826" y="499"/>
			<point x="881" y="544"/>
			<point x="958" y="544" type="curve" smooth="yes"/>
			<point x="1034" y="544"/>
			<point x="1068" y="499"/>
			<point x="1050" y="420" type="curve" smooth="yes"/>
			<point x="953" y="0" type="line"/>
			<point x="1023" y="0" type="line"/>
			<point x="1120" y="420" type="line" smooth="yes"/>
			<point x="1147" y="537"/>
			<point x="1081" y="604"/>
			<point x="961" y="604" type="curve" smooth="yes"/>
			<point x="840" y="604"/>
			<point x="765" y="537"/>
			<point x="738" y="420" type="curve" smooth="yes"/>
			<point x="660" y="82" type="line"/>
			<point x="579" y="199" type="line"/>
			<point x="444" y="82" type="line"/>
			<point x="522" y="420" type="line" smooth="yes"/>
			<point x="549" y="537"/>
			<point x="484" y="604"/>
			<point x="363" y="604" type="curve" smooth="yes"/>
			<point x="243" y="604"/>
			<point x="167" y="537"/>
			<point x="140" y="420" type="curve" smooth="yes"/>
			<point x="53" y="44" type="line" smooth="yes"/>
			<point x="45" y="10"/>
			<point x="64" y="-6"/>
			<point x="108" y="-6" type="curve" smooth="yes"/>
			<point x="166" y="-6"/>
			<point x="200" y="20"/>
			<point x="213" y="76" type="curve" smooth="yes"/>
			<point x="225" y="127"/>
			<point x="200" y="164"/>
			<point x="149" y="164" type="curve" smooth="yes"/>
			<point x="132" y="164" type="line"/>
			<point x="145" y="138" type="line"/>
			<point x="210" y="420" type="line" smooth="yes"/>
			<point x="228" y="499"/>
			<point x="284" y="544"/>
			<point x="360" y="544" type="curve" smooth="yes"/>
			<point x="437" y="544"/>
			<point x="470" y="499"/>
		</contour>
		<contour>
			<point x="119" y="40" type="curve"/>
			<point x="138" y="120" type="line"/>
			<point x="159" y="120"/>
			<point x="170" y="104"/>
			<point x="164" y="80" type="curve" smooth="yes"/>
			<point x="158" y="54"/>
			<point x="142" y="40"/>
		</contour>
	</outline>
	<anchor name="bottom" x="533" y="0"/>
	<anchor name="bottomright" x="711" y="0"/>
	<anchor name="top" x="670" y="594"/>
	<anchor name="topright" x="1150" y="594"/>
</glyph>
<glyph name="ta-khmer" format="2">
  <advance width="624"/>
  <unicode hex="178F"/>
  <anchor x="249" y="0" name="bottom"/>
  <anchor x="455" y="0" name="bottomright"/>
  <anchor x="386" y="594" name="top"/>
  <anchor x="592" y="594" name="topright"/>
  <outline>
    <contour>
      <point x="446" y="264" type="curve" smooth="yes"/>
      <point x="385" y="0" type="line"/>
      <point x="455" y="0" type="line"/>
      <point x="516" y="264" type="line" smooth="yes"/>
      <point x="545" y="391"/>
      <point x="477" y="464"/>
      <point x="346" y="464" type="curve" smooth="yes"/>
      <point x="215" y="464"/>
      <point x="134" y="391"/>
      <point x="104" y="264" type="curve"/>
      <point x="53" y="44" type="line"/>
      <point x="45" y="10"/>
      <point x="64" y="-6"/>
      <point x="108" y="-6" type="curve" smooth="yes"/>
      <point x="166" y="-6"/>
      <point x="200" y="20"/>
      <point x="213" y="76" type="curve" smooth="yes"/>
      <point x="225" y="127"/>
      <point x="200" y="164"/>
      <point x="149" y="164" type="curve" smooth="yes"/>
      <point x="132" y="164" type="line"/>
      <point x="145" y="138" type="line"/>
      <point x="174" y="264" type="line"/>
      <point x="195" y="352"/>
      <point x="256" y="404"/>
      <point x="342" y="404" type="curve" smooth="yes"/>
      <point x="428" y="404"/>
      <point x="466" y="352"/>
    </contour>
    <contour>
      <point x="119" y="40" type="curve"/>
      <point x="138" y="120" type="line"/>
      <point x="159" y="120"/>
      <point x="170" y="104"/>
      <point x="164" y="80" type="curve" smooth="yes"/>
      <point x="158" y="54"/>
      <point x="142" y="40"/>
    </contour>
    <contour>
      <point x="161" y="530" type="line"/>
      <point x="581" y="530" type="line"/>
      <point x="596" y="594" type="line"/>
      <point x="176" y="594" type="line"/>
    </contour>
  </outline>
</glyph>
<glyph name="tha-khmer" format="2">
	<unicode hex="1790"/>
	<advance width="624"/>
	<outline>
		<contour>
			<point x="257" y="-10" type="curve" smooth="yes"/>
			<point x="388" y="-10"/>
			<point x="470" y="63"/>
			<point x="499" y="190" type="curve" smooth="yes"/>
			<point x="543" y="382" type="line" smooth="yes"/>
			<point x="551" y="416"/>
			<point x="532" y="432"/>
			<point x="488" y="432" type="curve" smooth="yes"/>
			<point x="431" y="432"/>
			<point x="397" y="407"/>
			<point x="384" y="350" type="curve" smooth="yes"/>
			<point x="372" y="299"/>
			<point x="397" y="262"/>
			<point x="447" y="262" type="curve" smooth="yes"/>
			<point x="464" y="262" type="line"/>
			<point x="451" y="288" type="line"/>
			<point x="429" y="190" type="line" smooth="yes"/>
			<point x="409" y="102"/>
			<point x="347" y="50"/>
			<point x="261" y="50" type="curve" smooth="yes"/>
			<point x="175" y="50"/>
			<point x="137" y="102"/>
			<point x="157" y="190" type="curve" smooth="yes"/>
			<point x="212" y="430" type="line" smooth="yes"/>
			<point x="221" y="467"/>
			<point x="209" y="485"/>
			<point x="191" y="500" type="curve"/>
			<point x="193" y="508" type="line" smooth="yes"/>
			<point x="197" y="524"/>
			<point x="207" y="530"/>
			<point x="223" y="530" type="curve" smooth="yes"/>
			<point x="333" y="530" type="line"/>
			<point x="412" y="482" type="line"/>
			<point x="464" y="482" type="line" smooth="yes"/>
			<point x="536" y="482"/>
			<point x="573" y="512"/>
			<point x="589" y="582" type="curve" smooth="yes"/>
			<point x="601" y="634" type="line"/>
			<point x="535" y="634" type="line"/>
			<point x="523" y="582" type="line" smooth="yes"/>
			<point x="517" y="554"/>
			<point x="502" y="540"/>
			<point x="474" y="540" type="curve" smooth="yes"/>
			<point x="446" y="540" type="line"/>
			<point x="357" y="594" type="line"/>
			<point x="230" y="594" type="line" smooth="yes"/>
			<point x="181" y="594"/>
			<point x="147" y="568"/>
			<point x="137" y="525" type="curve" smooth="yes"/>
			<point x="128" y="485" type="line"/>
			<point x="142" y="472"/>
			<point x="148" y="458"/>
			<point x="142" y="430" type="curve" smooth="yes"/>
			<point x="87" y="190" type="line" smooth="yes"/>
			<point x="58" y="63"/>
			<point x="126" y="-10"/>
		</contour>
		<contour>
			<point x="477" y="386" type="curve"/>
			<point x="458" y="306" type="line"/>
			<point x="437" y="306"/>
			<point x="426" y="322"/>
			<point x="432" y="346" type="curve" smooth="yes"/>
			<point x="438" y="372"/>
			<point x="454" y="386"/>
		</contour>
	</outline>
	<anchor name="bottom" x="249" y="0"/>
	<anchor name="bottomright" x="445" y="0"/>
	<anchor name="top" x="386" y="594"/>
	<anchor name="topright" x="592" y="594"/>
</glyph>
<glyph name="to-khmer" format="2">
	<advance width="574"/>
	<unicode hex="1791"/>
	<anchor x="360" y="594" name="top"/>
	<anchor x="550" y="594" name="topright"/>
	<anchor x="353" y="0" name="bottomright"/>
	<anchor x="212" y="0" name="bottom"/>
	<outline>
		<contour>
			<point x="346" y="201" type="curve"/>
			<point x="372" y="244" type="line"/>
			<point x="232" y="269"/>
			<point x="161" y="314"/>
			<point x="186" y="424" type="curve" smooth="yes"/>
			<point x="202" y="496"/>
			<point x="265" y="544"/>
			<point x="345" y="544" type="curve" smooth="yes"/>
			<point x="421" y="544"/>
			<point x="464" y="504"/>
			<point x="452" y="450" type="curve" smooth="yes"/>
			<point x="447" y="430"/>
			<point x="433" y="406"/>
			<point x="422" y="388" type="curve"/>
			<point x="495" y="388" type="line"/>
			<point x="505" y="402"/>
			<point x="517" y="422"/>
			<point x="523" y="447" type="curve" smooth="yes"/>
			<point x="543" y="534"/>
			<point x="470" y="604"/>
			<point x="347" y="604" type="curve" smooth="yes"/>
			<point x="230" y="604"/>
			<point x="139" y="538"/>
			<point x="116" y="438" type="curve" smooth="yes"/>
			<point x="81" y="290"/>
			<point x="200" y="220"/>
		</contour>
		<contour>
			<point x="218" y="-10" type="curve" smooth="yes"/>
			<point x="314" y="-10"/>
			<point x="374" y="44"/>
			<point x="395" y="137" type="curve" smooth="yes"/>
			<point x="412" y="212" type="line"/>
			<point x="389" y="186" type="line"/>
			<point x="399" y="186" type="line" smooth="yes"/>
			<point x="440" y="186"/>
			<point x="479" y="209"/>
			<point x="490" y="257" type="curve" smooth="yes"/>
			<point x="501" y="301"/>
			<point x="476" y="330"/>
			<point x="430" y="330" type="curve" smooth="yes"/>
			<point x="390" y="330"/>
			<point x="368" y="314"/>
			<point x="360" y="280" type="curve" smooth="yes"/>
			<point x="327" y="138" type="line" smooth="yes"/>
			<point x="314" y="81"/>
			<point x="276" y="48"/>
			<point x="223" y="48" type="curve" smooth="yes"/>
			<point x="170" y="48"/>
			<point x="146" y="81"/>
			<point x="160" y="138" type="curve" smooth="yes"/>
			<point x="171" y="184" type="line"/>
			<point x="103" y="184" type="line"/>
			<point x="93" y="139" type="line" smooth="yes"/>
			<point x="72" y="45"/>
			<point x="122" y="-10"/>
		</contour>
		<contour>
			<point x="408" y="228" type="curve"/>
			<point x="421" y="288" type="line"/>
			<point x="441" y="288"/>
			<point x="449" y="276"/>
			<point x="445" y="257" type="curve" smooth="yes"/>
			<point x="441" y="238"/>
			<point x="428" y="228"/>
		</contour>
	</outline>
</glyph>
<glyph name="tho-khmer" format="2">
	<advance width="624"/>
	<unicode hex="1792"/>
	<anchor x="386" y="594" name="top"/>
	<anchor x="592" y="594" name="topright"/>
	<anchor x="455" y="0" name="bottomright"/>
	<anchor x="249" y="0" name="bottom"/>
	<outline>
		<contour>
			<point x="142" y="430" type="curve" smooth="yes"/>
			<point x="43" y="0" type="line"/>
			<point x="119" y="0" type="line"/>
			<point x="284" y="126" type="line"/>
			<point x="391" y="0" type="line"/>
			<point x="455" y="0" type="line"/>
			<point x="548" y="402" type="line"/>
			<point x="556" y="436"/>
			<point x="537" y="452"/>
			<point x="493" y="452" type="curve" smooth="yes"/>
			<point x="436" y="452"/>
			<point x="402" y="427"/>
			<point x="389" y="370" type="curve" smooth="yes"/>
			<point x="377" y="319"/>
			<point x="402" y="282"/>
			<point x="452" y="282" type="curve" smooth="yes"/>
			<point x="469" y="282" type="line"/>
			<point x="456" y="308" type="line"/>
			<point x="404" y="83" type="line"/>
			<point x="297" y="206" type="line"/>
			<point x="132" y="83" type="line"/>
			<point x="212" y="430" type="line" smooth="yes"/>
			<point x="221" y="467"/>
			<point x="209" y="485"/>
			<point x="191" y="500" type="curve"/>
			<point x="193" y="508" type="line" smooth="yes"/>
			<point x="197" y="524"/>
			<point x="207" y="530"/>
			<point x="223" y="530" type="curve" smooth="yes"/>
			<point x="581" y="530" type="line"/>
			<point x="596" y="594" type="line"/>
			<point x="235" y="594" type="line" smooth="yes"/>
			<point x="179" y="594"/>
			<point x="147" y="569"/>
			<point x="137" y="525" type="curve" smooth="yes"/>
			<point x="128" y="485" type="line"/>
			<point x="142" y="472"/>
			<point x="148" y="458"/>
		</contour>
		<contour>
			<point x="482" y="406" type="curve"/>
			<point x="463" y="326" type="line"/>
			<point x="442" y="326"/>
			<point x="431" y="342"/>
			<point x="437" y="366" type="curve" smooth="yes"/>
			<point x="443" y="392"/>
			<point x="459" y="406"/>
		</contour>
	</outline>
</glyph>
<glyph name="no-khmer" format="2">
	<advance width="588"/>
	<unicode hex="1793"/>
	<anchor x="374" y="594" name="top"/>
	<anchor x="560" y="594" name="topright"/>
	<anchor x="423" y="0" name="bottomright"/>
	<anchor x="237" y="0" name="bottom"/>
	<outline>
		<contour>
			<point x="269" y="-10" type="curve" smooth="yes"/>
			<point x="368" y="-10"/>
			<point x="443" y="43"/>
			<point x="464" y="135" type="curve" smooth="yes"/>
			<point x="493" y="260" type="line"/>
			<point x="296" y="290"/>
			<point x="167" y="312"/>
			<point x="194" y="429" type="curve" smooth="yes"/>
			<point x="211" y="504"/>
			<point x="275" y="544"/>
			<point x="363" y="544" type="curve" smooth="yes"/>
			<point x="443" y="544"/>
			<point x="487" y="513"/>
			<point x="474" y="457" type="curve" smooth="yes"/>
			<point x="466" y="424"/>
			<point x="445" y="402"/>
			<point x="412" y="402" type="curve" smooth="yes"/>
			<point x="395" y="402"/>
			<point x="378" y="408"/>
			<point x="369" y="412" type="curve"/>
			<point x="356" y="356" type="line"/>
			<point x="366" y="351"/>
			<point x="384" y="346"/>
			<point x="406" y="346" type="curve" smooth="yes"/>
			<point x="473" y="346"/>
			<point x="528" y="382"/>
			<point x="543" y="448" type="curve" smooth="yes"/>
			<point x="564" y="538"/>
			<point x="495" y="604"/>
			<point x="366" y="604" type="curve" smooth="yes"/>
			<point x="238" y="604"/>
			<point x="149" y="548"/>
			<point x="125" y="444" type="curve" smooth="yes"/>
			<point x="89" y="286"/>
			<point x="251" y="233"/>
			<point x="412" y="211" type="curve"/>
			<point x="395" y="137" type="line" smooth="yes"/>
			<point x="382" y="79"/>
			<point x="334" y="48"/>
			<point x="272" y="48" type="curve" smooth="yes"/>
			<point x="175" y="48"/>
			<point x="147" y="123"/>
			<point x="141" y="182" type="curve"/>
			<point x="106" y="130" type="line"/>
			<point x="121" y="53"/>
			<point x="160" y="-10"/>
		</contour>
		<contour>
			<point x="35" y="0" type="line"/>
			<point x="101" y="0" type="line"/>
			<point x="127" y="102" type="line"/>
			<point x="151" y="208" type="line"/>
			<point x="83" y="208" type="line"/>
		</contour>
	</outline>
</glyph>
<glyph name="ba-khmer" format="2">
  <advance width="622"/>
  <unicode hex="1794"/>
  <anchor x="248" y="0" name="bottom"/>
  <anchor x="443" y="0" name="bottomright"/>
  <anchor x="385" y="594" name="top"/>
  <anchor x="590" y="594" name="topright"/>
  <outline>
    <contour>
      <point x="256" y="-10" type="curve" smooth="yes"/>
      <point x="386" y="-10"/>
      <point x="468" y="63"/>
      <point x="497" y="190" type="curve" smooth="yes"/>
      <point x="551" y="426" type="line" smooth="yes"/>
      <point x="560" y="464"/>
      <point x="543" y="485"/>
      <point x="514" y="500" type="curve"/>
      <point x="517" y="513" type="line" smooth="yes"/>
      <point x="520" y="528"/>
      <point x="529" y="530"/>
      <point x="542" y="530" type="curve" smooth="yes"/>
      <point x="595" y="530" type="line"/>
      <point x="610" y="594" type="line"/>
      <point x="546" y="594" type="line" smooth="yes"/>
      <point x="496" y="594"/>
      <point x="471" y="575"/>
      <point x="461" y="531" type="curve" smooth="yes"/>
      <point x="450" y="481" type="line"/>
      <point x="475" y="468"/>
      <point x="487" y="456"/>
      <point x="481" y="428" type="curve" smooth="yes"/>
      <point x="427" y="190" type="line" smooth="yes"/>
      <point x="407" y="102"/>
      <point x="345" y="50"/>
      <point x="260" y="50" type="curve" smooth="yes"/>
      <point x="175" y="50"/>
      <point x="137" y="102"/>
      <point x="157" y="190" type="curve" smooth="yes"/>
      <point x="211" y="426" type="line" smooth="yes"/>
      <point x="220" y="464"/>
      <point x="203" y="485"/>
      <point x="174" y="500" type="curve"/>
      <point x="177" y="513" type="line" smooth="yes"/>
      <point x="180" y="528"/>
      <point x="189" y="530"/>
      <point x="202" y="530" type="curve" smooth="yes"/>
      <point x="255" y="530" type="line"/>
      <point x="270" y="594" type="line"/>
      <point x="206" y="594" type="line" smooth="yes"/>
      <point x="156" y="594"/>
      <point x="131" y="575"/>
      <point x="121" y="531" type="curve" smooth="yes"/>
      <point x="110" y="481" type="line"/>
      <point x="135" y="468"/>
      <point x="147" y="456"/>
      <point x="141" y="428" type="curve" smooth="yes"/>
      <point x="87" y="190" type="line" smooth="yes"/>
      <point x="58" y="63"/>
      <point x="126" y="-10"/>
    </contour>
  </outline>
</glyph>
<glyph name="pha-khmer" format="2">
	<unicode hex="1795"/>
	<advance width="624"/>
	<outline>
		<contour>
			<point x="142" y="430" type="curve" smooth="yes"/>
			<point x="43" y="0" type="line"/>
			<point x="119" y="0" type="line"/>
			<point x="284" y="126" type="line"/>
			<point x="391" y="0" type="line"/>
			<point x="455" y="0" type="line"/>
			<point x="543" y="382" type="line" smooth="yes"/>
			<point x="551" y="416"/>
			<point x="532" y="432"/>
			<point x="488" y="432" type="curve" smooth="yes"/>
			<point x="431" y="432"/>
			<point x="397" y="407"/>
			<point x="384" y="350" type="curve" smooth="yes"/>
			<point x="372" y="299"/>
			<point x="397" y="262"/>
			<point x="447" y="262" type="curve" smooth="yes"/>
			<point x="464" y="262" type="line"/>
			<point x="451" y="288" type="line"/>
			<point x="404" y="83" type="line"/>
			<point x="297" y="206" type="line"/>
			<point x="132" y="83" type="line"/>
			<point x="212" y="430" type="line" smooth="yes"/>
			<point x="221" y="467"/>
			<point x="209" y="485"/>
			<point x="191" y="500" type="curve"/>
			<point x="193" y="508" type="line" smooth="yes"/>
			<point x="197" y="524"/>
			<point x="207" y="530"/>
			<point x="223" y="530" type="curve" smooth="yes"/>
			<point x="333" y="530" type="line"/>
			<point x="412" y="482" type="line"/>
			<point x="464" y="482" type="line" smooth="yes"/>
			<point x="536" y="482"/>
			<point x="573" y="512"/>
			<point x="589" y="582" type="curve" smooth="yes"/>
			<point x="601" y="634" type="line"/>
			<point x="535" y="634" type="line"/>
			<point x="523" y="582" type="line" smooth="yes"/>
			<point x="517" y="554"/>
			<point x="502" y="540"/>
			<point x="474" y="540" type="curve" smooth="yes"/>
			<point x="446" y="540" type="line"/>
			<point x="357" y="594" type="line"/>
			<point x="230" y="594" type="line" smooth="yes"/>
			<point x="181" y="594"/>
			<point x="147" y="568"/>
			<point x="137" y="525" type="curve" smooth="yes"/>
			<point x="128" y="485" type="line"/>
			<point x="142" y="472"/>
			<point x="148" y="458"/>
		</contour>
		<contour>
			<point x="477" y="386" type="curve"/>
			<point x="458" y="306" type="line"/>
			<point x="437" y="306"/>
			<point x="426" y="322"/>
			<point x="432" y="346" type="curve" smooth="yes"/>
			<point x="438" y="372"/>
			<point x="454" y="386"/>
		</contour>
	</outline>
	<anchor name="bottom" x="249" y="0"/>
	<anchor name="bottomright" x="455" y="0"/>
	<anchor name="top" x="386" y="594"/>
	<anchor name="topright" x="592" y="594"/>
</glyph>
<glyph name="po-khmer" format="2">
	<advance width="624"/>
	<unicode hex="1796"/>
	<anchor x="386" y="594" name="top"/>
	<anchor x="582" y="594" name="topright"/>
	<anchor x="455" y="0" name="bottomright"/>
	<anchor x="249" y="0" name="bottom"/>
	<outline>
		<contour>
			<point x="385" y="0" type="line"/>
			<point x="455" y="0" type="line"/>
			<point x="567" y="487" type="line"/>
			<point x="481" y="604" type="line"/>
			<point x="477" y="604" type="line"/>
			<point x="370" y="522" type="line"/>
			<point x="299" y="604" type="line"/>
			<point x="295" y="604" type="line"/>
			<point x="155" y="487" type="line"/>
			<point x="53" y="44" type="line"/>
			<point x="45" y="10"/>
			<point x="64" y="-6"/>
			<point x="108" y="-6" type="curve" smooth="yes"/>
			<point x="166" y="-6"/>
			<point x="200" y="20"/>
			<point x="213" y="76" type="curve" smooth="yes"/>
			<point x="225" y="127"/>
			<point x="200" y="164"/>
			<point x="149" y="164" type="curve" smooth="yes"/>
			<point x="132" y="164" type="line"/>
			<point x="145" y="138" type="line"/>
			<point x="222" y="471" type="line"/>
			<point x="284" y="522" type="line"/>
			<point x="350" y="449" type="line"/>
			<point x="356" y="449" type="line"/>
			<point x="456" y="522" type="line"/>
			<point x="494" y="471" type="line"/>
		</contour>
		<contour>
			<point x="119" y="40" type="curve"/>
			<point x="138" y="120" type="line"/>
			<point x="159" y="120"/>
			<point x="170" y="104"/>
			<point x="164" y="80" type="curve" smooth="yes"/>
			<point x="158" y="54"/>
			<point x="142" y="40"/>
		</contour>
	</outline>
</glyph>
<glyph name="pho-khmer" format="2">
  <advance width="624"/>
  <unicode hex="1797"/>
  <anchor x="249" y="0" name="bottom"/>
  <anchor x="455" y="0" name="bottomright"/>
  <anchor x="386" y="594" name="top"/>
  <anchor x="592" y="594" name="topright"/>
  <outline>
    <contour>
      <point x="90" y="-6" type="curve" smooth="yes"/>
      <point x="129" y="-6"/>
      <point x="158" y="13"/>
      <point x="168" y="57" type="curve" smooth="yes"/>
      <point x="188" y="144"/>
      <point x="165" y="227"/>
      <point x="181" y="294" type="curve" smooth="yes"/>
      <point x="197" y="364"/>
      <point x="256" y="404"/>
      <point x="342" y="404" type="curve" smooth="yes"/>
      <point x="428" y="404"/>
      <point x="467" y="353"/>
      <point x="446" y="264" type="curve" smooth="yes"/>
      <point x="385" y="0" type="line"/>
      <point x="455" y="0" type="line"/>
      <point x="516" y="264" type="line" smooth="yes"/>
      <point x="545" y="391"/>
      <point x="477" y="464"/>
      <point x="346" y="464" type="curve" smooth="yes"/>
      <point x="215" y="464"/>
      <point x="136" y="402"/>
      <point x="111" y="294" type="curve" smooth="yes"/>
      <point x="89" y="198"/>
      <point x="118" y="123"/>
      <point x="103" y="56" type="curve" smooth="yes"/>
      <point x="101" y="47"/>
      <point x="98" y="39"/>
      <point x="93" y="31" type="curve"/>
      <point x="91" y="31" type="line"/>
      <point x="78" y="50"/>
      <point x="72" y="78"/>
      <point x="72" y="115" type="curve"/>
      <point x="14" y="93" type="line"/>
      <point x="12" y="39"/>
      <point x="27" y="-6"/>
    </contour>
    <contour>
      <point x="161" y="530" type="line"/>
      <point x="581" y="530" type="line"/>
      <point x="596" y="594" type="line"/>
      <point x="176" y="594" type="line"/>
    </contour>
  </outline>
</glyph>
